<svg width="24" height="24" viewBox="0 0 24 24" xmlns="http://www.w3.org/2000/svg">
  <g fill-rule="nonzero" fill="none">
    <path d="M0 0h24v24H0z"/>
    <path d="M10.9393398 12L6.21966991 7.28033009c-.29289321-.29289322-.29289321-.76776696 0-1.06066018.29289322-.29289321.76776696-.29289321 1.06066018 0L12 10.9393398l4.7196699-4.71966989c.2928932-.29289321.767767-.29289321 1.0606602 0 .2928932.29289322.2928932.76776696 0 1.06066018L13.0606602 12l4.7196699 4.7196699c.2928932.2928932.2928932.767767 0 1.0606602-.2928932.2928932-.767767.2928932-1.0606602 0L12 13.0606602l-4.71966991 4.7196699c-.29289322.2928932-.76776696.2928932-1.06066018 0-.29289321-.2928932-.29289321-.767767 0-1.0606602L10.9393398 12z" fill="#A3ACB9"/>
  </g>
</svg>
