<?xml version="1.0" encoding="UTF-8"?>
<svg width="20px" height="19px" viewBox="0 0 20 19" version="1.1" xmlns="http://www.w3.org/2000/svg" xmlns:xlink="http://www.w3.org/1999/xlink">
    <title>Group 21</title>
    <defs>
        <path d="M8.77499924,17.0053352 C14.3084595,16.5798029 16.2714388,12.8936208 16.6480691,8.40349891 L16.6589986,8.26719107 C16.8456898,5.82726144 16.8432764,3.34309701 15.1483659,1.83474537 C13.6935527,0.540063628 10.8751892,6.13908871e-14 8.77499924,6.13908871e-14 C4.52274719,6.13908871e-14 1.74755873,2.2969292 0.663127409,5.15341678 C0.322132799,6.05162661 0.148313508,7.00516334 0.148313508,7.96001017 C0.148313508,9.57752443 -0.19944455,13.1845544 0.765858597,14.7032491 C2.18258119,16.932154 5.45070106,17.2609793 8.77499924,17.0053352 Z" id="path-1"></path>
    </defs>
    <g id="Website" stroke="none" stroke-width="1" fill="none" fill-rule="evenodd" opacity="0.900000036">
        <g id="Menu-/-Pricing" transform="translate(-79.000000, -48.000000)">
            <g id="Group-3" transform="translate(49.000000, 21.000000)">
                <g id="Group-2" transform="translate(8.000000, 4.000000)">
                    <g id="Group-118" transform="translate(16.000000, 16.000000)">
                        <g id="Group-21" transform="translate(6.000000, 7.000000)">
                            <g id="Shape" transform="translate(2.430000, 0.540000)">
                                <mask id="mask-2" fill="white">
                                    <use xlink:href="#path-1"></use>
                                </mask>
                                <g id="Mask"></g>
                                <path d="M4.0549893,10.8270711 C4.0613843,10.8142811 -0.421174177,14.2462324 0.0322130899,14.3231262 C1.3275003,14.5428047 0.90412801,17.9060732 4.8391114,17.889562 C11.1573014,17.863051 22.4010464,14.3674295 22.6210593,14.5581074 C23.1880593,15.0441073 15.4375557,2.8840106 15.7075557,3.53201055 C15.0865557,2.72201062 14.7085558,2.42501064 14.1685558,2.42501064 C14.0065558,2.42501064 13.8715558,2.45201064 13.7095558,2.53301063 C13.5745559,2.58701063 13.4395559,2.66801062 13.3045559,2.72201062 C13.2235559,2.77601061 13.1155559,2.83001061 13.0345559,2.85701061 C12.8185559,2.74901061 12.6025559,2.69501062 12.386556,2.69501062 C12.116556,2.69501062 11.900556,2.77601061 11.711556,2.85701061 C11.1715561,2.85701061 10.8205561,3.15401058 10.4695561,3.61301054 C10.2805561,3.85601052 9.95655617,4.20701049 9.5785562,4.66601045 C8.93055626,4.47701047 4.35198928,10.6920711 4.0549893,10.8270711 Z M16.4365556,6.85301026 C16.4365556,6.93401025 16.4365556,7.01501025 16.4095556,7.09601024 C16.3285556,7.01501025 16.2475556,6.93401025 16.1665556,6.85301026 C16.0045556,6.69101028 15.8425557,6.55601029 15.7075557,6.4480103 C15.7075557,6.4480103 15.7075557,6.4480103 15.6805557,6.4480103 C15.6265557,6.4210103 15.5995557,6.3940103 15.5455557,6.3670103 C15.5455557,6.3670103 15.5455557,6.3670103 15.5185557,6.3670103 C15.5185557,6.31301031 15.4915557,6.31301031 15.4375557,6.28601031 C15.4105557,6.25901031 15.3565557,6.25901031 15.3295557,6.25901031 C15.3295557,6.25901031 15.3295557,6.25901031 15.3025557,6.25901031 C15.2755557,6.25901031 15.2485557,6.25901031 15.2215557,6.25901031 C15.1945557,6.25901031 15.1675557,6.28601031 15.1675557,6.31301031 C15.1405557,6.34001031 15.1405557,6.3670103 15.1405557,6.3940103 C15.1405557,6.3940103 15.1405557,6.4210103 15.1405557,6.4210103 C15.1405557,6.4480103 15.1405557,6.47501029 15.1135557,6.50201029 C15.1135557,6.50201029 15.1135557,6.52901029 15.1135557,6.52901029 C15.1135557,6.55601029 15.1135557,6.58301028 15.1135557,6.61001028 C15.1135557,6.61001028 15.1135557,6.63701028 15.1135557,6.63701028 C15.1135557,6.66401028 15.1135557,6.71801027 15.1135557,6.74501027 C15.1135557,6.74501027 15.1135557,6.77201027 15.1135557,6.77201027 C15.1135557,6.82601026 15.1135557,6.85301026 15.1405557,6.90701026 C15.1405557,6.90701026 15.1405557,6.93401025 15.1405557,6.93401025 C15.1405557,6.98801025 15.1675557,7.04201024 15.1675557,7.09601024 C15.1675557,7.15001024 15.1945557,7.23101023 15.1945557,7.28501022 C15.2215557,7.36601022 15.2215557,7.42001021 15.2485557,7.50101021 C15.3025557,7.77101018 15.3835557,8.04101016 15.4645557,8.33801013 C15.5455557,8.63501011 15.6535557,8.93201008 15.7345557,9.17501006 C15.7615557,9.22901006 15.7615557,9.25601005 15.7615557,9.31001005 C15.7615557,9.33701005 15.7615557,9.33701005 15.7615557,9.36401005 C15.7615557,9.39101004 15.7615557,9.39101004 15.7615557,9.41801004 C15.7615557,9.44501004 15.7615557,9.49901003 15.7615557,9.49901003 C15.7615557,9.52601003 15.7615557,9.52601003 15.7615557,9.52601003 C15.7615557,9.55301003 15.7345557,9.55301003 15.7075557,9.55301003 C15.6805557,9.55301003 15.6535557,9.55301003 15.6265557,9.52601003 C15.5185557,9.47201004 15.3295557,9.28301005 15.0865557,8.98601008 C15.0865557,8.98601008 15.0865557,8.98601008 15.0865557,8.95901008 C15.0325557,8.87801009 14.9785557,8.82401009 14.8975557,8.7430101 C14.8975557,8.7430101 14.8975557,8.7160101 14.8705557,8.7160101 C14.6005558,8.39201013 14.3035558,7.96001017 13.9795558,7.42001021 C13.9525558,7.36601022 13.9255558,7.31201022 13.8715558,7.28501022 C13.8715558,7.28501022 13.8445558,7.25801023 13.8445558,7.25801023 C13.8175558,7.23101023 13.7905558,7.17701023 13.7365558,7.15001024 C13.7095558,7.12301024 13.6825558,7.09601024 13.6555559,7.06901024 C13.6555559,7.06901024 13.6285559,7.06901024 13.6285559,7.04201024 C13.6015559,7.01501025 13.5745559,7.01501025 13.5205559,6.98801025 C13.5205559,6.98801025 13.5205559,6.98801025 13.4935559,6.98801025 C13.4665559,6.98801025 13.4395559,6.96101025 13.4125559,6.96101025 C13.4125559,6.96101025 13.3855559,6.96101025 13.3855559,6.96101025 C13.3585559,6.96101025 13.3315559,6.96101025 13.2775559,6.96101025 C13.2775559,6.96101025 13.2775559,6.96101025 13.2505559,6.96101025 C13.2235559,6.96101025 13.1965559,6.96101025 13.1695559,6.98801025 C13.1695559,6.98801025 13.1695559,6.98801025 13.1425559,6.98801025 C13.1155559,6.98801025 13.0885559,7.01501025 13.0345559,7.04201024 C13.0345559,7.04201024 13.0345559,7.04201024 13.0075559,7.04201024 C12.9805559,7.06901024 12.9535559,7.06901024 12.9265559,7.09601024 C12.9265559,7.09601024 12.9265559,7.09601024 12.8995559,7.09601024 C12.8725559,7.12301024 12.8455559,7.15001024 12.7915559,7.17701023 C12.7915559,7.17701023 12.7915559,7.17701023 12.7645559,7.20401023 C12.7375559,7.23101023 12.7105559,7.25801023 12.6835559,7.28501022 C12.6565559,7.31201022 12.6295559,7.36601022 12.6025559,7.39301021 C12.6025559,7.39301021 12.6025559,7.42001021 12.5755559,7.42001021 C12.5485559,7.44701021 12.5215559,7.50101021 12.494556,7.5280102 C12.467556,7.5820102 12.440556,7.6090102 12.413556,7.66301019 C12.413556,7.66301019 12.386556,7.69001019 12.386556,7.69001019 C12.359556,7.74401018 12.332556,7.77101018 12.305556,7.82501018 C12.278556,7.87901017 12.251556,7.90601017 12.224556,7.96001017 C12.224556,7.96001017 12.197556,7.98701016 12.197556,7.98701016 C12.170556,8.04101016 12.143556,8.09501015 12.116556,8.12201015 C12.116556,8.12201015 12.116556,8.14901015 12.116556,8.14901015 C12.089556,8.20301015 12.062556,8.23001014 12.062556,8.28401014 C12.062556,8.31101014 12.035556,8.31101014 12.035556,8.33801013 C12.008556,8.39201013 11.981556,8.44601012 11.981556,8.47301012 C11.981556,8.50001012 11.981556,8.50001012 11.954556,8.52701012 C11.927556,8.55401011 11.927556,8.60801011 11.900556,8.63501011 C11.900556,8.66201011 11.873556,8.66201011 11.873556,8.6890101 C11.630556,9.20201006 11.468556,9.68801002 11.387556,9.82301001 C11.387556,9.82301001 11.387556,9.85001 11.387556,9.85001 C11.387556,9.85001 11.387556,9.82301001 11.387556,9.79601001 C11.360556,9.66101002 11.387556,9.31001005 11.441556,8.90501008 C11.441556,8.79701009 11.468556,8.6890101 11.468556,8.58101011 C11.468556,8.58101011 11.468556,8.58101011 11.468556,8.55401011 C11.468556,8.44601012 11.495556,8.31101014 11.495556,8.20301015 C11.522556,7.96001017 11.522556,7.71701019 11.522556,7.50101021 C11.522556,7.12301024 11.495556,6.82601026 11.387556,6.69101028 C11.387556,6.66401028 11.360556,6.66401028 11.3335561,6.66401028 C11.3065561,6.66401028 11.3065561,6.66401028 11.2795561,6.66401028 C11.2525561,6.66401028 11.2525561,6.66401028 11.2255561,6.69101028 C11.1985561,6.69101028 11.1715561,6.71801027 11.1445561,6.74501027 C10.9555561,6.88001026 10.6585561,7.23101023 10.3615561,7.63601019 C10.2805561,7.74401018 10.1995561,7.85201018 10.1455562,7.96001017 C10.0645562,8.06801016 9.98355617,8.17601015 9.92955617,8.28401014 C9.84855618,8.39201013 9.79455618,8.50001012 9.71355619,8.60801011 C9.6325562,8.7160101 9.5785562,8.82401009 9.49755621,8.93201008 C9.25455623,9.28301005 9.06555625,9.60701002 8.93055626,9.74201001 C8.90355626,9.76901001 8.90355626,9.76901001 8.87655626,9.79601001 C8.87655626,9.79601001 8.84955626,9.82301001 8.84955626,9.82301001 C8.84955626,9.82301001 8.82255627,9.82301001 8.82255627,9.82301001 C8.82255627,9.82301001 8.79555627,9.82301001 8.79555627,9.79601001 C8.79555627,9.79601001 8.79555627,9.76901001 8.79555627,9.76901001 C8.79555627,9.74201001 8.79555627,9.74201001 8.79555627,9.71501001 C8.84955626,9.52601003 8.98455625,9.14801006 9.11955624,8.79701009 C9.14655624,8.7430101 9.14655624,8.6890101 9.17355624,8.63501011 C9.17355624,8.63501011 9.17355624,8.60801011 9.20055623,8.60801011 C9.22755623,8.55401011 9.25455623,8.50001012 9.25455623,8.44601012 C9.25455623,8.44601012 9.25455623,8.44601012 9.25455623,8.41901013 C9.28155623,8.36501013 9.28155623,8.33801013 9.28155623,8.28401014 C9.28155623,8.28401014 9.28155623,8.25701014 9.28155623,8.25701014 C9.28155623,8.23001014 9.30855623,8.17601015 9.30855623,8.14901015 C9.30855623,8.09501015 9.33555622,8.01401016 9.33555622,7.96001017 C9.33555622,7.96001017 9.33555622,7.93301017 9.33555622,7.93301017 C9.33555622,7.87901017 9.36255622,7.85201018 9.36255622,7.79801018 C9.36255622,7.79801018 9.36255622,7.77101018 9.36255622,7.77101018 C9.36255622,7.71701019 9.38955622,7.69001019 9.38955622,7.63601019 C9.47055621,7.28501022 9.6055562,7.09601024 9.82155618,6.71801027 C9.84855618,6.66401028 9.87555618,6.61001028 9.90255617,6.55601029 C9.90255617,6.52901029 9.92955617,6.52901029 9.92955617,6.50201029 C9.95655617,6.4480103 9.98355617,6.3670103 10.0375562,6.31301031 C10.0645562,6.28601031 10.0645562,6.25901031 10.0645562,6.23201031 C10.0645562,6.23201031 10.0645562,6.23201031 10.0645562,6.20501032 C10.0645562,6.20501032 10.0645562,6.17801032 10.0645562,6.17801032 C10.0645562,6.17801032 10.0645562,6.17801032 10.0645562,6.15101032 C10.0645562,6.15101032 10.0645562,6.12401032 10.0645562,6.12401032 C10.0645562,6.12401032 10.0645562,6.12401032 10.0375562,6.12401032 C10.0375562,6.12401032 10.0375562,6.12401032 10.0105562,6.12401032 C10.0105562,6.12401032 9.98355617,6.12401032 9.98355617,6.12401032 C9.98355617,6.12401032 9.98355617,6.12401032 9.95655617,6.12401032 C9.95655617,6.12401032 9.92955617,6.12401032 9.92955617,6.12401032 C9.92955617,6.12401032 9.90255617,6.12401032 9.90255617,6.12401032 C9.87555618,6.12401032 9.84855618,6.15101032 9.84855618,6.15101032 C9.84855618,6.15101032 9.82155618,6.15101032 9.82155618,6.17801032 C9.79455618,6.17801032 9.79455618,6.20501032 9.76755619,6.20501032 C9.76755619,6.20501032 9.74055619,6.23201031 9.71355619,6.23201031 C9.68655619,6.23201031 9.68655619,6.25901031 9.6595562,6.25901031 C9.6325562,6.25901031 9.6325562,6.28601031 9.6055562,6.28601031 C9.5785562,6.28601031 9.5785562,6.31301031 9.5515562,6.31301031 C9.52455621,6.31301031 9.52455621,6.34001031 9.49755621,6.34001031 C9.47055621,6.34001031 9.47055621,6.3670103 9.44355621,6.3670103 C9.41655622,6.3670103 9.41655622,6.3940103 9.38955622,6.3940103 C9.36255622,6.3940103 9.36255622,6.4210103 9.33555622,6.4210103 C9.30855623,6.4480103 9.28155623,6.4480103 9.25455623,6.47501029 C9.25455623,6.47501029 9.22755623,6.50201029 9.22755623,6.50201029 C9.20055623,6.52901029 9.17355624,6.52901029 9.14655624,6.55601029 C8.87655626,6.74501027 8.57955629,6.96101025 8.30955631,7.15001024 C8.20155632,7.23101023 8.09355633,7.31201022 8.01255634,7.39301021 C7.71555636,7.6090102 7.49955638,7.77101018 7.49955638,7.77101018 C7.60755637,7.63601019 7.74255636,7.5280102 7.85055635,7.39301021 C7.95855634,7.28501022 8.03955633,7.20401023 8.12055633,7.09601024 C8.36355631,6.85301026 8.57955629,6.61001028 8.76855627,6.3940103 C9.17355624,5.96201034 9.52455621,5.58401037 9.79455618,5.2600104 C10.0915562,4.93601043 10.3345561,4.66601045 10.5235561,4.45001047 C10.5775561,4.39601047 10.6315561,4.34201048 10.6855561,4.28801048 C10.7125561,4.26101048 10.7125561,4.26101048 10.7395561,4.23401049 C10.7665561,4.20701049 10.7935561,4.15301049 10.8205561,4.1260105 C10.8475561,4.0990105 10.8475561,4.0990105 10.8745561,4.0720105 C10.9015561,4.0450105 10.9285561,4.01801051 10.9555561,3.99101051 C10.9555561,3.96401051 10.9825561,3.96401051 10.9825561,3.93701051 C11.0095561,3.91001051 11.0365561,3.85601052 11.0635561,3.82901052 C11.576556,3.18101058 11.603556,3.47801055 11.927556,3.34301056 C12.224556,3.23501057 12.386556,3.15401058 12.7105559,3.34301056 C13.0345559,3.53201055 13.4395559,3.23501057 13.9795558,2.99201059 C14.0065558,2.99201059 14.0335558,2.9650106 14.0605558,2.9650106 C14.0605558,2.9650106 14.0875558,2.9650106 14.0875558,2.9650106 C14.1145558,2.9650106 14.1145558,2.9650106 14.1415558,2.9650106 C14.1415558,2.9650106 14.1685558,2.9650106 14.1685558,2.9650106 C14.1955558,2.9650106 14.1955558,2.9650106 14.2225558,2.9650106 C14.2225558,2.9650106 14.2495558,2.9650106 14.2765558,2.99201059 C14.3035558,2.99201059 14.3035558,2.99201059 14.3305558,3.01901059 C14.3575558,3.01901059 14.3575558,3.04601059 14.3845558,3.04601059 C14.4115558,3.04601059 14.4115558,3.07301059 14.4385558,3.07301059 C14.4655558,3.07301059 14.4655558,3.10001058 14.4925558,3.10001058 C14.5195558,3.10001058 14.5195558,3.12701058 14.5465558,3.12701058 C14.5735558,3.15401058 14.5735558,3.15401058 14.6005558,3.18101058 C14.6275558,3.20801058 14.6275558,3.20801058 14.6545558,3.23501057 C14.6815558,3.26201057 14.6815558,3.28901057 14.7085558,3.28901057 C14.7355558,3.31601057 14.7355558,3.31601057 14.7625558,3.34301056 C14.7895558,3.37001056 14.8165558,3.39701056 14.8435557,3.42401056 C14.8705557,3.45101055 14.8705557,3.45101055 14.8975557,3.47801055 C14.9515557,3.53201055 15.0055557,3.61301054 15.0595557,3.66701054 C15.0865557,3.69401053 15.1135557,3.72101053 15.1405557,3.74801053 C15.1675557,3.77501053 15.1945557,3.82901052 15.2215557,3.85601052 C15.2485557,3.88301052 15.2755557,3.93701051 15.3025557,3.96401051 C15.3295557,3.99101051 15.3565557,4.0450105 15.3835557,4.0720105 C15.4105557,4.1260105 15.4375557,4.15301049 15.4915557,4.20701049 C15.5185557,4.23401049 15.5455557,4.28801048 15.5725557,4.31501048 C15.5995557,4.36901048 15.6535557,4.42301047 15.6805557,4.47701047 C15.7075557,4.53101046 15.7345557,4.55801046 15.7885557,4.61201045 C15.8425557,4.69301045 15.8965557,4.77401044 15.9505557,4.85501043 C16.1125556,5.07101041 16.2745556,5.31401039 16.4905556,5.58401037 C16.4365556,6.25901031 16.4365556,6.58301028 16.4365556,6.85301026 Z" fill="#48AC98" fill-rule="nonzero" mask="url(#mask-2)"></path>
                            </g>
                            <path d="M11.1176739,0.175499985 C13.662749,0.175499985 16.3475069,0.869143865 17.7333594,2.10245545 C19.2951585,3.49234726 19.6251196,5.43685812 19.3651108,8.83499945 C18.9499265,14.2611805 16.3979519,17.5048492 11.145622,17.9087621 C6.99954072,18.2276026 4.15115992,17.5630939 2.8009142,15.4387759 C2.65861093,15.2148926 2.5403774,14.9517568 2.44314932,14.6507544 L2.40766744,14.5361063 C2.38299763,14.5199355 2.35579786,14.4994502 2.33129383,14.4745572 L0.103794025,12.4945574 C-0.0345980085,12.3539686 -0.0345980085,12.1260293 0.103794025,11.9854405 C0.242186059,11.8448518 0.46656388,11.8448518 0.604955913,11.9854405 L2.58187478,13.7108819 L8.5750433,9.01544078 C8.71343533,8.87485205 8.93781315,8.87485205 9.07620518,9.01544078 C9.21459722,9.15602952 9.21459722,9.38396889 9.07620518,9.52455762 L2.963,14.3705 L3.10660654,14.3289227 C3.19211691,14.6173941 3.29551648,14.857928 3.41615225,15.0477221 C4.57576265,16.872117 7.18936214,17.4818527 11.0897257,17.1819083 C15.9418955,16.8087683 18.2481601,13.8774075 18.6382356,8.77938258 L18.6594715,8.48502137 C18.8621777,5.48583905 18.5413748,3.79740595 17.2487216,2.6470352 C16.0227773,1.5560307 13.5010187,0.904499922 11.1176739,0.904499922 C7.28763643,0.904499922 4.45041981,2.85995909 3.33031541,5.86600611 C3.20769031,6.19509757 3.10825204,6.53252681 3.03265746,6.87543754 L8.5750433,2.53544134 C8.71343533,2.39485261 8.93781315,2.39485261 9.07620518,2.53544134 C9.21459722,2.67603007 9.21459722,2.90396945 9.07620518,3.04455818 L2.83245572,7.99455775 C2.69406369,8.13514649 2.46968587,8.13514649 2.33129383,7.99455775 L0.103794025,6.01455792 C-0.0345980085,5.87396919 -0.0345980085,5.64602982 0.103794025,5.50544108 C0.242186059,5.36485235 0.46656388,5.36485235 0.604955913,5.50544108 L2.273,6.96149998 L2.31048083,6.76573995 C2.394562,6.37346395 2.50706687,5.98753708 2.64719781,5.61146484 C3.87396903,2.31915391 6.98424136,0.175499985 11.1176739,0.175499985 Z M9.07620518,6.85544097 C9.21459722,6.9960297 9.21459722,7.22396907 9.07620518,7.36455781 L2.83245572,12.3145574 C2.69406369,12.4551461 2.46968587,12.4551461 2.33129383,12.3145574 L0.103794025,10.3345576 C-0.0345980085,10.1939688 -0.0345980085,9.96602945 0.103794025,9.82544071 C0.242186059,9.68485198 0.46656388,9.68485198 0.604955913,9.82544071 L2.58187478,11.5508821 L8.5750433,6.85544097 C8.71343533,6.71485224 8.93781315,6.71485224 9.07620518,6.85544097 Z M9.07620518,4.69544115 C9.21459722,4.83602989 9.21459722,5.06396926 9.07620518,5.20455799 L2.83245572,10.1545576 C2.69406369,10.2951463 2.46968587,10.2951463 2.33129383,10.1545576 L0.103794025,8.17455774 C-0.0345980085,8.033969 -0.0345980085,7.80602963 0.103794025,7.6654409 C0.242186059,7.52485217 0.46656388,7.52485217 0.604955913,7.6654409 L2.58187478,9.39088231 L8.5750433,4.69544115 C8.71343533,4.55485242 8.93781315,4.55485242 9.07620518,4.69544115 Z" id="Combined-Shape" fill="#48AC98" fill-rule="nonzero"></path>
                        </g>
                    </g>
                </g>
            </g>
        </g>
    </g>
</svg>