<?xml version="1.0" encoding="UTF-8"?>
<svg width="23px" height="18px" viewBox="0 0 23 18" version="1.1" xmlns="http://www.w3.org/2000/svg" xmlns:xlink="http://www.w3.org/1999/xlink">
    <title>Shape</title>
    <g id="Website" stroke="none" stroke-width="1" fill="none" fill-rule="evenodd">
        <g id="Menu-/-Pricing" transform="translate(-78.000000, -151.000000)" fill="#E16259" fill-rule="nonzero">
            <g id="Group-3" transform="translate(49.000000, 21.000000)">
                <g id="Group" transform="translate(8.000000, 105.000000)">
                    <g id="Group-120" transform="translate(16.000000, 16.000000)">
                        <g id="Group-116" transform="translate(0.000000, 2.000000)">
                            <path d="M26.0745366,8.69969034 C25.5856942,8.25386993 24.9882203,7.91950461 24.2549567,7.64086685 C22.7341139,7.08359133 21.1589552,7 19.9368494,7 C19.5566387,7 19.176428,7 18.7962172,7.02786378 C17.0037953,7.08359133 15.4286367,7.61300308 14.152215,8.61609902 L14.0707413,8.67182657 L14.0707413,8.67182657 C13.6362147,9.00619188 13.2288461,9.42414852 12.8757933,9.84210517 L12.8757933,9.84210517 L12.8486354,9.89783272 C12.7943196,9.98142405 12.7128459,10.0650154 12.65853,10.1486067 L12.4955826,10.3715169 L12.4955826,10.3715169 C12.3326351,10.5944271 12.1968456,10.8173373 12.0610561,11.0402475 C11.8437928,11.4024766 11.6536874,11.7925695 11.49074,12.2105261 C11.2734767,12.2383899 11.0018977,12.2662537 10.7031607,12.2662537 C9.4538969,12.2662537 8.88358084,11.9040246 8.20463314,11.4582042 C7.52568544,11.0123838 6.73810611,10.5108358 5.27157908,10.5108358 C5.10863163,10.5108358 5,10.6222909 5,10.7894736 L5,11.0959751 C5,11.2631577 5.10863163,11.3746129 5.27157908,11.3746129 C6.52084285,11.3746129 7.09115891,11.7368419 7.77010661,12.1826624 C8.44905431,12.6284828 9.23663364,13.1300308 10.7031607,13.1300308 C12.1696877,13.1300308 12.957267,12.6284828 13.6362147,12.1826624 C14.3151624,11.7647057 14.8854785,11.3746129 16.1347423,11.3746129 C17.384006,11.3746129 17.9543221,11.7368419 18.6332698,12.1826624 C19.0406384,12.4334363 19.448007,12.7120741 20.045481,12.8792568 C19.8010598,13.1578945 19.5023228,13.4922598 19.2035859,13.8266252 C19.176428,13.7987614 19.1221121,13.7708976 19.0949542,13.7708976 C18.4160065,13.3250772 17.6284272,12.8235292 16.1619002,12.8235292 C14.6953731,12.8235292 13.9077938,13.3250772 13.2288461,13.7708976 C12.5498984,14.1888542 11.9795823,14.5789471 10.7303186,14.5789471 C9.48105481,14.5789471 8.91073875,14.216718 8.23179105,13.7708976 C7.55284335,13.3250772 6.76526402,12.8235292 5.29873699,12.8235292 C5.13578954,12.8235292 5.02715791,12.9349843 5.02715791,13.102167 L5.02715791,13.4086685 C5.02715791,13.5758512 5.13578954,13.6873063 5.29873699,13.6873063 C6.54800075,13.6873063 7.11831682,14.0495354 7.79726452,14.4953558 C8.47621222,14.9411762 9.26379155,15.4427242 10.7303186,15.4427242 C12.2240035,15.4427242 12.9844249,14.9411762 13.6633726,14.4953558 C14.3423203,14.0773991 14.9126364,13.6873063 16.1619002,13.6873063 C17.384006,13.6873063 17.9543221,14.0495354 18.6332698,14.467492 C18.3616907,14.7461298 18.0901116,15.0526313 17.7913746,15.3869966 C17.3568481,15.2476777 16.8408479,15.1362226 16.1619002,15.1362226 C14.6953731,15.1362226 13.9077938,15.6377706 13.2288461,16.083591 C12.5498984,16.5015477 11.9795823,16.8916405 10.7303186,16.8916405 C9.48105481,16.8916405 8.91073875,16.5294114 8.23179105,16.083591 C7.55284335,15.6377706 6.76526402,15.1362226 5.29873699,15.1362226 C5.13578954,15.1362226 5.02715791,15.2476777 5.02715791,15.4148604 L5.02715791,15.7213619 C5.02715791,15.8885446 5.13578954,16 5.29873699,16 C6.54800075,16 7.11831682,16.3622288 7.79726452,16.8080492 C8.47621222,17.2538696 9.26379155,17.7554176 10.7303186,17.7554176 C12.2240035,17.7554176 12.9844249,17.2538696 13.6633726,16.8080492 C14.3423203,16.3900926 14.9126364,16 16.1619002,16 C16.5421109,16 16.8408479,16.0278635 17.1124269,16.083591 C16.7050583,16.5015477 16.2976897,16.9752319 15.8360053,17.4489161 C14.5595836,17.5046436 13.8263201,17.9783278 13.2016882,18.3684207 C12.5227405,18.7863773 11.9524244,19.1764702 10.7031607,19.1764702 C9.4538969,19.1764702 8.88358084,18.8142411 8.20463314,18.3684207 C7.52568544,17.9226002 6.73810611,17.4210523 5.27157908,17.4210523 C5.10863163,17.4210523 5,17.5325074 5,17.69969 L5,18.0897829 C5,18.2569656 5.10863163,18.3684207 5.27157908,18.3684207 C6.52084285,18.3684207 7.09115891,18.7306498 7.77010661,19.1764702 C8.44905431,19.6222906 9.23663364,20.1238386 10.7031607,20.1238386 C12.1696877,20.1238386 12.957267,19.6222906 13.6362147,19.1764702 C14.0164254,18.9256962 14.3694782,18.702786 14.8311627,18.5634671 C14.0707413,19.3436528 13.1745303,20.1238386 12.2783193,20.8761605 C12.0067403,21.0990707 11.7351612,21.3219809 11.4635821,21.5170274 C11.2463188,21.5448911 11.0018977,21.5727549 10.7031607,21.5727549 C9.4538969,21.5727549 8.88358084,21.2105258 8.20463314,20.7647054 C7.52568544,20.318885 6.73810611,19.817337 5.27157908,19.817337 C5.10863163,19.817337 5,19.9287921 5,20.0959748 L5,20.4024763 C5,20.569659 5.10863163,20.6811141 5.27157908,20.6811141 C6.52084285,20.6811141 7.09115891,21.0433432 7.77010661,21.4891636 C8.44905431,21.934984 9.23663364,22.436532 10.7031607,22.436532 C10.9204239,22.436532 11.1105293,22.436532 11.3006346,22.4086682 C12.5770563,24.6099065 15.2113734,24.8328167 17.3568481,24.9721356 C17.7099009,25 18.0629537,25 18.3888486,25 C20.2355864,25 21.8650608,24.6099065 23.2501141,23.8854483 C26.536221,22.1021667 27.8398006,17.8668727 27.9755901,14.467492 C28.0842218,12.9907119 27.8941164,10.2879256 26.0745366,8.69969034 Z M19.1221121,11.4303404 C18.4431644,10.98452 17.6555851,10.482972 16.1890581,10.482972 C14.6953731,10.482972 13.9349517,10.98452 13.256004,11.4303404 C12.9844249,11.5975231 12.7128459,11.7647057 12.4141089,11.9040246 C12.4684247,11.7925695 12.5498984,11.6532506 12.6042142,11.5417955 C12.8214775,11.1795664 13.0387408,10.8173373 13.2831619,10.5108358 L13.3374777,10.4272445 C13.6362147,10.0371516 13.9892675,9.67492251 14.3694782,9.36842097 L14.3694782,9.36842097 L14.5324257,9.22910209 L14.5867415,9.17337454 C15.7545316,8.2817337 17.1939007,7.78018573 18.8505331,7.75232196 C19.2035859,7.75232196 19.5837966,7.72445818 19.9640073,7.72445818 C21.0231657,7.72445818 22.6254823,7.78018573 24.0376935,8.30959748 C24.6894833,8.56037146 25.2326414,8.866873 25.64001,9.22910209 C26.2103261,9.73065006 26.5905368,10.3715169 26.8621159,11.0402475 C26.237484,10.2043343 25.8572733,9.89783272 25.3141152,9.89783272 C25.1511677,9.89783272 25.0153782,9.92569649 24.8524307,10.0092878 C24.7166412,10.0650154 24.5808516,10.1486067 24.4450621,10.2043343 C24.3635884,10.2600618 24.2549567,10.3157894 24.173483,10.3436531 C23.9562198,10.232198 23.7389565,10.1764705 23.5216932,10.1764705 C23.2501141,10.1764705 23.0328509,10.2600618 22.8427455,10.3436531 L22.8427455,10.3436531 C22.2995874,10.3436531 21.9465346,10.6501547 21.5934818,11.1238389 C21.4033764,11.3746129 21.0774815,11.7368419 20.6972708,12.2105261 C20.045481,12.0154797 19.6109545,11.7368419 19.1221121,11.4303404 Z M27.5953794,14.467492 C27.5953794,14.5510833 27.5953794,14.6346747 27.5682215,14.718266 C27.4867478,14.6346747 27.4052741,14.5510833 27.3238003,14.467492 L27.3238003,14.467492 C27.1608529,14.3003093 26.9979054,14.1609905 26.8621159,14.0495354 C26.8621159,14.0495354 26.8621159,14.0495354 26.834958,14.0495354 C26.7806422,14.0216716 26.7534843,13.9938078 26.6991685,13.965944 C26.6991685,13.965944 26.6991685,13.965944 26.6720105,13.965944 C26.6720105,13.9102165 26.6448526,13.9102165 26.5905368,13.8823527 C26.5905368,13.8823527 26.5905368,13.8823527 26.5905368,13.8823527 C26.5633789,13.8544889 26.5090631,13.8544889 26.4819052,13.8544889 C26.4819052,13.8544889 26.4819052,13.8544889 26.4547473,13.8544889 C26.4275894,13.8544889 26.4004315,13.8544889 26.3732736,13.8544889 C26.3732736,13.8544889 26.3732736,13.8544889 26.3732736,13.8544889 C26.3461157,13.8544889 26.3189577,13.8823527 26.3189577,13.9102165 C26.2917998,13.9380803 26.2917998,13.965944 26.2917998,13.9938078 C26.2917998,13.9938078 26.2917998,14.0216716 26.2917998,14.0216716 C26.2917998,14.0495354 26.2917998,14.0773991 26.2646419,14.1052629 C26.2646419,14.1052629 26.2646419,14.1331267 26.2646419,14.1331267 C26.2646419,14.1609905 26.2646419,14.1888542 26.2646419,14.216718 C26.2646419,14.216718 26.2646419,14.2445818 26.2646419,14.2445818 C26.2646419,14.2724456 26.2646419,14.3281731 26.2646419,14.3560369 C26.2646419,14.3560369 26.2646419,14.3839007 26.2646419,14.3839007 C26.2646419,14.4396282 26.2646419,14.467492 26.2917998,14.5232196 C26.2917998,14.5232196 26.2917998,14.5510833 26.2917998,14.5510833 C26.2917998,14.6068109 26.3189577,14.6625384 26.3189577,14.718266 C26.3189577,14.718266 26.3189577,14.718266 26.3189577,14.718266 C26.3189577,14.7739935 26.3461157,14.8575849 26.3461157,14.9133124 C26.3461157,14.9133124 26.3461157,14.9133124 26.3461157,14.9133124 C26.3732736,14.9969038 26.3732736,15.0526313 26.4004315,15.1362226 L26.4004315,15.1362226 C26.4547473,15.4148604 26.536221,15.6934982 26.6176947,15.9999997 C26.6991685,16.3065012 26.8078001,16.6130028 26.8892738,16.8637768 C26.9164317,16.9195043 26.9164317,16.9473681 26.9164317,17.0030956 C26.9164317,17.0309594 26.9164317,17.0309594 26.9164317,17.0588232 C26.9164317,17.086687 26.9164317,17.086687 26.9164317,17.1145507 C26.9164317,17.1424145 26.9164317,17.1981421 26.9164317,17.1981421 C26.9164317,17.1981421 26.9164317,17.1981421 26.9164317,17.1981421 L26.9164317,17.1981421 C26.9164317,17.2260058 26.9164317,17.2260058 26.9164317,17.2260058 L26.9164317,17.2260058 C26.9164317,17.2260058 26.9164317,17.2260058 26.9164317,17.2260058 C26.9164317,17.2538696 26.8892738,17.2538696 26.8621159,17.2538696 C26.8621159,17.2538696 26.8621159,17.2538696 26.8621159,17.2538696 C26.834958,17.2538696 26.8078001,17.2538696 26.7806422,17.2260058 C26.7806422,17.2260058 26.7806422,17.2260058 26.7806422,17.2260058 C26.6720105,17.1702783 26.4819052,16.9752319 26.237484,16.6687303 C26.237484,16.6687303 26.237484,16.6687303 26.237484,16.6408665 C26.1831682,16.5572752 26.1288524,16.5015477 26.0473787,16.4179563 C26.0473787,16.4179563 26.0473787,16.3900926 26.0202208,16.3900926 C25.7486417,16.0557272 25.4499047,15.6099068 25.1240098,15.0526313 C25.0968519,14.9969038 25.069694,14.9411762 25.0153782,14.9133124 C25.0153782,14.9133124 24.9882203,14.8854486 24.9882203,14.8854486 C24.9610623,14.8575849 24.9339044,14.8018573 24.8795886,14.7739935 C24.8795886,14.7739935 24.8795886,14.7739935 24.8795886,14.7739935 C24.8524307,14.7461298 24.8252728,14.718266 24.7981149,14.6904022 C24.7981149,14.6904022 24.770957,14.6904022 24.770957,14.6625384 C24.7437991,14.6346747 24.7166412,14.6346747 24.6623254,14.6068109 C24.6623254,14.6068109 24.6623254,14.6068109 24.6351675,14.6068109 C24.6080095,14.6068109 24.5808516,14.5789471 24.5536937,14.5789471 C24.5536937,14.5789471 24.5265358,14.5789471 24.5265358,14.5789471 C24.4993779,14.5789471 24.47222,14.5789471 24.4179042,14.5789471 C24.4179042,14.5789471 24.4179042,14.5789471 24.3907463,14.5789471 C24.3635884,14.5789471 24.3364305,14.5789471 24.3092726,14.6068109 C24.3092726,14.6068109 24.3092726,14.6068109 24.2821146,14.6068109 C24.2549567,14.6068109 24.2277988,14.6346747 24.173483,14.6625384 C24.173483,14.6625384 24.173483,14.6625384 24.1463251,14.6625384 C24.1191672,14.6904022 24.0920093,14.6904022 24.0648514,14.718266 C24.0648514,14.718266 24.0648514,14.718266 24.0376935,14.718266 C24.0105356,14.7461298 23.9833777,14.7739935 23.9290618,14.8018573 C23.9290618,14.8018573 23.9290618,14.8018573 23.9019039,14.8297211 C23.874746,14.8575849 23.8475881,14.8854486 23.8204302,14.9133124 C23.8204302,14.9133124 23.8204302,14.9133124 23.8204302,14.9133124 C23.7932723,14.9411762 23.7661144,14.9969038 23.7389565,15.0247675 C23.7389565,15.0247675 23.7389565,15.0526313 23.7117986,15.0526313 C23.6846407,15.0804951 23.6574828,15.1362226 23.6303249,15.1640864 C23.6303249,15.1640864 23.6303249,15.1640864 23.6303249,15.1640864 C23.6031669,15.219814 23.576009,15.2476777 23.5488511,15.3034053 C23.5488511,15.3034053 23.5216932,15.3312691 23.5216932,15.3312691 C23.4945353,15.3869966 23.4673774,15.4148604 23.4402195,15.4705879 C23.4402195,15.4705879 23.4402195,15.4705879 23.4402195,15.4705879 C23.4130616,15.5263155 23.3859037,15.5541793 23.3587458,15.6099068 C23.3587458,15.6099068 23.3315879,15.6377706 23.3315879,15.6377706 C23.30443,15.6934982 23.2772721,15.7492257 23.2501141,15.7770895 C23.2501141,15.7770895 23.2501141,15.8049533 23.2501141,15.8049533 C23.2229562,15.8606808 23.1957983,15.8885446 23.1957983,15.9442721 C23.1957983,15.9721359 23.1686404,15.9721359 23.1686404,15.9999997 C23.1414825,16.0557272 23.1143246,16.1114548 23.1143246,16.1393186 C23.1143246,16.1671824 23.1143246,16.1671824 23.0871667,16.1950461 C23.0600088,16.2229099 23.0600088,16.2786375 23.0328509,16.3065012 C23.0328509,16.334365 23.005693,16.334365 23.005693,16.3622288 C22.7612718,16.8916405 22.5983244,17.3931885 22.5168506,17.5325074 C22.5168506,17.5325074 22.5168506,17.5603712 22.5168506,17.5603712 C22.5168506,17.5603712 22.5168506,17.5603712 22.5168506,17.5603712 C22.5168506,17.5603712 22.5168506,17.5603712 22.5168506,17.5603712 C22.5168506,17.5603712 22.5168506,17.5603712 22.5168506,17.5603712 C22.5168506,17.5603712 22.5168506,17.5603712 22.5168506,17.5603712 C22.5168506,17.5603712 22.5168506,17.5325074 22.5168506,17.5046436 L22.5168506,17.5046436 C22.4896927,17.3653247 22.5168506,17.0030956 22.5711664,16.585139 C22.5711664,16.4736839 22.5983244,16.3622288 22.5983244,16.2507737 C22.5983244,16.2507737 22.5983244,16.2507737 22.5983244,16.2229099 C22.5983244,16.1114548 22.6254823,15.9721359 22.6254823,15.8606808 C22.6254823,15.8606808 22.6254823,15.8606808 22.6254823,15.8606808 C22.6526402,15.6099068 22.6526402,15.3591328 22.6526402,15.1362226 L22.6526402,15.1362226 C22.6526402,14.7461298 22.6254823,14.4396282 22.5168506,14.3003093 C22.5168506,14.3003093 22.5168506,14.3003093 22.5168506,14.3003093 C22.5168506,14.2724456 22.4896927,14.2724456 22.4625348,14.2724456 C22.4625348,14.2724456 22.4625348,14.2724456 22.4625348,14.2724456 C22.4353769,14.2724456 22.4353769,14.2724456 22.408219,14.2724456 C22.408219,14.2724456 22.408219,14.2724456 22.408219,14.2724456 C22.3810611,14.2724456 22.3810611,14.2724456 22.3539032,14.3003093 C22.3539032,14.3003093 22.3539032,14.3003093 22.3539032,14.3003093 C22.3267453,14.3003093 22.2995874,14.3281731 22.2724295,14.3560369 C22.0823241,14.4953558 21.7835871,14.8575849 21.4848501,15.2755415 C21.4033764,15.3869966 21.3219027,15.4984517 21.2675869,15.6099068 C21.2675869,15.6099068 21.2675869,15.6099068 21.2675869,15.6099068 C21.1861131,15.7213619 21.1046394,15.832817 21.0503236,15.9442721 C21.0503236,15.9442721 21.0503236,15.9442721 21.0503236,15.9442721 C20.9688499,16.0557272 20.9145341,16.1671824 20.8330603,16.2786375 C20.8330603,16.2786375 20.8330603,16.2786375 20.8330603,16.2786375 C20.7515866,16.3900926 20.6972708,16.5015477 20.6157971,16.6130028 L20.6157971,16.6130028 C20.3713759,16.9752319 20.1812705,17.3095972 20.045481,17.4489161 C20.045481,17.4489161 20.045481,17.4489161 20.045481,17.4489161 C20.0183231,17.4767798 20.0183231,17.4767798 19.9911652,17.5046436 C19.9911652,17.5046436 19.9911652,17.5046436 19.9911652,17.5046436 C19.9911652,17.5046436 19.9640073,17.5325074 19.9640073,17.5325074 C19.9640073,17.5325074 19.9640073,17.5325074 19.9640073,17.5325074 C19.9640073,17.5325074 19.9368494,17.5325074 19.9368494,17.5325074 C19.9368494,17.5325074 19.9096915,17.5325074 19.9096915,17.5046436 C19.9096915,17.5046436 19.9096915,17.5046436 19.9096915,17.5046436 C19.9096915,17.5046436 19.9096915,17.4767798 19.9096915,17.4767798 C19.9096915,17.4767798 19.9096915,17.4767798 19.9096915,17.4767798 C19.9096915,17.4489161 19.9096915,17.4489161 19.9096915,17.4210523 C19.9096915,17.4210523 19.9096915,17.4210523 19.9096915,17.4210523 C19.9640073,17.2260058 20.0997968,16.835913 20.2355864,16.4736839 C20.2627443,16.4179563 20.2627443,16.3622288 20.2899022,16.3065012 C20.2899022,16.3065012 20.2899022,16.2786375 20.3170601,16.2786375 C20.344218,16.2229099 20.3713759,16.1671824 20.3713759,16.1114548 C20.3713759,16.1114548 20.3713759,16.1114548 20.3713759,16.083591 C20.3985338,16.0278635 20.3985338,15.9999997 20.3985338,15.9442721 C20.3985338,15.9442721 20.3985338,15.9164084 20.3985338,15.9164084 C20.3985338,15.8885446 20.4256917,15.832817 20.4256917,15.8049533 C20.4256917,15.7492257 20.4528496,15.6656344 20.4528496,15.6099068 C20.4528496,15.6099068 20.4528496,15.5820431 20.4528496,15.5820431 C20.4528496,15.5263155 20.4800075,15.4984517 20.4800075,15.4427242 C20.4800075,15.4427242 20.4800075,15.4148604 20.4800075,15.4148604 C20.4800075,15.3591328 20.5071654,15.3312691 20.5071654,15.2755415 C20.5071654,15.2755415 20.5071654,15.2755415 20.5071654,15.2755415 C20.5886392,14.9133124 20.7244287,14.718266 20.941692,14.3281731 L20.941692,14.3281731 C20.9688499,14.2724456 20.9960078,14.216718 21.0231657,14.1609905 C21.0231657,14.1331267 21.0503236,14.1331267 21.0503236,14.1052629 C21.0774815,14.0495354 21.1046394,13.965944 21.1589552,13.9102165 C21.1861131,13.8823527 21.1861131,13.8544889 21.1861131,13.8266252 C21.1861131,13.8266252 21.1861131,13.8266252 21.1861131,13.7987614 C21.1861131,13.7987614 21.1861131,13.7708976 21.1861131,13.7708976 C21.1861131,13.7708976 21.1861131,13.7708976 21.1861131,13.7430338 C21.1861131,13.7430338 21.1861131,13.71517 21.1861131,13.71517 C21.1861131,13.71517 21.1861131,13.71517 21.1861131,13.71517 C21.1861131,13.71517 21.1861131,13.71517 21.1861131,13.71517 C21.1861131,13.71517 21.1861131,13.71517 21.1861131,13.71517 C21.1861131,13.71517 21.1861131,13.71517 21.1589552,13.71517 C21.1589552,13.71517 21.1589552,13.71517 21.1317973,13.71517 C21.1317973,13.71517 21.1046394,13.71517 21.1046394,13.71517 C21.1046394,13.71517 21.1046394,13.71517 21.0774815,13.71517 C21.0774815,13.71517 21.0503236,13.71517 21.0503236,13.71517 C21.0503236,13.71517 21.0231657,13.71517 21.0231657,13.71517 C20.9960078,13.71517 20.9688499,13.7430338 20.9688499,13.7430338 C20.9688499,13.7430338 20.941692,13.7430338 20.941692,13.7708976 C20.9145341,13.7708976 20.9145341,13.7987614 20.8873762,13.7987614 C20.8873762,13.7987614 20.8602182,13.8266252 20.8330603,13.8266252 C20.8059024,13.8266252 20.8059024,13.8544889 20.7787445,13.8544889 C20.7515866,13.8544889 20.7515866,13.8823527 20.7244287,13.8823527 C20.6972708,13.8823527 20.6972708,13.9102165 20.6701129,13.9102165 C20.642955,13.9102165 20.642955,13.9380803 20.6157971,13.9380803 C20.5886392,13.9380803 20.5886392,13.965944 20.5614813,13.965944 C20.5343234,13.965944 20.5343234,13.9938078 20.5071654,13.9938078 C20.4800075,13.9938078 20.4800075,14.0216716 20.4528496,14.0216716 C20.4256917,14.0495354 20.3985338,14.0495354 20.3713759,14.0773991 C20.3713759,14.0773991 20.344218,14.1052629 20.344218,14.1052629 C20.3170601,14.1331267 20.2899022,14.1331267 20.2627443,14.1609905 C19.9911652,14.3560369 19.6924282,14.5789471 19.4208491,14.7739935 C19.3122175,14.8575849 19.2035859,14.9411762 19.1221121,15.0247675 C19.1221121,15.0247675 19.1221121,15.0247675 19.1221121,15.0247675 C18.8233751,15.2476777 18.6061119,15.4148604 18.6061119,15.4148604 C18.7147435,15.2755415 18.8505331,15.1640864 18.9591647,15.0247675 C19.0677963,14.9133124 19.14927,14.8297211 19.2307438,14.718266 C19.4751649,14.467492 19.6924282,14.216718 19.8825336,13.9938078 L19.8825336,13.9938078 C20.2899022,13.5479874 20.642955,13.1578945 20.9145341,12.8235292 L20.9145341,12.8235292 C21.213271,12.4891639 21.4576922,12.2105261 21.6477976,11.9876159 L21.6477976,11.9876159 C21.7021134,11.9318884 21.7564292,11.8761608 21.810745,11.8204333 C21.8379029,11.7925695 21.8379029,11.7925695 21.8650608,11.7647057 C21.8922187,11.7368419 21.9193767,11.6811144 21.9465346,11.6532506 C21.9736925,11.6253868 21.9736925,11.6253868 22.0008504,11.5975231 C22.0280083,11.5696593 22.0551662,11.5417955 22.0823241,11.5139317 C22.0823241,11.486068 22.109482,11.486068 22.109482,11.4582042 C22.1366399,11.4303404 22.1637978,11.3746129 22.1909557,11.3467491 C22.706956,10.6780185 22.7341139,10.98452 23.0600088,10.8452011 C23.3587458,10.733746 23.5216932,10.6501547 23.8475881,10.8452011 C24.173483,11.0402475 24.5808516,10.733746 25.1240098,10.482972 C25.1511677,10.482972 25.1783256,10.4551082 25.2054835,10.4551082 C25.2054835,10.4551082 25.2326414,10.4551082 25.2326414,10.4551082 C25.2597993,10.4551082 25.2597993,10.4551082 25.2869572,10.4551082 C25.2869572,10.4551082 25.3141152,10.4551082 25.3141152,10.4551082 C25.3412731,10.4551082 25.3412731,10.4551082 25.368431,10.4551082 C25.368431,10.4551082 25.3955889,10.4551082 25.4227468,10.482972 C25.4499047,10.482972 25.4499047,10.482972 25.4770626,10.5108358 C25.5042205,10.5108358 25.5042205,10.5386996 25.5313784,10.5386996 C25.5585363,10.5386996 25.5585363,10.5665633 25.5856942,10.5665633 C25.6128521,10.5665633 25.6128521,10.5944271 25.64001,10.5944271 C25.667168,10.5944271 25.667168,10.6222909 25.6943259,10.6222909 C25.7214838,10.6501547 25.7214838,10.6501547 25.7486417,10.6780185 C25.7757996,10.7058822 25.7757996,10.7058822 25.8029575,10.733746 C25.8301154,10.7616098 25.8301154,10.7894736 25.8572733,10.7894736 C25.8844312,10.8173373 25.8844312,10.8173373 25.9115891,10.8452011 C25.938747,10.8730649 25.9659049,10.9009287 25.9930628,10.9287924 C26.0202208,10.9566562 26.0202208,10.9566562 26.0473787,10.98452 C26.1016945,11.0402475 26.1560103,11.1238389 26.2103261,11.1795664 C26.237484,11.2074302 26.2646419,11.235294 26.2917998,11.2631577 C26.3189577,11.2910215 26.3461157,11.3467491 26.3732736,11.3746129 C26.4004315,11.4024766 26.4275894,11.4582042 26.4547473,11.486068 C26.4819052,11.5139317 26.5090631,11.5696593 26.536221,11.5975231 C26.5633789,11.6532506 26.5905368,11.6811144 26.6448526,11.7368419 C26.6720105,11.7647057 26.6991685,11.8204333 26.7263264,11.848297 C26.7534843,11.9040246 26.8078001,11.9597522 26.834958,12.0154797 C26.8621159,12.0712073 26.8892738,12.099071 26.9435896,12.1547986 C26.9979054,12.2383899 27.0522213,12.3219812 27.1065371,12.4055726 C27.2694845,12.6284828 27.432432,12.8792568 27.6496952,13.1578945 C27.5953794,13.8544889 27.5953794,14.1888542 27.5953794,14.467492 Z" id="Shape"></path>
                        </g>
                    </g>
                </g>
            </g>
        </g>
    </g>
</svg>