<?xml version="1.0" encoding="UTF-8"?>
<svg width="78px" height="78px" viewBox="0 0 78 78" version="1.1" xmlns="http://www.w3.org/2000/svg" xmlns:xlink="http://www.w3.org/1999/xlink">
    <title>browser@1.5x</title>
    <g id="Home" stroke="none" stroke-width="1" fill="none" fill-rule="evenodd">
        <g id="Mailmate-home" transform="translate(-260.000000, -1043.000000)" fill="#CA2228" fill-rule="nonzero">
            <g id="Why-to-choose-us?" transform="translate(-11.000000, 635.000000)">
                <g id="Group-6" transform="translate(191.000000, 376.000000)">
                    <g id="browser" transform="translate(80.000000, 32.000000)">
                        <path d="M76.7000042,33.8000019 C77.4800043,33.8000019 78.0000043,34.3200019 78.0000043,35.1000019 L78.0000043,35.1000019 L78.0000043,76.7000042 C78.0000043,77.4800043 77.4800043,78.0000043 76.7000042,78.0000043 L76.7000042,78.0000043 L13.0000007,78.0000043 L13.0000007,75.4000041 L75.4000041,75.4000041 L75.4000041,37.5700021 L46.1500025,57.0700031 C46.0200025,57.0700031 45.7600025,57.2000031 45.5000025,57.2000031 C45.2400025,57.2000031 44.9800025,57.0700031 44.7200025,56.9400031 L44.7200025,56.9400031 L15.6000009,37.5700021 L15.6000009,53.3000019 C15.6000009,54.080003 15.0800008,54.600003 14.3000004,54.600003 L14.3000004,54.600003 L7.80000043,54.600003 L7.80000043,52.0000029 L13.0000007,52.0000029 L13.0000007,35.1000019 C13.0000007,34.3200019 13.5200007,33.8000019 14.3000004,33.8000019 L14.3000004,33.8000019 Z M10.4000006,75.4000041 L10.4000006,78.0000043 L5.20000029,78.0000043 L5.20000029,75.4000041 L10.4000006,75.4000041 Z M2.60000014,75.4000041 L2.60000014,78.0000043 L0,78.0000043 L0,75.4000041 L2.60000014,75.4000041 Z M15.6000009,68.9000038 L15.6000009,71.5000039 L10.4000006,71.5000039 L10.4000006,68.9000038 L15.6000009,68.9000038 Z M7.80000043,68.9000038 L7.80000043,71.5000039 L0,71.5000039 L0,68.9000038 L7.80000043,68.9000038 Z M36.010002,60.1900033 L39.9100022,64.0900035 C40.4300022,64.6100036 40.4300022,65.3900036 39.9100022,65.9100036 L39.9100022,65.9100036 L36.010002,69.8100038 L34.1900019,67.9900037 L35.880002,66.3000036 L0,66.3000036 L0,63.7000035 L35.880002,63.7000035 L34.1900019,62.0100034 L36.010002,60.1900033 Z M7.80000043,58.5000032 L7.80000043,61.1000034 L0,61.1000034 L0,58.5000032 L7.80000043,58.5000032 Z M15.6000009,58.5000032 L15.6000009,61.1000034 L10.4000006,61.1000034 L10.4000006,58.5000032 L15.6000009,58.5000032 Z M5.20000029,52.0000029 L5.20000029,54.600003 L0,54.600003 L0,52.0000029 L5.20000029,52.0000029 Z M72.410004,36.400002 L18.590001,36.400002 L45.5000025,54.340003 L72.410004,36.400002 Z M9.1000005,45.5000025 L9.1000005,48.1000026 L6.50000036,48.1000026 L6.50000036,45.5000025 L9.1000005,45.5000025 Z M76.7000042,0 C77.4800043,0 78,0.520000029 78,1.30000007 L78,1.30000007 L78,27.3000015 L75.4000041,27.3000015 L75.4000041,13 L2.60000014,13 L2.60000014,48.1000026 L0,48.1000026 L0,1.30000007 C0,0.520000029 0.520000029,0 1.30000007,0 L1.30000007,0 Z M9.1000005,40.3000022 L9.1000005,42.9000024 L6.50000036,42.9000024 L6.50000036,40.3000022 L9.1000005,40.3000022 Z M9.1000005,35.1000019 L9.1000005,37.7000021 L6.50000036,37.7000021 L6.50000036,35.1000019 L9.1000005,35.1000019 Z M40.3000022,27.3000015 L40.3000022,29.9000016 L37.7000021,29.9000016 L37.7000021,27.3000015 L40.3000022,27.3000015 Z M35.1000019,27.3000015 L35.1000019,29.9000016 L32.5000018,29.9000016 L32.5000018,27.3000015 L35.1000019,27.3000015 Z M61.1000034,27.3000015 L61.1000034,29.9000016 L58.5000032,29.9000016 L58.5000032,27.3000015 L61.1000034,27.3000015 Z M71.5000039,27.3000015 L71.5000039,29.9000016 L68.9000038,29.9000016 L68.9000038,27.3000015 L71.5000039,27.3000015 Z M50.7000024,27.3000015 L50.7000024,29.9000016 L44.2000024,29.9000016 L44.2000024,27.3000015 L50.7000024,27.3000015 Z M66.3000036,27.3000015 L66.3000036,29.9000016 L63.7000035,29.9000016 L63.7000035,27.3000015 L66.3000036,27.3000015 Z M29.9000016,27.3000015 L29.9000016,29.9000016 L6.50000036,29.9000016 L6.50000036,27.3000015 L29.9000016,27.3000015 Z M55.9000031,27.3000015 L55.9000031,29.9000016 L53.3000029,29.9000016 L53.3000029,27.3000015 L55.9000031,27.3000015 Z M71.5000039,22.1000012 L71.5000039,24.7000014 L68.9000038,24.7000014 L68.9000038,22.1000012 L71.5000039,22.1000012 Z M66.3000036,22.1000012 L66.3000036,24.7000014 L63.7000035,24.7000014 L63.7000035,22.1000012 L66.3000036,22.1000012 Z M61.1000034,22.1000012 L61.1000034,24.7000014 L53.3000029,24.7000014 L53.3000029,22.1000012 L61.1000034,22.1000012 Z M50.7000028,22.1000012 L50.7000028,24.7000014 L48.1000026,24.7000014 L48.1000026,22.1000012 L50.7000028,22.1000012 Z M45.5000025,22.1000012 L45.5000025,24.7000014 L42.9000024,24.7000014 L42.9000024,22.1000012 L45.5000025,22.1000012 Z M40.3000022,22.1000012 L40.3000022,24.7000014 L16.9000009,24.7000014 L16.9000009,22.1000012 L40.3000022,22.1000012 Z M14.3000008,22.1000012 L14.3000008,24.7000014 L11.7000006,24.7000014 L11.7000006,22.1000012 L14.3000008,22.1000012 Z M9.1000005,22.1000012 L9.1000005,24.7000014 L6.50000036,24.7000014 L6.50000036,22.1000012 L9.1000005,22.1000012 Z M71.5000039,16.9000009 L71.5000039,19.5000011 L68.9000038,19.5000011 L68.9000038,16.9000009 L71.5000039,16.9000009 Z M66.3000036,16.9000009 L66.3000036,19.5000011 L48.1000026,19.5000011 L48.1000026,16.9000009 L66.3000036,16.9000009 Z M45.5000025,16.9000009 L45.5000025,19.5000011 L42.9000024,19.5000011 L42.9000024,16.9000009 L45.5000025,16.9000009 Z M40.3000022,16.9000009 L40.3000022,19.5000011 L37.7000021,19.5000011 L37.7000021,16.9000009 L40.3000022,16.9000009 Z M35.1000019,16.9000009 L35.1000019,19.5000011 L32.5000018,19.5000011 L32.5000018,16.9000009 L35.1000019,16.9000009 Z M29.9000016,16.9000009 L29.9000016,19.5000011 L27.3000015,19.5000011 L27.3000015,16.9000009 L29.9000016,16.9000009 Z M24.7000014,16.9000009 L24.7000014,19.5000011 L22.1000012,19.5000011 L22.1000012,16.9000009 L24.7000014,16.9000009 Z M19.5000011,16.9000009 L19.5000011,19.5000011 L16.9000009,19.5000011 L16.9000009,16.9000009 L19.5000011,16.9000009 Z M14.3000008,16.9000009 L14.3000008,19.5000011 L11.7000006,19.5000011 L11.7000006,16.9000009 L14.3000008,16.9000009 Z M9.1000005,16.9000009 L9.1000005,19.5000011 L6.50000036,19.5000011 L6.50000036,16.9000009 L9.1000005,16.9000009 Z M75.4000041,2.60000014 L2.60000014,2.60000014 L2.60000014,10.4000006 L75.4000041,10.4000006 L75.4000041,2.60000014 Z M10.4000006,5.20000029 L10.4000006,7.80000043 L5.20000029,7.80000043 L5.20000029,5.20000029 L10.4000006,5.20000029 Z M18.200001,5.20000029 L18.200001,7.80000043 L13.0000007,7.80000043 L13.0000007,5.20000029 L18.200001,5.20000029 Z M72.800004,5.20000029 L72.800004,7.80000043 L70.2000039,7.80000043 L70.2000039,5.20000029 L72.800004,5.20000029 Z M67.6000037,5.20000029 L67.6000037,7.80000043 L65.0000036,7.80000043 L65.0000036,5.20000029 L67.6000037,5.20000029 Z" id="Combined-Shape"></path>
                    </g>
                </g>
            </g>
        </g>
    </g>
</svg>