<?xml version="1.0" encoding="UTF-8"?>
<svg width="78px" height="78px" viewBox="0 0 78 78" version="1.1" xmlns="http://www.w3.org/2000/svg" xmlns:xlink="http://www.w3.org/1999/xlink">
    <title>message@1.5x</title>
    <g id="Home" stroke="none" stroke-width="1" fill="none" fill-rule="evenodd">
        <g id="Mailmate-home" transform="translate(-541.000000, -1043.000000)" fill="#CA2228" fill-rule="nonzero">
            <g id="Why-to-choose-us?" transform="translate(-11.000000, 635.000000)">
                <g id="Group-7" transform="translate(471.000000, 376.000000)">
                    <g id="message" transform="translate(81.000000, 32.000000)">
                        <path d="M38.6879977,0 C42.1287335,0 44.9279973,2.79926383 44.9279973,6.23999963 L44.9279973,6.23999963 L44.9279973,30.6833262 L46.7550692,28.8550063 C47.6062052,28.0038703 48.7256611,27.5296304 49.919997,27.4759664 L49.919997,27.4759664 L49.919997,21.5092787 C48.4186531,20.7504948 47.4239972,19.1992309 47.4239972,17.471999 C47.4239972,15.4439991 48.7893091,13.6481272 50.743677,13.1064952 L50.743677,13.1064952 L70.0377558,7.74633554 C70.4745558,6.16387163 71.9122517,4.9919997 73.6319956,4.9919997 C75.6961875,4.9919997 77.3759954,6.6718076 77.3759954,8.73599948 L77.3759954,8.73599948 L77.3759954,26.2079984 C77.3759954,28.2721903 75.6961875,29.9519982 73.6319956,29.9519982 C71.9122517,29.9519982 70.4745558,28.7801263 70.0377558,27.1989104 L70.0377558,27.1989104 L59.9039964,24.3834225 L59.9039964,33.695998 C59.9039964,36.4490858 57.6650846,38.6879977 54.9119967,38.6879977 C53.6864608,38.6879977 52.5457889,38.2437097 51.6547169,37.4699498 L51.6547169,37.4699498 L44.9279973,44.1966694 L44.9279973,71.1359958 C44.9279973,74.5767316 42.1287335,77.3759954 38.6879977,77.3759954 L38.6879977,77.3759954 L6.23999963,77.3759954 C2.79926383,77.3759954 0,74.5767316 0,71.1359958 L0,71.1359958 L0,6.23999963 C0,2.79926383 2.79926383,0 6.23999963,0 L6.23999963,0 Z M42.4319975,67.391996 L2.49599985,67.391996 L2.49599985,71.1359958 C2.49599985,73.2001876 4.17580775,74.8799955 6.23999963,74.8799955 L6.23999963,74.8799955 L38.6879977,74.8799955 C40.7521896,74.8799955 42.4319975,73.2001876 42.4319975,71.1359958 L42.4319975,71.1359958 L42.4319975,67.391996 Z M28.7039983,69.8879958 L28.7039983,72.3839957 L16.223999,72.3839957 L16.223999,69.8879958 L28.7039983,69.8879958 Z M68.6399959,44.9279973 C73.4572756,44.9279973 77.3759954,48.8467171 77.3759954,53.6639968 L77.3759954,53.6639968 L77.3759954,58.6559965 C77.3759954,63.4732762 73.4572756,67.391996 68.6399959,67.391996 L68.6399959,67.391996 L56.1599967,67.391996 C51.3427169,67.391996 47.4239972,63.4732762 47.4239972,58.6559965 L47.4239972,58.6559965 L47.4239972,44.9279973 Z M68.6399959,47.4239972 L49.919997,47.4239972 L49.919997,58.6559965 C49.919997,62.0967323 52.7192609,64.8959961 56.1599967,64.8959961 L56.1599967,64.8959961 L68.6399959,64.8959961 C72.0807317,64.8959961 74.8799955,62.0967323 74.8799955,58.6559965 L74.8799955,58.6559965 L74.8799955,53.6639968 C74.8799955,50.223261 72.0807317,47.4239972 68.6399959,47.4239972 L68.6399959,47.4239972 Z M12.4799993,2.49599985 L6.23999963,2.49599985 C4.17580775,2.49599985 2.49599985,4.17580775 2.49599985,6.23999963 L2.49599985,6.23999963 L2.49599985,64.8959961 L42.4319975,64.8959961 L42.4319975,46.6926692 L41.0317416,48.0929251 C40.3353576,48.7905571 39.9359976,49.754013 39.9359976,50.739933 L39.9359976,50.739933 L39.9359976,62.3999963 L7.48799955,62.3999963 C6.11145564,62.3999963 4.9919997,61.2805403 4.9919997,59.9039964 L4.9919997,59.9039964 L4.9919997,12.4799993 C4.9919997,11.1034553 6.11145564,9.9839994 7.48799955,9.9839994 L7.48799955,9.9839994 L37.4399978,9.9839994 C38.8165417,9.9839994 39.9359976,11.1034553 39.9359976,12.4799993 L39.9359976,12.4799993 L39.9359976,35.6753259 L42.4319975,33.179326 L42.4319975,6.23999963 C42.4319975,4.17580775 40.7521896,2.49599985 38.6879977,2.49599985 L38.6879977,2.49599985 L32.4479981,2.49599985 L32.4479981,3.74399978 C32.4479981,5.80819165 30.7681902,7.48799955 28.7039983,7.48799955 L28.7039983,7.48799955 L16.223999,7.48799955 C14.1598072,7.48799955 12.4799993,5.80819165 12.4799993,3.74399978 L12.4799993,3.74399978 L12.4799993,2.49599985 Z M72.3839957,59.9039964 L72.3839957,62.3999963 L52.4159969,62.3999963 L52.4159969,59.9039964 L72.3839957,59.9039964 Z M50.133405,29.9519982 C49.524381,29.9519982 48.9515491,30.1891182 48.5197411,30.6209262 L48.5197411,30.6209262 L39.9996456,39.1422697 C38.2973737,40.8457896 36.1408298,41.9215655 33.80707,42.2847335 L33.80707,42.2847335 L27.4559984,50.752413 L21.3982067,42.6741095 C16.311359,43.7448934 12.4799993,48.2639011 12.4799993,53.6639968 L12.4799993,53.6639968 L12.4799993,59.9039964 L16.223999,59.9039964 L16.223999,49.919997 L18.7199989,49.919997 L18.7199989,59.9039964 L37.4399978,59.9039964 L37.4399978,50.739933 C37.4399978,49.0726051 38.0889577,47.5063652 39.2670697,46.3282532 L39.2670697,46.3282532 L51.7470689,33.848254 C52.1788769,33.416446 52.4159969,32.843614 52.4159969,32.2345901 C52.4159969,30.9753582 51.3926369,29.9519982 50.133405,29.9519982 Z M37.4399978,12.4799993 L7.48799955,12.4799993 L7.48799955,59.9039964 L9.9839994,59.9039964 L9.9839994,53.6639968 C9.9839994,46.8287012 15.0109431,41.1602855 21.5579507,40.1219496 C19.8182388,38.5245097 18.7199989,36.2394218 18.7199989,33.695998 C18.7199989,28.8787183 22.6387187,24.9599985 27.4559984,24.9599985 C32.2732781,24.9599985 36.1919978,28.8787183 36.1919978,33.695998 C36.1919978,36.0597099 35.2447659,38.2025257 33.715966,39.7775016 C35.0750379,39.5166696 36.3442538,38.9338537 37.4399978,38.0727337 L37.4399978,38.0727337 L37.4399978,12.4799993 Z M72.3839957,54.9119967 L72.3839957,57.4079966 L52.4159969,57.4079966 L52.4159969,54.9119967 L72.3839957,54.9119967 Z M54.9119967,49.919997 L54.9119967,52.4159969 L52.4159969,52.4159969 L52.4159969,49.919997 L54.9119967,49.919997 Z M72.3839957,49.919997 L72.3839957,52.4159969 L57.4079966,52.4159969 L57.4079966,49.919997 L72.3839957,49.919997 Z M30.5759982,42.4319975 L24.3359985,42.4319975 L27.4559984,46.5915812 L30.5759982,42.4319975 Z M27.4559984,27.4559984 C24.0152626,27.4559984 21.2159987,30.2552622 21.2159987,33.695998 C21.2159987,37.1367338 24.0152626,39.9359976 27.4559984,39.9359976 C30.8967342,39.9359976 33.695998,37.1367338 33.695998,33.695998 C33.695998,30.2552622 30.8967342,27.4559984 27.4559984,27.4559984 Z M52.4159969,22.3030067 L52.4159969,28.0625263 C53.8948768,28.8762223 54.9119967,30.4299822 54.9119967,32.2345901 C54.9119967,33.510046 54.4152928,34.7093739 53.5117408,35.6129259 L53.5117408,35.6129259 L53.4368608,35.6878059 C53.8586848,36.0010539 54.3641248,36.1919978 54.9119967,36.1919978 C56.2885406,36.1919978 57.4079966,35.0725419 57.4079966,33.695998 L57.4079966,33.695998 L57.4079966,23.6895346 L52.4159969,22.3030067 Z M73.6319956,7.48799955 C72.9443477,7.48799955 72.3839957,8.04835152 72.3839957,8.73599948 L72.3839957,8.73599948 L72.3839957,26.2079984 C72.3839957,26.8956464 72.9443477,27.4559984 73.6319956,27.4559984 C74.3196436,27.4559984 74.8799955,26.8956464 74.8799955,26.2079984 L74.8799955,26.2079984 L74.8799955,8.73599948 C74.8799955,8.04835152 74.3196436,7.48799955 73.6319956,7.48799955 Z M69.8879958,10.3771194 L54.9119967,14.5379511 L54.9119967,20.4060468 L69.8879958,24.5656305 L69.8879958,10.3771194 Z M34.9439979,19.9679988 L34.9439979,22.4639987 L9.9839994,22.4639987 L9.9839994,19.9679988 L34.9439979,19.9679988 Z M52.4159969,15.2318391 L51.4113569,15.5101431 C50.532765,15.7547511 49.919997,16.560959 49.919997,17.471999 C49.919997,18.3830389 50.532765,19.1892469 51.4113569,19.4338548 L51.4113569,19.4338548 L52.4159969,19.7134068 L52.4159969,15.2318391 Z M12.4799993,14.9759991 L12.4799993,17.471999 L9.9839994,17.471999 L9.9839994,14.9759991 L12.4799993,14.9759991 Z M17.471999,14.9759991 L17.471999,17.471999 L14.9759991,17.471999 L14.9759991,14.9759991 L17.471999,14.9759991 Z M22.4639987,14.9759991 L22.4639987,17.471999 L19.9679988,17.471999 L19.9679988,14.9759991 L22.4639987,14.9759991 Z M29.9519982,2.49599985 L14.9759991,2.49599985 L14.9759991,3.74399978 C14.9759991,4.43164774 15.5363511,4.9919997 16.223999,4.9919997 L16.223999,4.9919997 L28.7039983,4.9919997 C29.3916462,4.9919997 29.9519982,4.43164774 29.9519982,3.74399978 L29.9519982,3.74399978 L29.9519982,2.49599985 Z" id="Combined-Shape"></path>
                    </g>
                </g>
            </g>
        </g>
    </g>
</svg>