<?xml version="1.0" encoding="UTF-8"?>
<svg width="78px" height="78px" viewBox="0 0 78 78" version="1.1" xmlns="http://www.w3.org/2000/svg" xmlns:xlink="http://www.w3.org/1999/xlink">
    <title>coordination@1.5x</title>
    <g id="Home" stroke="none" stroke-width="1" fill="none" fill-rule="evenodd">
        <g id="Mailmate-home" transform="translate(-260.000000, -1326.000000)" fill="#CA2228" fill-rule="nonzero">
            <g id="Why-to-choose-us?" transform="translate(-11.000000, 635.000000)">
                <g id="Group-10" transform="translate(191.000000, 656.000000)">
                    <g id="coordination" transform="translate(80.000000, 35.000000)">
                        <path d="M76.1279955,39.9359976 C76.8184173,39.9359976 77.3759954,39.3784195 77.3759954,38.6879977 L77.3759954,8.73599948 C77.3759954,8.04557768 76.8184173,7.48799955 76.1279955,7.48799955 L67.2658553,7.48799955 C67.3493397,7.07971825 67.391996,6.66046828 67.391996,6.23999963 C67.391996,2.79946851 64.5925275,0 61.1519964,0 C57.7114652,0 54.9119967,2.79946851 54.9119967,6.23999963 C54.9119967,6.66046828 54.9546531,7.07971825 55.0381374,7.48799955 L46.1759972,7.48799955 C45.4855755,7.48799955 44.9279973,8.04557768 44.9279973,8.73599948 L44.9279973,17.9936239 C44.149216,17.6542021 43.3003568,17.471999 42.4319975,17.471999 C38.9914663,17.471999 36.1919978,20.2714675 36.1919978,23.7119986 C36.1919978,27.1525297 38.9914663,29.9519982 42.4319975,29.9519982 C43.3003568,29.9519982 44.149216,29.7697951 44.9279973,29.4303732 L44.9279973,38.6879977 C44.9279973,39.3784195 45.4855755,39.9359976 46.1759972,39.9359976 L52.4159969,39.9359976 L52.4159969,52.4159969 C52.4159969,52.54945 52.4385437,52.6829032 52.4805905,52.8102625 L53.42695,55.6493404 L50.4751377,57.6176216 C50.0546689,57.8985434 49.8450439,58.404934 49.9437627,58.9003558 L51.1917626,65.1403555 C51.2301533,65.3353554 51.3166844,65.5199961 51.4397783,65.6759961 L56.1599967,71.5741364 L56.1599967,77.3759954 L58.6559965,77.3759954 L58.6559965,71.1359958 C58.6559965,70.8514176 58.5597152,70.5784176 58.3823872,70.3559958 L53.5792936,64.353043 L52.5555437,59.2312465 L54.2441218,58.1045122 L54.9753717,60.2982621 L57.3415747,59.5085121 L54.9119967,52.2136844 L54.9119967,36.1919978 C54.9119967,35.5034042 55.471403,34.9439979 56.1599967,34.9439979 C56.8485903,34.9439979 57.4079966,35.5034042 57.4079966,36.1919978 L57.4079966,49.919997 C57.4079966,50.4690438 57.7675279,50.9547156 58.2940279,51.114372 C58.819309,51.2740283 59.389684,51.0692783 59.6943714,50.6128563 L61.8198713,47.4239972 L62.9801212,47.4239972 L65.1056211,50.6128563 C65.3377929,50.9595906 65.7271836,51.167997 66.1439961,51.167997 L67.9721209,51.167997 L70.0976208,54.3568561 C70.3297926,54.7035904 70.7191833,54.9119967 71.1359958,54.9119967 L72.9641207,54.9119967 L74.8799955,57.7864184 L74.8799955,64.4590743 L70.1616052,70.3572145 C69.9842772,70.5784176 69.8879958,70.8514176 69.8879958,71.1359958 L69.8879958,77.3759954 L72.3839957,77.3759954 L72.3839957,71.5741364 L77.1023861,65.6759961 C77.2797141,65.4535743 77.3759954,65.1805743 77.3759954,64.8959961 L77.3759954,57.4079966 C77.3759954,57.1624184 77.3022611,56.9198873 77.1663704,56.7151373 L74.6703705,52.9711375 C74.4381987,52.6244032 74.0488081,52.4159969 73.6319956,52.4159969 L71.8038707,52.4159969 L69.6783708,49.2271377 C69.446199,48.8804034 69.0568084,48.6719971 68.6399959,48.6719971 L66.811871,48.6719971 L64.6863711,45.483138 C64.4541993,45.1364036 64.0648087,44.9279973 63.6479962,44.9279973 L61.1519964,44.9279973 C60.7351839,44.9279973 60.3457932,45.1364036 60.1136214,45.483138 L59.9039964,45.7975754 L59.9039964,39.9359976 L76.1279955,39.9359976 Z M56.1599967,32.4479981 C54.0960436,32.4479981 52.4159969,34.1280448 52.4159969,36.1919978 L52.4159969,37.4399978 L47.4239972,37.4399978 L47.4239972,27.0142016 C47.4239972,26.4950141 47.1022472,26.0306703 46.6177941,25.8460298 C46.1345598,25.6662641 45.5842941,25.7984985 45.2399973,26.1878891 C44.5300755,26.9940921 43.5063256,27.4559984 42.4319975,27.4559984 C40.3680444,27.4559984 38.6879977,25.7759516 38.6879977,23.7119986 C38.6879977,21.6480455 40.3680444,19.9679988 42.4319975,19.9679988 C43.5063256,19.9679988 44.5300755,20.4299051 45.2399973,21.2361081 C45.5830754,21.6254987 46.1321223,21.7613894 46.6177941,21.5779674 C47.1022472,21.3945456 47.4239972,20.9302019 47.4239972,20.4097956 L47.4239972,9.9839994 L56.8278716,9.9839994 C57.2733248,9.9839994 57.6864809,9.74573376 57.9082934,9.35878077 C58.1307152,8.97182763 58.131934,8.49651516 57.9070747,8.10956202 C57.5816684,7.54649955 57.4079966,6.89873392 57.4079966,6.23999963 C57.4079966,4.17604659 59.0880433,2.49599985 61.1519964,2.49599985 C63.2159494,2.49599985 64.8959961,4.17604659 64.8959961,6.23999963 C64.8959961,6.89873392 64.7223243,7.54649955 64.396918,8.10956202 C64.1720587,8.49651516 64.1720587,8.97182763 64.3956993,9.35878077 C64.6187305,9.74573376 65.0294493,9.9839994 65.4761211,9.9839994 L74.8799955,9.9839994 L74.8799955,37.4399978 L59.9039964,37.4399978 L59.9039964,36.1919978 C59.9039964,34.1280448 58.2239497,32.4479981 56.1599967,32.4479981 L56.1599967,32.4479981 Z" id="Shape"></path>
                        <path d="M1.24799993,39.9359976 L10.5056244,39.9359976 C10.1662026,40.7147789 9.9839994,41.5636382 9.9839994,42.4319975 C9.9839994,45.8725286 12.7834679,48.6719971 16.223999,48.6719971 C19.6645302,48.6719971 22.4639987,45.8725286 22.4639987,42.4319975 C22.4639987,41.5636382 22.2817955,40.7147789 21.9423737,39.9359976 L31.1999981,39.9359976 C31.8904199,39.9359976 32.4479981,39.3784195 32.4479981,38.6879977 L32.4479981,27.0142016 C32.4479981,26.4950141 32.1262481,26.0306703 31.641795,25.8460298 C31.1573418,25.6662641 30.608295,25.7984985 30.2639982,26.1878891 C29.5540764,26.9940921 28.5303265,27.4559984 27.4559984,27.4559984 C25.3920453,27.4559984 23.7119986,25.7759516 23.7119986,23.7119986 C23.7119986,21.6480455 25.3920453,19.9679988 27.4559984,19.9679988 C28.5303265,19.9679988 29.5540764,20.4299051 30.2639982,21.2361081 C30.6058575,21.6254987 31.1573418,21.7613894 31.641795,21.5779674 C32.1262481,21.3945456 32.4479981,20.9302019 32.4479981,20.4097956 L32.4479981,8.73599948 C32.4479981,8.04557768 31.8904199,7.48799955 31.1999981,7.48799955 L1.24799993,7.48799955 C0.557578131,7.48799955 0,8.04557768 0,8.73599948 L0,38.6879977 C0,39.3784195 0.557578131,39.9359976 1.24799993,39.9359976 Z M2.49599985,9.9839994 L29.9519982,9.9839994 L29.9519982,17.9936239 C29.1732169,17.6542021 28.3243576,17.471999 27.4559984,17.471999 C24.0154672,17.471999 21.2159987,20.2714675 21.2159987,23.7119986 C21.2159987,27.1525297 24.0154672,29.9519982 27.4559984,29.9519982 C28.3243576,29.9519982 29.1732169,29.7697951 29.9519982,29.4303732 L29.9519982,37.4399978 L19.526202,37.4399978 C19.0070145,37.4399978 18.5426707,37.7617477 18.3580302,38.2462009 C18.1758271,38.7330914 18.3104989,39.2809195 18.6998895,39.6239976 C19.5060925,40.3339194 19.9679988,41.3576694 19.9679988,42.4319975 C19.9679988,44.4959505 18.2879521,46.1759972 16.223999,46.1759972 C14.160046,46.1759972 12.4799993,44.4959505 12.4799993,42.4319975 C12.4799993,41.3576694 12.9419056,40.3339194 13.7481085,39.6239976 C14.1374992,39.2821383 14.2733898,38.7330914 14.0899678,38.2462009 C13.906546,37.7617477 13.4422024,37.4399978 12.9217961,37.4399978 L2.49599985,37.4399978 L2.49599985,9.9839994 Z" id="Shape"></path>
                        <path d="M34.9439979,61.1519964 C34.0756386,61.1519964 33.2267793,61.3341995 32.4479981,61.6736213 L32.4479981,52.4159969 C32.4479981,51.7255751 31.8904199,51.167997 31.1999981,51.167997 L19.526202,51.167997 C19.0070145,51.167997 18.5426707,51.4897469 18.3580302,51.9742001 C18.1758271,52.4610905 18.3104989,53.0089187 18.6998895,53.3519968 C19.5060925,54.0619186 19.9679988,55.0856686 19.9679988,56.1599967 C19.9679988,58.2239497 18.2879521,59.9039964 16.223999,59.9039964 C14.160046,59.9039964 12.4799993,58.2239497 12.4799993,56.1599967 C12.4799993,55.0856686 12.9419056,54.0619186 13.7481085,53.3519968 C14.1374992,53.0101375 14.2733898,52.4610905 14.0899678,51.9742001 C13.906546,51.4897469 13.4422024,51.167997 12.9217961,51.167997 L1.24799993,51.167997 C0.557578131,51.167997 0,51.7255751 0,52.4159969 L0,77.3759954 L2.49599985,77.3759954 L2.49599985,53.6639968 L10.5056244,53.6639968 C10.1662026,54.4427781 9.9839994,55.2916374 9.9839994,56.1599967 C9.9839994,59.6005278 12.7834679,62.3999963 16.223999,62.3999963 C19.6645302,62.3999963 22.4639987,59.6005278 22.4639987,56.1599967 C22.4639987,55.2916374 22.2817955,54.4427781 21.9423737,53.6639968 L29.9519982,53.6639968 L29.9519982,64.089793 C29.9519982,64.6089805 30.2737482,65.0733243 30.7582013,65.2579648 C31.2414356,65.4401679 31.7917013,65.3067148 32.1359981,64.9161055 C32.8459199,64.1099025 33.8696698,63.6479962 34.9439979,63.6479962 C37.007951,63.6479962 38.6879977,65.3280429 38.6879977,67.391996 C38.6879977,69.455949 37.007951,71.1359958 34.9439979,71.1359958 C33.8696698,71.1359958 32.8459199,70.6740895 32.1359981,69.8678865 C31.7941388,69.4784959 31.2450918,69.3450427 30.7582013,69.5260272 C30.2737482,69.709449 29.9519982,70.1737927 29.9519982,70.694199 L29.9519982,77.3759954 L32.4479981,77.3759954 L32.4479981,73.1103706 C33.2267793,73.4497925 34.0756386,73.6319956 34.9439979,73.6319956 C38.384529,73.6319956 41.1839975,70.8325271 41.1839975,67.391996 C41.1839975,63.9514649 38.384529,61.1519964 34.9439979,61.1519964 L34.9439979,61.1519964 Z" id="Path"></path>
                        <path d="M69.8879958,34.9439979 L72.3839957,34.9439979 L72.3839957,13.7279992 C72.3839957,13.0375774 71.8264176,12.4799993 71.1359958,12.4799993 L49.919997,12.4799993 L49.919997,14.9759991 L69.8879958,14.9759991 L69.8879958,34.9439979 Z" id="Path"></path>
                        <path d="M27.4559984,12.4799993 L6.23999963,12.4799993 C5.54957783,12.4799993 4.9919997,13.0375774 4.9919997,13.7279992 L4.9919997,34.9439979 L7.48799955,34.9439979 L7.48799955,14.9759991 L27.4559984,14.9759991 L27.4559984,12.4799993 Z" id="Path"></path>
                        <polygon id="Path" points="4.9919997 56.1599967 7.48799955 56.1599967 7.48799955 77.3759954 4.9919997 77.3759954"></polygon>
                    </g>
                </g>
            </g>
        </g>
    </g>
</svg>