<?xml version="1.0" encoding="UTF-8"?>
<svg width="78px" height="78px" viewBox="0 0 78 78" version="1.1" xmlns="http://www.w3.org/2000/svg" xmlns:xlink="http://www.w3.org/1999/xlink">
    <title>pay@1.5x</title>
    <g id="Home" stroke="none" stroke-width="1" fill="none" fill-rule="evenodd">
        <g id="Mailmate-home" transform="translate(-1102.000000, -1323.000000)" fill="#CA2228" fill-rule="nonzero">
            <g id="Why-to-choose-us?" transform="translate(-11.000000, 635.000000)">
                <g id="Group-13" transform="translate(1032.000000, 656.000000)">
                    <g id="pay" transform="translate(81.000000, 32.000000)">
                        <path d="M64.8311674,56.2226774 L61.5288298,54.2441872 C60.5221739,53.642093 59.3705344,53.3242682 58.1973687,53.3236352 L53.2274014,53.3236352 C52.2099826,53.3217358 51.1969956,53.452791 50.213132,53.712369 L35.2386519,57.732028 C33.6014115,58.1840733 32.2864278,59.4034565 31.7128239,61.0020766 L18.5414607,53.8763462 C17.4733925,53.268554 16.2229867,53.0621579 15.016266,53.2938786 C14.5610549,53.3742845 14.1197725,53.5192682 13.7050809,53.7243981 C12.768701,54.1726449 11.9918666,54.8969306 11.4777757,55.7991222 C11.0282628,56.5848202 10.7919635,57.4743494 10.7919635,58.3790733 C10.7781816,60.2265084 11.7569802,61.9384564 13.3549673,62.8640732 L36.9613628,76.9882774 C37.9870121,77.6232937 39.1684081,77.9594807 40.3744959,77.9594807 L58.6437163,77.9594807 C59.4598039,77.9601119 60.2682941,77.8056313 61.0267682,77.505534 L64.8311674,76.0031477 L64.8311674,77.9594807 L77.7974009,77.9594807 L77.7974009,52.0270118 L64.8311674,52.0270118 L64.8311674,56.2226774 Z M60.0739273,75.0939917 C59.6199824,75.2731639 59.135648,75.365599 58.6475149,75.3662321 L40.3744959,75.3662321 C39.6438789,75.365599 38.9278239,75.1598359 38.3086355,74.7723685 L14.669951,60.6317032 C13.8665257,60.1676284 13.3745938,59.3078558 13.3808647,58.3803396 C13.3828243,57.9257617 13.5024835,57.4787812 13.7285062,57.0837163 C13.9868179,56.6361026 14.3755515,56.2771253 14.8421588,56.0555345 C15.0479217,55.955502 15.2657139,55.8845929 15.4904705,55.8453397 C15.6544478,55.8149501 15.8209574,55.799112 15.9874672,55.799112 C16.4331815,55.7978559 16.8712983,55.9143494 17.2581328,56.1359402 L31.5406161,63.8536349 C31.5570772,63.9327745 31.5570772,64.0106479 31.57797,64.0897875 C32.1920935,66.3531803 34.2452914,67.9252096 36.5909895,67.927742 C37.3127427,67.8618979 38.0275316,67.7340082 38.7277588,67.5466056 L52.1992196,63.9416382 L51.5306482,61.4363948 L38.1028726,65.0255343 C37.5115413,65.1616543 36.7486355,65.3174011 36.5909895,65.3306966 C35.4197232,65.3325959 34.3928077,64.5500635 34.0844798,63.420583 C34.042694,63.26357 34.0180025,63.1027584 34.0091388,62.9406805 C34.0091388,62.9406805 33.9990089,62.6266545 34.0091388,62.5164921 C34.107905,61.431963 34.8676453,60.5215408 35.9167199,60.229674 L50.884869,56.2252098 C51.6490411,56.020713 52.4366385,55.9168819 53.2274014,55.9168819 L58.1973687,55.9168819 C58.9013947,55.9168819 59.5921253,56.1080832 60.1954857,56.4695929 L64.8311674,59.2451772 L64.8311674,73.2136347 L60.0739273,75.0939917 Z M67.4244141,54.6202585 L75.2041542,54.6202585 L75.2041542,75.3662321 L67.4244141,75.3662321 L67.4244141,54.6202585 Z" id="Shape"></path>
                        <path d="M53.4781157,10.5350647 L46.5226937,3.58027593 C44.3390736,1.38399339 41.3678562,0.153214282 38.2712816,0.162030374 L21.9697884,0.162030374 C20.9637658,0.163344152 19.9716716,0.39823047 19.0707462,0.846477213 L16.1647399,2.30011354 C15.5822724,2.5932467 14.935227,2.73316548 14.2837496,2.70720773 L12.9662335,2.66099024 L12.9662335,0.162030374 L0,0.162030374 L0,28.6877916 L12.9662335,28.6877916 L12.9662335,24.7979215 L15.1707463,24.7979215 L15.9551782,25.3164443 C18.1501944,26.7738792 20.7060872,27.5969312 23.3392203,27.6931649 L23.3392203,44.2472717 L77.7974009,44.2472717 L77.7974009,10.5350647 L53.4781157,10.5350647 Z M10.3729868,26.0945449 L2.5932467,26.0945449 L2.5932467,2.75532461 L10.3729868,2.75532461 L10.3729868,26.0945449 Z M17.3904542,23.158782 L15.948214,22.2046748 L12.9662335,22.2046748 L12.9662335,5.25550309 L14.1887822,5.29918811 C15.2745777,5.33780836 16.3521425,5.10418828 17.3239769,4.61985375 L20.2274508,3.16621742 C20.7681327,2.89587664 21.3651618,2.75528688 21.9697884,2.75528688 L38.2712816,2.75528688 C40.6796581,2.74836029 42.9911679,3.70563299 44.6891872,5.41314931 L49.8111028,10.5350647 L39.1114277,10.5350647 L35.9642037,7.38847394 L34.1313305,9.22134716 L43.2906321,18.381282 C44.308051,19.394269 44.3112165,21.0403729 43.2982295,22.0584248 C42.2846094,23.0758436 40.6385056,23.0790092 39.6210867,22.0660222 L31.9711356,14.416071 L31.0632461,15.1941718 C28.5567363,17.3227106 24.8928891,17.3771587 22.3237008,15.3233276 L21.572191,14.7142691 L19.9381164,16.7288471 L20.6978567,17.3448697 C21.4924184,17.979886 22.38448,18.4825807 23.3392203,18.8333275 L23.3392203,25.0986521 C21.2170125,25.0043177 19.1600158,24.3338469 17.3904542,23.158782 Z M35.8350479,21.945097 L37.7913791,23.9020611 C39.822418,25.9027104 43.0829698,25.9058761 45.1171744,23.9083924 C43.214025,26.8555513 43.9649015,30.7777103 46.8221581,32.8131811 C49.6794145,34.8486519 53.6319631,34.2769473 55.7953234,31.5159247 C57.9586837,28.7542688 57.5680507,24.7795612 54.9076937,22.492743 C52.2479696,20.2059249 48.2593333,20.4154866 45.8541223,22.9682139 C46.7398528,21.577256 46.8981321,19.8437821 46.2789437,18.3148048 L63.6421738,18.3148048 C64.1999499,21.577256 66.7552096,24.1325157 70.0176608,24.6902917 L70.0176608,30.0920447 C66.7552096,30.6498208 64.1999499,33.2050805 63.6421738,36.4675317 L37.4944473,36.4675317 C36.9366712,33.2050805 34.3814115,30.6498208 31.1189603,30.0920447 L31.1189603,24.6902917 C32.9720935,24.378165 34.6479539,23.4025319 35.8350479,21.945097 L35.8350479,21.945097 Z M46.6784405,27.3911682 C46.6784405,25.2430027 48.4201451,23.5012982 50.5683106,23.5012982 C52.7164761,23.5012982 54.4581806,25.2430027 54.4581806,27.3911682 C54.4581806,29.5393337 52.7164761,31.2810383 50.5683106,31.2810383 C48.4201451,31.2810383 46.6784405,29.5393337 46.6784405,27.3911682 Z M75.2041542,41.654025 L25.932467,41.654025 L25.932467,19.3765417 C27.9881975,19.5310223 30.0375967,19.0068015 31.767272,17.8855515 L33.9793824,20.0976619 C33.0062817,21.4196099 31.464009,22.2015093 29.822337,22.2046748 L28.5257136,22.2046748 L28.5257136,32.5776616 L29.822337,32.5776616 C32.6865577,32.5776616 35.0088304,34.8999343 35.0088304,37.764155 L35.0088304,39.0607783 L66.1277907,39.0607783 L66.1277907,37.764155 C66.1277907,34.8999343 68.4500634,32.5776616 71.3142841,32.5776616 L72.6109075,32.5776616 L72.6109075,22.2046748 L71.3142841,22.2046748 C68.4500634,22.2046748 66.1277907,19.8824022 66.1277907,17.0181814 L66.1277907,15.7215581 L44.2979211,15.7215581 L41.7046744,13.1283114 L75.2041542,13.1283114 L75.2041542,41.654025 Z" id="Shape"></path>
                    </g>
                </g>
            </g>
        </g>
    </g>
</svg>