<?xml version="1.0" encoding="UTF-8"?>
<svg width="78px" height="78px" viewBox="0 0 78 78" version="1.1" xmlns="http://www.w3.org/2000/svg" xmlns:xlink="http://www.w3.org/1999/xlink">
    <title>search@1.5x</title>
    <defs>
        <rect id="path-1" x="0" y="0" width="239" height="239" rx="4"></rect>
        <filter x="-23.0%" y="-14.6%" width="146.0%" height="146.0%" filterUnits="objectBoundingBox" id="filter-2">
            <feOffset dx="0" dy="20" in="SourceAlpha" result="shadowOffsetOuter1"></feOffset>
            <feGaussianBlur stdDeviation="15" in="shadowOffsetOuter1" result="shadowBlurOuter1"></feGaussianBlur>
            <feColorMatrix values="0 0 0 0 0.797214674   0 0 0 0 0.753723332   0 0 0 0 0.753723332  0 0 0 0.2 0" type="matrix" in="shadowBlurOuter1"></feColorMatrix>
        </filter>
    </defs>
    <g id="Home" stroke="none" stroke-width="1" fill="none" fill-rule="evenodd">
        <g id="Mailmate-home" transform="translate(-541.000000, -1323.000000)">
            <rect fill="#FFFFFF" x="0" y="0" width="1440" height="6462"></rect>
            <g id="Why-to-choose-us?" transform="translate(-11.000000, 635.000000)">
                <rect id="Rectangle" fill="#EBE4E4" x="71" y="203" width="1319" height="580" rx="4"></rect>
                <g id="Group-11" transform="translate(471.000000, 656.000000)">
                    <g id="Rectangle-Copy-5">
                        <use fill="black" fill-opacity="1" filter="url(#filter-2)" xlink:href="#path-1"></use>
                        <use fill="#FFFFFF" fill-rule="evenodd" xlink:href="#path-1"></use>
                    </g>
                    <g id="search" transform="translate(81.000000, 32.000000)" fill="#CA2228" fill-rule="nonzero">
                        <path d="M22.0426489,20.7472917 L37.6021301,20.7472917 C38.319173,20.7472917 38.8987028,20.1663943 38.8987028,19.450719 C38.8987028,18.7350436 38.319173,18.1541462 37.6021301,18.1541462 L22.0426489,18.1541462 C21.325606,18.1541462 20.7460761,18.7350436 20.7460761,19.450719 C20.7460761,20.1663943 21.325606,20.7472917 22.0426489,20.7472917 Z" id="Path"></path>
                        <path d="M29.8223895,41.4932159 L19.4493514,41.4932159 C18.7323085,41.4932159 18.1527786,42.0741134 18.1527786,42.7897887 C18.1527786,43.5054641 18.7323085,44.0863615 19.4493514,44.0863615 L29.8223895,44.0863615 C30.5394324,44.0863615 31.1189623,43.5054641 31.1189623,42.7897887 C31.1189623,42.0741134 30.5394324,41.4932159 29.8223895,41.4932159 Z" id="Path"></path>
                        <path d="M25.9325192,35.0102001 C25.9325192,34.2945247 25.3529893,33.7136273 24.6359464,33.7136273 L16.8562059,33.7136273 C16.139163,33.7136273 15.5596331,34.2945247 15.5596331,35.0102001 C15.5596331,35.7258754 16.139163,36.3067729 16.8562059,36.3067729 L24.6359464,36.3067729 C25.3528374,36.3067729 25.9325192,35.7258754 25.9325192,35.0102001 Z" id="Path"></path>
                        <path d="M16.8560539,28.5270323 L35.0088326,28.5270323 C35.7258754,28.5270323 36.3054053,27.9461349 36.3054053,27.2304595 C36.3054053,26.5147842 35.7258754,25.9338867 35.0088326,25.9338867 L16.8560539,25.9338867 C16.139011,25.9338867 15.5594811,26.5147842 15.5594811,27.2304595 C15.5594811,27.9461349 16.139011,28.5270323 16.8560539,28.5270323 Z" id="Path"></path>
                        <path d="M40.1952756,41.4932159 L35.0088326,41.4932159 C34.2917897,41.4932159 33.7122598,42.0741134 33.7122598,42.7897887 C33.7122598,43.5054641 34.2917897,44.0863615 35.0088326,44.0863615 L40.1952756,44.0863615 C40.9123185,44.0863615 41.4918484,43.5054641 41.4918484,42.7897887 C41.4920004,42.0741134 40.9123185,41.4932159 40.1952756,41.4932159 Z" id="Path"></path>
                        <path d="M58.6995101,51.3671046 C58.193827,51.8727878 58.193827,52.6948268 58.6995101,53.2005099 L61.4509856,55.9519853 C61.7038271,56.2061944 62.0358336,56.3318555 62.3676882,56.3318555 C62.6983272,56.3318555 63.0303337,56.2060425 63.2843908,55.9519853 C63.790074,55.4463022 63.790074,54.6254788 63.2843908,54.1185801 L60.5342829,51.3671046 C60.0272323,50.8614215 59.2064088,50.8614215 58.6995101,51.3671046 Z" id="Path"></path>
                        <path d="M75.897903,66.7320923 L66.8111053,57.646662 C66.5685962,57.4029373 66.2393247,57.2667919 65.8944026,57.2667919 L65.893187,57.2667919 C65.5496325,57.2667919 65.2189935,57.4043049 64.9751169,57.6480296 L61.3186388,61.3253245 C60.8129557,61.8335908 60.8155388,62.6530466 61.323805,63.1587298 C61.8334388,63.6644129 62.6528947,63.6630454 63.1572103,63.1535635 L65.8969857,60.399505 L74.0643458,68.5656495 C74.7982549,69.3007742 75.2041082,70.2771924 75.2041082,71.3157574 C75.2041082,72.3543224 74.7982549,73.3319562 74.0643458,74.0658653 C72.5486639,75.5815472 70.082395,75.5841303 68.56413,74.0672328 L53.1991424,58.7022452 C52.6934592,58.1965621 51.8726358,58.1965621 51.3657371,58.7022452 C50.860054,59.2092959 50.860054,60.0299673 51.3657371,60.537018 L66.7307247,75.9006381 C67.993565,77.1648459 69.6532937,77.7963421 71.3130223,77.7963421 C72.972751,77.7963421 74.6349108,77.1636303 75.897903,75.9006381 C77.1218446,74.6753289 77.7974057,73.0481172 77.7974057,71.3157574 C77.7974057,69.5846132 77.1218446,67.9560339 75.897903,66.7320923 Z" id="Path"></path>
                        <path d="M62.2379246,31.1203298 C62.2379246,13.9620512 48.2772409,0.00136753252 31.1189623,0.00136753252 C13.9606837,0.00136753252 0,13.9620512 0,31.1203298 C0,48.2786084 13.9606837,62.2392921 31.1189623,62.2392921 C48.2772409,62.2392921 62.2379246,48.2784565 62.2379246,31.1203298 Z M31.1189623,59.6459946 C15.3896032,59.6459946 2.59329751,46.8496889 2.59329751,31.1203298 C2.59329751,15.3909707 15.3896032,2.59451309 31.1189623,2.59451309 C46.8483213,2.59451309 59.644627,15.3908188 59.644627,31.1201779 C59.644627,46.8495369 46.8483213,59.6459946 31.1189623,59.6459946 Z" id="Shape"></path>
                        <path d="M31.1189623,5.1878106 C16.8197383,5.1878106 5.18644306,16.8211059 5.18644306,31.1203298 C5.18644306,45.4195538 16.8197383,57.0526971 31.1189623,57.0526971 C45.4181862,57.0526971 57.0514815,45.4194018 57.0514815,31.1201779 C57.0514815,16.8209539 45.4181862,5.1878106 31.1189623,5.1878106 Z M31.1189623,54.4595515 C18.2500254,54.4595515 7.77974057,43.9892667 7.77974057,31.1203298 C7.77974057,18.2513929 18.2500254,7.7811081 31.1189623,7.7811081 C43.9878992,7.7811081 54.458184,18.2513929 54.458184,31.1203298 C54.458184,43.9892667 43.9878992,54.4595515 31.1189623,54.4595515 Z" id="Shape"></path>
                        <path d="M45.3818706,33.7134754 L29.8223895,33.7134754 C29.1053466,33.7134754 28.5258167,34.2943728 28.5258167,35.0100481 C28.5258167,35.7257235 29.1053466,36.3066209 29.8223895,36.3066209 L45.3818706,36.3066209 C46.0989135,36.3066209 46.6784434,35.7257235 46.6784434,35.0100481 C46.6784434,34.2943728 46.0989135,33.7134754 45.3818706,33.7134754 Z" id="Path"></path>
                        <path d="M45.3818706,25.9337348 L40.1954276,25.9337348 C39.4783847,25.9337348 38.8988548,26.5146322 38.8988548,27.2303076 C38.8988548,27.9459829 39.4783847,28.5268804 40.1954276,28.5268804 L45.3818706,28.5268804 C46.0989135,28.5268804 46.6784434,27.9459829 46.6784434,27.2303076 C46.6784434,26.5146322 46.0989135,25.9337348 45.3818706,25.9337348 Z" id="Path"></path>
                    </g>
                </g>
            </g>
        </g>
    </g>
</svg>