<svg width="163" height="48" viewBox="0 0 163 48" fill="none" xmlns="http://www.w3.org/2000/svg">
<path d="M45.0508 14.0132H52.6729C57.5322 14.0132 61.5465 16.8248 61.5465 23.2443V24.5932C61.5465 31.0615 57.7923 33.9706 52.8192 33.9706H45.0508V14.0132ZM49.3088 17.6374V30.3301H52.5754C55.3382 30.3301 57.191 28.5262 57.191 24.5119V23.4556C57.191 19.4414 55.2407 17.6374 52.4291 17.6374H49.3088ZM63.8055 17.8324H67.2184L67.7709 21.5866C68.421 19.0351 70.0787 17.6699 73.0853 17.6699H74.1417V21.9767H72.3865C68.9248 21.9767 68.0797 23.1793 68.0797 26.5922V34.0193H63.8705V17.8324H63.8055ZM74.9868 26.2509V25.7958C74.9868 20.384 78.4484 17.4261 83.1615 17.4261C87.9721 17.4261 91.3362 20.384 91.3362 25.7958V26.2509C91.3362 31.5653 88.0696 34.4256 83.1615 34.4256C77.9446 34.3769 74.9868 31.5815 74.9868 26.2509ZM87.0294 26.2021V25.7958C87.0294 22.7892 85.518 20.9853 83.1127 20.9853C80.7562 20.9853 79.196 22.643 79.196 25.7958V26.2021C79.196 29.1112 80.7075 30.7689 83.1127 30.7689C85.518 30.7202 87.0294 29.1112 87.0294 26.2021ZM93.5465 17.8324H97.0569L97.4632 20.8878C98.3083 18.84 100.112 17.4261 102.778 17.4261C106.889 17.4261 109.603 20.384 109.603 25.8609V26.3159C109.603 31.6303 106.597 34.4419 102.778 34.4419C100.226 34.4419 98.4708 33.288 97.6094 31.4353V39.61H93.4977L93.5465 17.8324ZM105.329 26.2021V25.8446C105.329 22.6267 103.671 21.034 101.461 21.034C99.1046 21.034 97.5444 22.838 97.5444 25.8446V26.1534C97.5444 29.0137 99.0559 30.8177 101.412 30.8177C103.834 30.7689 105.329 29.225 105.329 26.2021ZM115.828 31.029L115.47 33.9868H111.862V12.4205H115.974V20.6928C116.884 18.58 118.688 17.4261 121.24 17.4261C125.108 17.4749 127.968 20.1402 127.968 25.5033V26.0071C127.968 31.3703 125.254 34.4419 121.142 34.4419C118.428 34.3769 116.673 33.1255 115.828 31.029ZM123.645 26.0071V25.6008C123.645 22.643 122.036 20.9853 119.777 20.9853C117.469 20.9853 115.86 22.838 115.86 25.6496V26.0071C115.86 29.0137 117.421 30.7689 119.728 30.7689C122.199 30.7689 123.645 29.225 123.645 26.0071ZM129.772 26.2509V25.7958C129.772 20.384 133.234 17.4261 137.947 17.4261C142.757 17.4261 146.121 20.384 146.121 25.7958V26.2509C146.121 31.5653 142.806 34.4256 137.947 34.4256C132.73 34.3769 129.772 31.5815 129.772 26.2509ZM141.847 26.2021V25.7958C141.847 22.7892 140.336 20.9853 137.93 20.9853C135.574 20.9853 134.014 22.643 134.014 25.7958V26.2021C134.014 29.1112 135.525 30.7689 137.93 30.7689C140.352 30.7202 141.847 29.1112 141.847 26.2021ZM151.631 25.6008L145.959 17.8324H150.818L154.085 22.6917L157.4 17.8324H162.211L156.458 25.5521L162.52 33.9868H157.758L154.052 28.6237L150.444 33.9868H145.471L151.631 25.6008Z" fill="#0E1320"/>
<path d="M18.8522 14.0132L9.42611 20.0264L18.8522 26.0396L9.42611 32.0528L0 26.0071L9.42611 19.9939L0 14.0132L9.42611 8L18.8522 14.0132ZM9.37735 33.9868L18.8035 27.9736L28.2296 33.9868L18.8035 40L9.37735 33.9868ZM18.8522 26.0071L28.2783 19.9939L18.8522 14.0132L28.2296 8L37.6557 14.0132L28.2296 20.0264L37.6557 26.0396L28.2296 32.0528L18.8522 26.0071Z" fill="#0E1320"/>
</svg>
