<svg width="121" height="48" viewBox="0 0 121 48" fill="none" xmlns="http://www.w3.org/2000/svg">
<path d="M37.9263 32.4262L39.3944 28.9948C41.0019 30.1852 43.0985 30.8153 45.1957 30.8153C46.7335 30.8153 47.7119 30.2203 47.7119 29.3101C47.6768 26.7888 38.4506 28.7497 38.3804 22.4111C38.3453 19.1896 41.2114 16.7035 45.2659 16.7035C47.6768 16.7035 50.0887 17.299 51.801 18.6648L50.4291 22.1695C48.8537 21.1565 46.9079 20.4502 45.0558 20.4502C43.7977 20.4502 42.9587 21.0452 42.9587 21.8161C42.9938 24.3022 52.2907 22.9364 52.3954 28.9948C52.3954 32.2864 49.599 34.5976 45.6147 34.5976C42.6795 34.5976 39.9884 33.8974 37.9258 32.4262H37.9263ZM96.3843 27.7522C96.0137 28.4107 95.4747 28.9587 94.8224 29.3401C94.1702 29.7215 93.4282 29.9225 92.6727 29.9226C90.3179 29.9226 88.4092 28.0099 88.4092 25.6505C88.4092 23.2912 90.3179 21.3785 92.6727 21.3785C93.4282 21.3786 94.1702 21.5796 94.8224 21.961C95.4747 22.3424 96.0137 22.8904 96.3843 23.5489L100.466 21.2833C98.9371 18.551 96.0209 16.7035 92.6727 16.7035C87.741 16.7035 83.7432 20.7089 83.7432 25.6505C83.7432 30.5917 87.741 34.5976 92.6727 34.5976C96.0209 34.5976 98.9371 32.75 100.466 30.0178L96.3843 27.7522ZM55.044 34.2472H60.1465V9.25565H55.0445L55.044 34.2472ZM103.043 9.25565V34.2472H108.145V26.7598L114.192 34.2472H120.714L113.025 25.3523L120.154 17.0524H113.912L108.145 23.9529V9.25565H103.043ZM75.8668 17.0534V19.0849C75.0282 17.6839 72.9661 16.7035 70.7993 16.7035C66.3258 16.7035 62.7961 20.6607 62.7961 25.633C62.7961 30.6052 66.3258 34.5976 70.7993 34.5976C72.9661 34.5976 75.0282 33.6172 75.8668 32.2162V34.2472H80.9693V17.0534H75.8668ZM75.8668 27.7868C75.133 29.0123 73.5952 29.9221 71.8829 29.9221C69.5276 29.9221 67.6189 28.0099 67.6189 25.6505C67.6189 23.2912 69.5276 21.3785 71.8829 21.3785C73.5952 21.3785 75.133 22.3238 75.8668 23.584V27.7868Z" fill="#0E1320"/>
<path d="M10.978 8.70361C9.32448 8.70361 7.98417 10.0469 7.98417 11.7035C7.98378 12.0971 8.0609 12.4868 8.21115 12.8506C8.36139 13.2143 8.58181 13.5449 8.85981 13.8235C9.13782 14.1021 9.46797 14.3231 9.83142 14.4741C10.1949 14.6251 10.5845 14.703 10.978 14.7034H13.9724V11.7035C13.9731 10.9086 13.658 10.1461 13.0965 9.58348C12.5349 9.0209 11.7729 8.70441 10.978 8.70361ZM10.978 16.7033H2.99388C1.3403 16.7033 0 18.0466 0 19.7037C0 21.3603 1.3403 22.7036 2.99388 22.7036H10.9785C12.6316 22.7036 13.9724 21.3603 13.9724 19.7037C13.9724 18.0466 12.6316 16.7033 10.978 16.7033Z" fill="#0E1320"/>
<path d="M29.9412 19.7037C29.9412 18.0466 28.6004 16.7033 26.9468 16.7033C25.2932 16.7033 23.9529 18.0466 23.9529 19.7037V22.7036H26.9468C27.7417 22.7028 28.5037 22.3863 29.0652 21.8237C29.6268 21.2612 29.9418 20.4986 29.9412 19.7037ZM21.957 19.7037V11.7035C21.9577 10.9086 21.6426 10.1461 21.081 9.58348C20.5195 9.0209 19.7575 8.70441 18.9626 8.70361C17.3091 8.70361 15.9688 10.0469 15.9688 11.7035V19.7032C15.9688 21.3608 17.3091 22.7041 18.9626 22.7041C19.7575 22.7033 20.5195 22.3868 21.081 21.8242C21.6426 21.2617 21.9577 20.4991 21.957 19.7042" fill="#0E1320"/>
<path d="M18.9626 38.7036C19.7575 38.7028 20.5195 38.3863 21.081 37.8237C21.6426 37.2612 21.9577 36.4986 21.957 35.7037C21.9577 34.9088 21.6426 34.1463 21.081 33.5837C20.5195 33.0211 19.7575 32.7046 18.9626 32.7038H15.9688V35.7037C15.9688 37.3603 17.3091 38.7036 18.9626 38.7036ZM18.9626 30.7039H26.9473C28.6004 30.7039 29.9412 29.3606 29.9412 27.7035C29.9418 26.9086 29.6268 26.1461 29.0652 25.5835C28.5037 25.0209 27.7417 24.7044 26.9468 24.7036H18.9626C17.3091 24.7036 15.9688 26.0469 15.9688 27.7035C15.9684 28.0971 16.0455 28.4868 16.1957 28.8506C16.346 29.2143 16.5664 29.5449 16.8444 29.8235C17.1224 30.1021 17.4526 30.3231 17.816 30.4741C18.1794 30.6251 18.5691 30.703 18.9626 30.7034" fill="#0E1320"/>
<path d="M1.51064e-06 27.7035C-0.000393626 28.0971 0.0767319 28.4868 0.226974 28.8506C0.377217 29.2143 0.597634 29.5449 0.875642 29.8235C1.15365 30.1021 1.4838 30.3231 1.84725 30.4741C2.2107 30.6251 2.60032 30.703 2.99388 30.7034C3.78875 30.7026 4.55075 30.3861 5.11229 29.8235C5.67383 29.261 5.98892 28.4984 5.98826 27.7035V24.7036H2.99388C1.3403 24.7036 1.51064e-06 26.0469 1.51064e-06 27.7035ZM7.98417 27.7035V35.7032C7.98417 37.3603 9.32448 38.7036 10.9781 38.7036C11.7729 38.7028 12.5349 38.3863 13.0965 37.8237C13.658 37.2612 13.9731 36.4986 13.9724 35.7037V27.7035C13.9728 27.3099 13.8957 26.9201 13.7454 26.5563C13.5951 26.1925 13.3747 25.8619 13.0966 25.5833C12.8186 25.3048 12.4883 25.0837 12.1248 24.9327C11.7613 24.7818 11.3716 24.7039 10.9781 24.7036C9.32448 24.7036 7.98417 26.0469 7.98417 27.7035Z" fill="#0E1320"/>
</svg>
