<?xml version="1.0" encoding="UTF-8"?>
<svg width="6px" height="10px" viewBox="0 0 6 10" version="1.1" xmlns="http://www.w3.org/2000/svg" xmlns:xlink="http://www.w3.org/1999/xlink">
    <title>Chevron</title>
    <g id="App" stroke="none" stroke-width="1" fill="none" fill-rule="evenodd">
        <g id="TokyoMate-App---Settings---Mail-Settings" transform="translate(-532.000000, -173.000000)" fill="#E16259" fill-rule="nonzero">
            <g id="Cells-/-Subcell" transform="translate(363.000000, 154.000000)">
                <g id="Chevron" transform="translate(160.000000, 12.000000)">
                    <path d="M7.29289322,9.29289322 C7.65337718,8.93240926 8.22060824,8.90467972 8.61289944,9.20970461 L8.70710678,9.29289322 L12,12.585 L15.2928932,9.29289322 C15.6533772,8.93240926 16.2206082,8.90467972 16.6128994,9.20970461 L16.7071068,9.29289322 C17.0675907,9.65337718 17.0953203,10.2206082 16.7902954,10.6128994 L16.7071068,10.7071068 L12.7071068,14.7071068 C12.3466228,15.0675907 11.7793918,15.0953203 11.3871006,14.7902954 L11.2928932,14.7071068 L7.29289322,10.7071068 C6.90236893,10.3165825 6.90236893,9.68341751 7.29289322,9.29289322 Z" id="Path" transform="translate(12.000000, 12.000000) rotate(-90.000000) translate(-12.000000, -12.000000) "></path>
                </g>
            </g>
        </g>
    </g>
</svg>