<?xml version="1.0" encoding="UTF-8"?>
<svg width="18px" height="20px" viewBox="0 0 18 20" version="1.1" xmlns="http://www.w3.org/2000/svg" xmlns:xlink="http://www.w3.org/1999/xlink">
    <title>Icon</title>
    <g id="App" stroke="none" stroke-width="1" fill="none" fill-rule="evenodd">
        <g id="TokyoMate-App---Settings---Mail-Settings" transform="translate(-1097.000000, -137.000000)">
            <g id="Group-4" transform="translate(564.000000, 105.000000)">
                <g id="Buttons-/-Icon-Button-/-Small" transform="translate(524.000000, 24.000000)">
                    <g id="Group" transform="translate(6.000000, 6.000000)">
                        <polygon id="Path" points="0 0 24 0 24 24 0 24"></polygon>
                        <path d="M16.137,2.25 C16.6982921,2.25 17.2386714,2.45074823 17.6625013,2.81226484 L17.7993301,2.93866991 L20.0613301,5.20066991 C20.4580794,5.59741925 20.6985026,6.12134422 20.7426197,6.67680836 L20.75,6.863 L20.75,15.4 C20.75,16.6441213 19.7840364,17.6619233 18.560935,17.7445802 L18.4,17.75 L15.75,17.75 L15.75,19.4 C15.75,20.6441213 14.7840364,21.6619233 13.560935,21.7445802 L13.4,21.75 L5.6,21.75 C4.30178644,21.75 3.25,20.6982136 3.25,19.4 L3.25,19.4 L3.25,8.6 C3.25,7.30178644 4.30178644,6.25 5.6,6.25 L5.6,6.25 L8.25,6.25 L8.25,4.6 C8.25,3.35587867 9.21596359,2.33807669 10.439065,2.2554198 L10.6,2.25 L16.137,2.25 Z M10.25,7.75 L5.6,7.75 C5.13021356,7.75 4.75,8.13021356 4.75,8.6 L4.75,8.6 L4.75,19.4 C4.75,19.8697864 5.13021356,20.25 5.6,20.25 L5.6,20.25 L13.4,20.25 C13.8697864,20.25 14.25,19.8697864 14.25,19.4 L14.25,19.4 L14.25,11.75 L11.8,11.75 C10.9913539,11.75 10.3275887,11.1311596 10.2563328,10.3411072 L10.25,10.2 L10.25,7.75 Z M15.25,3.75 L10.6,3.75 C10.166351,3.75 9.80902441,4.07396895 9.75661706,4.49331009 L9.75,4.6 L9.75,6.25 L11.137,6.25 C11.6982921,6.25 12.2386714,6.45074823 12.6625013,6.81226484 L12.7993301,6.93866991 L15.0613301,9.20066991 C15.5021627,9.64150251 15.75,10.2393421 15.75,10.863 L15.75,10.863 L15.75,16.25 L18.4,16.25 C18.833649,16.25 19.1909756,15.926031 19.2433829,15.5066899 L19.25,15.4 L19.25,7.75 L16.8,7.75 C15.9913539,7.75 15.3275887,7.13115963 15.2563328,6.34110719 L15.25,6.2 L15.25,3.75 Z M13.989,10.25 L11.75,8.011 L11.75,10.2 C11.75,10.2185243 11.7598727,10.2345718 11.7746875,10.2432118 L11.8,10.25 L13.989,10.25 Z M16.75,4.011 L16.75,6.2 C16.75,6.21852429 16.7598727,6.23457175 16.7746875,6.2432118 L16.8,6.25 L18.989,6.25 L16.75,4.011 Z" id="Combined-Shape" fill="#8792A2" fill-rule="nonzero"></path>
                    </g>
                </g>
            </g>
        </g>
    </g>
</svg>