<?xml version="1.0" encoding="UTF-8"?>
<svg width="20px" height="16px" viewBox="0 0 20 16" version="1.1" xmlns="http://www.w3.org/2000/svg" xmlns:xlink="http://www.w3.org/1999/xlink">
    <title>Combined Shape</title>
    <g id="App" stroke="none" stroke-width="1" fill="none" fill-rule="evenodd">
        <g id="TokyoMate-App---Mail---Unopened" transform="translate(-26.000000, -90.000000)" fill="#FFFFFF" fill-rule="nonzero">
            <g id="Mail" transform="translate(0.000000, 73.000000)">
                <g id="Group" transform="translate(24.000000, 13.000000)">
                    <path d="M19,4.269 C20.5192136,4.269 21.75,5.49978644 21.75,7.019 L21.75,7.019 L21.75,16.982 C21.75,18.5004262 20.5190009,19.731 19,19.731 L19,19.731 L5,19.731 C3.48078644,19.731 2.25,18.5002136 2.25,16.981 L2.25,16.981 L2.25,7.019 C2.25,5.49978644 3.48078644,4.269 5,4.269 L5,4.269 Z M19,5.769 L5,5.769 C4.30921356,5.769 3.75,6.32821356 3.75,7.019 L3.75,7.019 L3.75,16.981 C3.75,17.6717864 4.30921356,18.231 5,18.231 L5,18.231 L19,18.231 C19.6906898,18.231 20.25,17.671883 20.25,16.982 L20.25,16.982 L20.25,7.019 C20.25,6.32821356 19.6907864,5.769 19,5.769 L19,5.769 Z M17.6431197,8.61412818 C17.8384716,8.93971462 17.7579729,9.35395875 17.4696168,9.58488825 L17.3858718,9.64311969 L12.3858718,12.6431197 C12.1822903,12.7652686 11.9352088,12.7827185 11.7191987,12.6954692 L11.6141282,12.6431197 L6.61412818,9.64311969 C6.25894298,9.43000857 6.14376919,8.96931338 6.35688031,8.61412818 C6.55223217,8.28854175 6.95562342,8.16463156 7.29508173,8.31039071 L7.38587182,8.35688031 L12,11.125 L16.6141282,8.35688031 C16.9693134,8.14376919 17.4300086,8.25894298 17.6431197,8.61412818 Z" id="Combined-Shape"></path>
                </g>
            </g>
        </g>
    </g>
</svg>