<?xml version="1.0" encoding="UTF-8"?>
<svg width="20px" height="20px" viewBox="0 0 20 20" version="1.1" xmlns="http://www.w3.org/2000/svg" xmlns:xlink="http://www.w3.org/1999/xlink">
    <title>Combined Shape</title>
    <g id="App" stroke="none" stroke-width="1" fill="none" fill-rule="evenodd">
        <g id="TokyoMate-App---Mail---Unopened" transform="translate(-26.000000, -686.000000)" fill="#FFFFFF" fill-rule="nonzero">
            <g id="Settings" transform="translate(0.000000, 672.000000)">
                <g id="cog" transform="translate(24.000000, 12.000000)">
                    <path d="M12.5701894,2.21799407 C13.2915062,2.21625787 13.9398748,2.65627687 14.2056689,3.32775818 L14.2056689,3.32775818 L14.723442,4.6401836 C14.9636959,5.24770079 15.6296164,5.56824489 16.2544049,5.37686821 L16.2544049,5.37686821 L17.6058193,4.96304781 C18.2942116,4.75163797 19.0420147,4.98337257 19.4914799,5.546516 L19.4914799,5.546516 L20.206184,6.44314503 C20.6552228,7.00575386 20.7147742,7.78637439 20.3561683,8.41087327 L20.3561683,8.41087327 L19.6512961,9.63665082 C19.3262408,10.2023721 19.4905614,10.9223882 20.028703,11.2911497 L20.028703,11.2911497 L21.1947287,12.0894837 C21.7897259,12.4954818 22.0748816,13.2247649 21.9142209,13.9267812 L21.9142209,13.9267812 L21.6590987,15.0453161 C21.4984548,15.74726 20.9254754,16.2800565 20.214485,16.3883644 L20.214485,16.3883644 L18.816503,16.6023616 C18.1711135,16.7011713 17.7105067,17.2787306 17.7580153,17.9294738 L17.7580153,17.9294738 L17.8610003,19.3422683 C17.9134741,20.0594108 17.5228844,20.7352404 16.8754598,21.046704 L16.8754598,21.046704 L15.8391978,21.5458301 C15.1898793,21.858271 14.4171043,21.7427761 13.8880257,21.2538586 L13.8880257,21.2538586 L12.8492899,20.2941026 C12.3696459,19.8513543 11.6307289,19.8513543 11.1519743,20.2938586 L11.1519743,20.2938586 L10.112029,21.2547305 C9.5827186,21.7421153 8.80913066,21.8581535 8.16155969,21.5457134 L8.16155969,21.5457134 L7.12709096,21.0474875 C6.47889655,20.7347468 6.08759088,20.058269 6.13999031,19.3403969 L6.13999031,19.3403969 L6.24299079,17.9293903 C6.29049333,17.2787306 5.82988647,16.7011713 5.18451504,16.6023644 L5.18451504,16.6023644 L3.78705238,16.3884464 C3.07455088,16.2799081 2.50132579,15.7459246 2.34277907,15.0437812 L2.34277907,15.0437812 L2.08799213,13.9267125 C1.92705113,13.2252197 2.21202545,12.4964004 2.80608318,12.0892961 L2.80608318,12.0892961 L3.95925654,11.2991773 C4.50032115,10.9286793 4.66285639,10.2015479 4.33110326,9.63550574 L4.33110326,9.63550574 L3.60975843,8.40591734 C3.24456735,7.78212204 3.2991552,6.99903443 3.74767348,6.43184206 L3.74767348,6.43184206 L4.45840719,5.53291558 C4.90758641,4.96663516 5.65879815,4.73312357 6.34799177,4.9459898 L6.34799177,4.9459898 L7.75636327,5.37810389 C8.38301709,5.57072802 9.0516371,5.24742879 9.28903693,4.63706136 L9.28903693,4.63706136 L9.79416696,3.33872739 C10.0561369,2.6663379 10.7026649,2.22274922 11.4240347,2.22100257 L11.4240347,2.22100257 Z M12.5739653,3.71799372 L11.427816,3.7209978 C11.3235394,3.72125029 11.2299374,3.78547146 11.1919631,3.88293864 L11.1919631,3.88293864 L10.6869901,5.18086922 C10.1645446,6.52410401 8.69346252,7.2354194 7.31600823,6.8120102 L7.31600823,6.8120102 L5.90667084,6.3795985 C5.807744,6.34904388 5.69876731,6.38291891 5.63432652,6.46415794 L5.63432652,6.46415794 L4.92429121,7.36220259 C4.85909638,7.44464742 4.85122766,7.5575278 4.90389674,7.64749426 L4.90389674,7.64749426 L5.62505571,8.87676536 C6.35511806,10.1224085 5.99772053,11.7212922 4.80691682,12.5367039 L4.80691682,12.5367039 L3.65396944,13.3266679 C3.56804341,13.3855525 3.52693023,13.4906991 3.55022093,13.5922188 L3.55022093,13.5922188 L3.80558075,14.7118043 C3.8285181,14.813384 3.9107485,14.8899851 4.01348496,14.9056356 L4.01348496,14.9056356 L5.41150304,15.1196384 C6.83023278,15.336847 7.84349789,16.6073897 7.73900969,18.0386031 L7.73900969,18.0386031 L7.63600997,19.4495993 C7.62842497,19.5535138 7.68490718,19.6511586 7.77844031,19.6962866 L7.77844031,19.6962866 L8.81290904,20.1945125 C8.90599975,20.2394269 9.01856784,20.2225417 9.09502574,20.1521414 L9.09502574,20.1521414 L10.1339317,19.1922283 C11.1872711,18.2186457 12.8123541,18.2186457 13.8669743,19.1921414 L13.8669743,19.1921414 L14.906012,20.1521763 C14.9828195,20.2231535 15.0940271,20.239774 15.1885402,20.194296 L15.1885402,20.194296 L16.224858,19.695143 C16.3169975,19.6508164 16.3725354,19.5547202 16.3649847,19.4515262 L16.3649847,19.4515262 L16.2619908,18.0386097 C16.1575021,16.6073897 17.1707672,15.336847 18.589515,15.1196356 L18.589515,15.1196356 L19.9880524,14.9055536 C20.0905213,14.889944 20.1735444,14.8127433 20.1967791,14.7112188 L20.1967791,14.7112188 L20.4519013,13.5926839 C20.475137,13.4911538 20.4342053,13.3864713 20.348297,13.3278503 L20.348297,13.3278503 L19.1810493,12.5286807 C17.9973285,11.7175363 17.6358257,10.1335121 18.3508317,8.88912673 L18.3508317,8.88912673 L19.0556039,7.66352324 C19.1073144,7.5734712 19.0986662,7.46010699 19.0335201,7.378484 L19.0335201,7.378484 L18.318816,6.48185497 C18.2535948,6.40013813 18.1451915,6.36654534 18.0455951,6.39713179 L18.0455951,6.39713179 L16.6936563,6.81111305 C15.3208368,7.2316163 13.8564784,6.5267401 13.3283311,5.19124182 L13.3283311,5.19124182 L12.810645,3.87903634 C12.7720068,3.78142404 12.6781726,3.71774291 12.5739653,3.71799372 L12.5739653,3.71799372 Z M14.4463301,9.55366991 C15.7972233,10.9045631 15.7972233,13.0954369 14.4463301,14.4463301 C13.0954369,15.7972233 10.9045631,15.7972233 9.55366991,14.4463301 C8.2027767,13.0954369 8.2027767,10.9045631 9.55366991,9.55366991 C10.9045631,8.2027767 13.0954369,8.2027767 14.4463301,9.55366991 Z M10.6143301,10.6143301 C9.8492233,11.3794369 9.8492233,12.6205631 10.6143301,13.3856699 C11.3794369,14.1507767 12.6205631,14.1507767 13.3856699,13.3856699 C14.1105079,12.6608319 14.1486573,11.5087631 13.500118,10.7389535 L13.3856699,10.6143301 L13.2610465,10.499882 C12.4912369,9.85134271 11.3391681,9.88949208 10.6143301,10.6143301 Z" id="Combined-Shape"></path>
                </g>
            </g>
        </g>
    </g>
</svg>