<?xml version="1.0" encoding="UTF-8"?>
<svg width="22px" height="20px" viewBox="0 0 22 20" version="1.1" xmlns="http://www.w3.org/2000/svg" xmlns:xlink="http://www.w3.org/1999/xlink">
    <title>Combined Shape</title>
    <g id="App" stroke="none" stroke-width="1" fill="none" fill-rule="evenodd">
        <g id="TokyoMate-App---Mail---Unopened" transform="translate(-25.000000, -216.000000)" fill="#FFFFFF" fill-rule="nonzero">
            <g id="Transactions" transform="translate(0.000000, 201.000000)">
                <g id="icon-transactions" transform="translate(24.000000, 13.000000)">
                    <path d="M19,2.25 C20.4629464,2.25 21.658435,3.39130539 21.7449829,4.83243331 L21.75,5 L21.7506835,12.7594104 C22.3812392,13.682171 22.75,14.7980572 22.75,15.9999987 C22.75,19.1016857 20.2942256,21.6299311 17.2205726,21.7458465 L17,21.7499974 L16.7794629,21.7458473 C13.9581891,21.6394554 11.6568233,19.5004158 11.2984977,16.7510421 L4,16.75 C2.53705361,16.75 1.34156501,15.6086946 1.25501709,14.1675667 L1.25,14 L1.25,5 C1.25,3.53705361 2.39130539,2.34156501 3.83243331,2.25501709 L4,2.25 L19,2.25 Z M17.0044458,11.7499974 C14.7138062,11.748306 12.75,13.7104995 12.75,16.001 C12.75,18.2785329 14.5426825,20.1377057 16.7940991,20.2450986 L17,20.249 L17.2059336,20.2450976 C19.3894541,20.1409373 21.1409532,18.3892123 21.2450996,16.2059105 L21.25,15.9999987 C21.25,13.6540428 19.3494966,11.7516995 17.0044458,11.7499974 Z M16.9462117,13.6290518 L17.0303301,13.7016699 L18.7983301,15.4696699 C19.0645966,15.7359365 19.0888027,16.1526002 18.8709482,16.4462117 L18.7983301,16.5303301 L17.0303301,18.2983301 C16.7374369,18.5912233 16.2625631,18.5912233 15.9696699,18.2983301 C15.7034034,18.0320635 15.6791973,17.6153998 15.8970518,17.3217883 L15.9696699,17.2376699 L17.207,16 L15.9696699,14.7623301 C15.7034034,14.4960635 15.6791973,14.0793998 15.8970518,13.7857883 L15.9696699,13.7016699 C16.2359365,13.4354034 16.6526002,13.4111973 16.9462117,13.6290518 Z M20.25,7.599 L2.75,7.599 L2.75,14 C2.75,14.6476123 3.2414963,15.1795843 3.87212382,15.2435511 L4,15.25 L11.3011643,15.2505981 C11.6820373,12.4705666 14.1398203,10.2478813 17.005544,10.2499974 C18.2098203,10.2508715 19.3274155,10.6221429 20.2506626,11.2560396 L20.25,7.599 Z M19,3.75 L4,3.75 C3.35238771,3.75 2.82041565,4.2414963 2.75644888,4.87212382 L2.75,5 L2.75,6.099 L20.25,6.099 L20.25,5 C20.25,4.35238771 19.7585037,3.82041565 19.1278762,3.75644888 L19,3.75 Z" id="Combined-Shape"></path>
                </g>
            </g>
        </g>
    </g>
</svg>