<?xml version="1.0" encoding="UTF-8"?>
<svg width="22px" height="12px" viewBox="0 0 22 12" version="1.1" xmlns="http://www.w3.org/2000/svg" xmlns:xlink="http://www.w3.org/1999/xlink">
    <title>Icons / Calendar / Outlined</title>
    <g id="App" stroke="none" stroke-width="1" fill="none" fill-rule="evenodd">
        <g id="TokyoMate-App---Assistant" transform="translate(-492.000000, -640.000000)" fill-rule="nonzero">
            <g id="Group-9" transform="translate(464.000000, 559.000000)">
                <g id="Taks" transform="translate(0.000000, 40.000000)">
                    <g id="Icon" transform="translate(27.000000, 35.000000)">
                        <rect id="Path" x="0" y="0" width="24" height="24"></rect>
                        <path d="M6,15.5857864 L15.2928932,6.29289322 C15.6834175,5.90236893 16.3165825,5.90236893 16.7071068,6.29289322 C17.0976311,6.68341751 17.0976311,7.31658249 16.7071068,7.70710678 L6.70710678,17.7071068 C6.31658249,18.0976311 5.68341751,18.0976311 5.29289322,17.7071068 L1.29289322,13.7071068 C0.902368927,13.3165825 0.902368927,12.6834175 1.29289322,12.2928932 C1.68341751,11.9023689 2.31658249,11.9023689 2.70710678,12.2928932 L6,15.5857864 Z M12.7071068,17.7071068 C12.3165825,18.0976311 11.6834175,18.0976311 11.2928932,17.7071068 C10.9023689,17.3165825 10.9023689,16.6834175 11.2928932,16.2928932 L21.2928932,6.29289322 C21.6834175,5.90236893 22.3165825,5.90236893 22.7071068,6.29289322 C23.0976311,6.68341751 23.0976311,7.31658249 22.7071068,7.70710678 L12.7071068,17.7071068 Z" id="Shape" fill="#A3ACB9"></path>
                    </g>
                </g>
            </g>
        </g>
    </g>
</svg>