<?xml version="1.0" encoding="UTF-8"?>
<svg width="20px" height="21px" viewBox="0 0 20 21" version="1.1" xmlns="http://www.w3.org/2000/svg" xmlns:xlink="http://www.w3.org/1999/xlink">
    <title>Combined Shape</title>
    <g id="App" stroke="none" stroke-width="1" fill="none" fill-rule="evenodd">
        <g id="TokyoMate-App---Assistant" transform="translate(-493.000000, -351.000000)" fill="#000000" fill-rule="nonzero">
            <g id="Group-10" transform="translate(464.000000, 275.000000)">
                <g id="Group-6" transform="translate(0.000000, 40.000000)">
                    <g id="Icons-/-Calendar-/-Outlined" transform="translate(27.000000, 35.000000)">
                        <path d="M16,1.25 C16.3796958,1.25 16.693491,1.53215388 16.7431534,1.89822944 L16.75,2 L16.75,3.25 L19,3.25 C20.4629464,3.25 21.658435,4.39130539 21.7449829,5.83243331 L21.75,6 L21.75,19 C21.75,20.5192136 20.5192136,21.75 19,21.75 L19,21.75 L5,21.75 C3.48078644,21.75 2.25,20.5192136 2.25,19 L2.25,19 L2.25,6 C2.25,4.48078644 3.48078644,3.25 5,3.25 L5,3.25 L7.25,3.25 L7.25,2 C7.25,1.58578644 7.58578644,1.25 8,1.25 C8.37969577,1.25 8.69349096,1.53215388 8.74315338,1.89822944 L8.75,2 L8.75,3.25 L15.25,3.25 L15.25,2 C15.25,1.58578644 15.5857864,1.25 16,1.25 Z M20.25,9.75 L3.75,9.75 L3.75,19 C3.75,19.6476123 4.2414963,20.1795843 4.87212382,20.2435511 L5,20.25 L19,20.25 C19.6907864,20.25 20.25,19.6907864 20.25,19 L20.25,19 L20.25,9.75 Z M19,4.75 L16.75,4.75 L16.75,6 C16.75,6.41421356 16.4142136,6.75 16,6.75 C15.6203042,6.75 15.306509,6.46784612 15.2568466,6.10177056 L15.25,6 L15.25,4.75 L8.75,4.75 L8.75,6 C8.75,6.41421356 8.41421356,6.75 8,6.75 C7.62030423,6.75 7.30650904,6.46784612 7.25684662,6.10177056 L7.25,6 L7.25,4.75 L5,4.75 C4.35238771,4.75 3.82041565,5.2414963 3.75644888,5.87212382 L3.75,6 L3.75,8.25 L20.25,8.25 L20.25,6 C20.25,5.35238771 19.7585037,4.82041565 19.1278762,4.75644888 L19,4.75 Z" id="Combined-Shape"></path>
                    </g>
                </g>
            </g>
        </g>
    </g>
</svg>