<?xml version="1.0" encoding="UTF-8"?>
<svg width="24px" height="19px" viewBox="0 0 24 19" version="1.1" xmlns="http://www.w3.org/2000/svg" xmlns:xlink="http://www.w3.org/1999/xlink">
    <title>Combined Shape</title>
    <g id="App" stroke="none" stroke-width="1" fill="none" fill-rule="evenodd">
        <g id="TokyoMate-App---Mail---Unopened" transform="translate(-24.000000, -153.000000)" fill="#FFFFFF" fill-rule="nonzero">
            <g id="Assistant" transform="translate(0.000000, 137.000000)">
                <g id="icon-assistant" transform="translate(24.000000, 13.000000)">
                    <path d="M8.238,16.631 C10.6512136,16.631 12.607,18.5867864 12.607,21 C12.607,21.4142136 12.2712136,21.75 11.857,21.75 C11.4427864,21.75 11.107,21.4142136 11.107,21 C11.107,19.4718131 9.91287795,18.2231129 8.40660359,18.1358693 L8.238,18.131 L4.619,18.131 C3.03421356,18.131 1.75,19.4152136 1.75,21 C1.75,21.4142136 1.41421356,21.75 1,21.75 C0.585786438,21.75 0.25,21.4142136 0.25,21 C0.25,18.6577633 2.09243203,16.746442 4.40729461,16.6360374 L4.619,16.631 L8.238,16.631 Z M9.19874009,8.73025991 C10.7284233,10.2599431 10.7284233,12.7400469 9.19874009,14.2697301 C7.66905687,15.7994133 5.18895313,15.7994133 3.65926991,14.2697301 C2.1295867,12.7400469 2.1295867,10.2599431 3.65926991,8.73025991 C5.18895313,7.2005767 7.66905687,7.2005767 9.19874009,8.73025991 Z M18.096,3.25 C21.2188919,3.25 23.75,5.78146468 23.75,8.904 C23.75,11.9887376 21.2786269,14.4971369 18.2081692,14.5569091 C18.1729562,14.5604241 18.1372789,14.563 18.101,14.563 C17.3730005,14.563 16.6636653,14.4249708 16.0014934,14.1605303 L15.958,14.141 L13.1738185,14.7336352 C12.6770567,14.8391436 12.2322412,14.4334445 12.2697524,13.9453847 L12.2838132,13.8468016 L12.866,11.054 L12.8471388,11.0106602 C12.619017,10.4413721 12.4843081,9.83680734 12.4504754,9.21579162 L12.442354,8.92726549 C12.4421186,8.91953916 12.442,8.91178342 12.442,8.904 C12.442,5.78146468 14.9731081,3.25 18.096,3.25 Z M4.71993009,9.79092009 C3.7760333,10.7348169 3.7760333,12.2651731 4.71993009,13.2090699 C5.66382687,14.1529667 7.19418313,14.1529667 8.13807991,13.2090699 C9.0390723,12.3080775 9.0800265,10.8727285 8.26094251,9.92315821 L8.13807991,9.79092009 L8.00584179,9.66805749 C7.05627153,8.8489735 5.62092247,8.8899277 4.71993009,9.79092009 Z M18.096,4.75 C15.8056132,4.75 13.9485348,6.60331589 13.9420172,8.89191362 C13.9419621,8.89521019 13.942,8.89960067 13.942,8.904 C13.942,9.51877858 14.0752515,10.1140116 14.3290504,10.6597226 C14.3801751,10.7696493 14.4036373,10.8897579 14.3982435,11.0096979 L14.3831868,11.1291984 L13.987,13.027 L15.8801815,12.6253648 C15.9991782,12.6000908 16.1219148,12.6042608 16.2379329,12.636695 L16.351324,12.678507 C16.87722,12.9221944 17.4481872,13.0539193 18.0389214,13.062547 L18.096,13.058 L18.096,13.058 C20.3897864,13.058 22.25,11.1977864 22.25,8.904 C22.25,6.60984451 20.3904174,4.75 18.096,4.75 Z M16.2540038,8.35685055 L16.3437301,8.43430991 C16.6277477,8.71832757 16.6535675,9.16276887 16.4211894,9.47595446 L16.3437301,9.56568079 C16.0313107,9.8781002 15.5247786,9.8781002 15.2123592,9.56568079 C14.8999398,9.25326137 14.8999398,8.74672933 15.2123592,8.43430991 C15.4963769,8.15029226 15.9408182,8.12447247 16.2540038,8.35685055 Z M18.5040038,8.35685055 L18.5937301,8.43430991 C18.8777477,8.71832757 18.9035675,9.16276887 18.6711894,9.47595446 L18.5937301,9.56568079 C18.2813107,9.8781002 17.7747786,9.8781002 17.4623592,9.56568079 C17.1499398,9.25326137 17.1499398,8.74672933 17.4623592,8.43430991 C17.7463769,8.15029226 18.1908182,8.12447247 18.5040038,8.35685055 Z M20.7540038,8.35685055 L20.8437301,8.43430991 C21.1277477,8.71832757 21.1535675,9.16276887 20.9211894,9.47595446 L20.8437301,9.56568079 C20.5313107,9.8781002 20.0247786,9.8781002 19.7123592,9.56568079 C19.3999398,9.25326137 19.3999398,8.74672933 19.7123592,8.43430991 C19.9963769,8.15029226 20.4408182,8.12447247 20.7540038,8.35685055 Z" id="Combined-Shape"></path>
                </g>
            </g>
        </g>
    </g>
</svg>