<?xml version="1.0" encoding="UTF-8"?>
<svg width="24px" height="22px" viewBox="0 0 24 22" version="1.1" xmlns="http://www.w3.org/2000/svg" xmlns:xlink="http://www.w3.org/1999/xlink">
    <title>icon-receptionist</title>
    <g id="Page-1" stroke="none" stroke-width="1" fill="none" fill-rule="evenodd">
        <g id="icon-receptionist" fill="#000000" fill-rule="nonzero">
            <path d="M21.890625,5.62467187 L20.4407344,5.62467187 C19.9658906,4.495125 19.2585469,3.4535625 18.362625,2.58510938 C16.9544062,1.2200625 15.1312031,0.330609375 13.2289687,0.080578125 C10.0768125,-0.33375 6.98732812,0.873515625 4.96485937,3.30998437 C4.38445312,4.00921875 3.91214062,4.79170313 3.56348437,5.62467187 L2.109375,5.62467187 C0.946265625,5.62467187 -1.33226763e-15,6.5709375 -1.33226763e-15,7.73404688 L-1.33226763e-15,10.5465469 C-1.33226763e-15,11.7096563 0.946265625,12.6559219 2.109375,12.6559219 L4.98984375,12.6559219 L4.688625,11.7343594 C3.81084375,9.04875 4.3059375,6.30557812 6.04692187,4.20815625 C7.75889062,2.14565625 10.3753594,1.123875 13.0456875,1.47482812 C16.3904531,1.91446875 19.09875,4.54125 19.631625,7.86271875 C19.9952813,10.1291719 19.360875,12.4193906 17.8910156,14.1462656 C16.4177813,15.8770781 14.2745625,16.8715313 12.0108281,16.8746719 C10.8417656,16.8762656 9.89067188,17.8225781 9.89067188,18.9840469 C9.89067188,20.1471563 10.8369375,21.0934219 12.0000469,21.0934219 C13.1631562,21.0934219 14.1094219,20.1471563 14.1094219,18.9840469 L14.1094219,18.034125 C15.9825,17.5892813 17.6853281,16.5575625 18.9619219,15.0577031 C19.5819844,14.3292656 20.0757188,13.5243281 20.4377813,12.655875 L21.890625,12.655875 C23.0537344,12.655875 24,11.7096094 24,10.5465 L24,7.734 C24,6.5709375 23.0537344,5.62467188 21.890625,5.62467187 Z M3.09679688,11.2496719 L2.109375,11.2496719 C1.72167188,11.2496719 1.40625,10.93425 1.40625,10.5465469 L1.40625,7.73404687 C1.40625,7.34634375 1.72167188,7.03092187 2.109375,7.03092187 L3.1051875,7.03092187 C3.08015625,7.13629687 3.057,7.24223437 3.0358125,7.34845312 C2.77917187,8.63432812 2.80003125,9.94279687 3.09679688,11.2496719 Z M12.703125,18.9840469 C12.703125,19.37175 12.3877031,19.6871719 12,19.6871719 C11.6122969,19.6871719 11.296875,19.37175 11.296875,18.9840469 C11.296875,18.5968594 11.6180156,18.2814375 12.0127031,18.2809219 C12.2439844,18.2805937 12.4744219,18.2715 12.703125,18.2539219 L12.703125,18.9840469 Z M22.59375,10.5465469 C22.59375,10.93425 22.2783281,11.2496719 21.890625,11.2496719 L20.8943437,11.2496719 C21.1735312,10.0754531 21.216375,8.86340625 21.0201094,7.63992187 C20.9873438,7.43564062 20.9466562,7.23253125 20.8991719,7.03092187 L21.890625,7.03092187 C22.2783281,7.03092187 22.59375,7.34634375 22.59375,7.73404687 L22.59375,10.5465469 Z" id="Shape"></path>
            <polygon id="Path" points="8.484375 8.43717187 9.890625 8.43717187 9.890625 9.84342187 8.484375 9.84342187"></polygon>
            <polygon id="Path" points="11.296875 8.43717187 12.703125 8.43717187 12.703125 9.84342187 11.296875 9.84342187"></polygon>
            <polygon id="Path" points="14.109375 8.43717187 15.515625 8.43717187 15.515625 9.84342187 14.109375 9.84342187"></polygon>
            <path d="M5.671875,14.0621719 L5.671875,15.4684219 L12,15.4684219 C15.4893281,15.4684219 18.328125,12.629625 18.328125,9.14029688 C18.328125,5.65096875 15.4893281,2.81217187 12,2.81217187 C8.51067187,2.81217187 5.671875,5.65096875 5.671875,9.14029688 C5.671875,10.5624375 6.14948438,11.9374688 7.02323438,13.0491562 C6.85373438,13.6417969 6.31251562,14.0621719 5.671875,14.0621719 Z M12,4.21842187 C14.7139219,4.21842187 16.921875,6.426375 16.921875,9.14029688 C16.921875,11.8542188 14.7139219,14.0621719 12,14.0621719 L8.10825,14.0621719 C8.30976563,13.7135156 8.43520312,13.3231875 8.4725625,12.9150469 L8.50017187,12.6140156 L8.300625,12.3869062 C7.51232812,11.4893437 7.078125,10.3363594 7.078125,9.14029687 C7.078125,6.426375 9.28607812,4.21842187 12,4.21842187 Z" id="Shape"></path>
        </g>
    </g>
</svg>