<?xml version="1.0" encoding="UTF-8"?>
<svg width="20px" height="20px" viewBox="0 0 20 20" version="1.1" xmlns="http://www.w3.org/2000/svg" xmlns:xlink="http://www.w3.org/1999/xlink">
    <title>Combined Shape</title>
    <g id="App" stroke="none" stroke-width="1" fill="none" fill-rule="evenodd">
        <g id="TokyoMate-App---Mail---Unopened" transform="translate(-24.000000, -751.000000)" fill="#FFFFFF" fill-rule="nonzero">
            <g id="Logout" transform="translate(0.000000, 736.000000)">
                <g id="Group-9" transform="translate(22.000000, 13.000000)">
                    <path d="M17.9999997,2.25000045 C20.0042549,2.25000045 21.6412732,3.82236545 21.7448017,5.80084226 L21.7499997,6.00000045 L21.7499997,18.0000005 C21.7499997,20.0042556 20.1776348,21.6412739 18.1991579,21.7448024 L17.9999997,21.7500005 L8.99999974,21.7500005 C6.99574485,21.7500005 5.35872627,20.1776353 5.25519776,18.1991586 L5.24999974,18.0000005 L5.24999974,15.0000005 C5.24999974,14.5857869 5.58578618,14.2500005 5.99999974,14.2500005 C6.3796955,14.2500005 6.6934907,14.5321543 6.74315312,14.8982299 L6.74999974,15.0000005 L6.74999974,18.0000005 C6.74999974,19.1908603 7.67516538,20.165645 8.84595143,20.2448096 L8.99999974,20.2500005 L17.9999997,20.2500005 C19.1908597,20.2500005 20.1656443,19.324835 20.2448089,18.1540488 L20.2499997,18.0000005 L20.2499997,6.00000045 C20.2499997,4.80914049 19.3248343,3.83435587 18.1540481,3.75519129 L17.9999997,3.75000045 L8.99999974,3.75000045 C7.80913982,3.75000045 6.83435516,4.67516595 6.75519057,5.84595213 L6.74999974,6.00000045 L6.74999974,9.00000045 C6.74999974,9.41421402 6.4142133,9.75000045 5.99999974,9.75000045 C5.62030397,9.75000045 5.30650878,9.46784657 5.25684635,9.10177101 L5.24999974,9.00000045 L5.24999974,6.00000045 C5.24999974,3.99574539 6.82236477,2.35872697 8.80084155,2.25519848 L8.99999974,2.25000045 L17.9999997,2.25000045 Z M12.4462117,8.39705176 L12.5303301,8.46966991 L15.5303301,11.4696699 C15.5557782,11.495118 15.5794061,11.5223864 15.6010016,11.551263 L15.5303301,11.4696699 C15.5673834,11.5067232 15.5997491,11.5466889 15.6274273,11.5888302 C15.6405922,11.6089851 15.6529723,11.6299725 15.664329,11.6515818 C15.6691626,11.6607036 15.6735192,11.6694344 15.6776949,11.6782296 C15.690442,11.7050181 15.7019466,11.7334779 15.7116971,11.7627395 C15.7139554,11.7696832 15.7158799,11.7757544 15.7177252,11.7818445 C15.7386468,11.8503231 15.75,11.9238357 15.75,12 C15.75,12.0383922 15.7471153,12.0761107 15.7415508,12.1129505 C15.7397462,12.1245181 15.7376905,12.1362278 15.7353557,12.1478927 C15.730412,12.1728958 15.7242388,12.1971921 15.7169138,12.2209837 C15.7132873,12.2326435 15.7092554,12.2446929 15.7049093,12.256654 C15.696425,12.2799516 15.6871231,12.3020202 15.6768269,12.3235218 C15.6713347,12.3351229 15.6650317,12.3474599 15.658365,12.359651 C15.6451298,12.3836668 15.6310246,12.4063902 15.6157838,12.4282634 C15.6118625,12.4340051 15.6074572,12.4401347 15.6029482,12.4462117 C15.5971451,12.4538569 15.5954427,12.4560847 15.5937281,12.4583026 L15.5303301,12.5303301 L12.5303301,15.5303301 C12.2374369,15.8232233 11.7625631,15.8232233 11.4696699,15.5303301 C11.2034034,15.2640635 11.1791973,14.8473998 11.3970518,14.5537883 L11.4696699,14.4696699 L13.189,12.7490005 L3,12.75 C2.58578644,12.75 2.25,12.4142136 2.25,12 C2.25,11.6203042 2.53215388,11.306509 2.89822944,11.2568466 L3,11.25 L13.189,11.2490005 L11.4696699,9.53033009 C11.2034034,9.26406352 11.1791973,8.84739984 11.3970518,8.55378835 L11.4696699,8.46966991 C11.7359365,8.20340335 12.1526002,8.1791973 12.4462117,8.39705176 Z" id="Combined-Shape"></path>
                </g>
            </g>
        </g>
    </g>
</svg>