<?xml version="1.0" encoding="UTF-8"?>
<svg width="32px" height="25px" viewBox="0 0 32 25" version="1.1" xmlns="http://www.w3.org/2000/svg" xmlns:xlink="http://www.w3.org/1999/xlink">
    <title>Logo</title>
    <g id="App" stroke="none" stroke-width="1" fill="none" fill-rule="evenodd">
        <g id="TokyoMate-App---Mail---Unopened" transform="translate(-20.000000, -24.000000)" fill="#FFFFFF" fill-rule="nonzero">
            <g id="Logo" transform="translate(20.000000, 24.000000)">
                <path d="M29.3210944,2.28914528 C28.6409659,1.68871373 27.8096977,1.23839007 26.789505,0.863120353 C24.6735498,0.112580916 22.4820247,0 20.7817035,0 C20.2527147,0 19.7237258,0 19.194737,0.0375269719 C16.7009326,0.112580916 14.5094075,0.825593381 12.7335165,2.17656437 L12.6201617,2.25161831 L12.6201617,2.25161831 C12.0156031,2.70194197 11.4488294,3.26484655 10.9576255,3.82775113 L10.9576255,3.82775113 L10.9198406,3.90280507 C10.8442707,4.01538599 10.730916,4.12796691 10.6553461,4.24054782 L10.4286367,4.5407636 L10.4286367,4.5407636 C10.2019272,4.84097937 10.0130026,5.14119515 9.82407801,5.44141092 C9.52179868,5.92926156 9.25730428,6.45463916 9.03059478,7.01754374 C8.72831546,7.05507071 8.35046631,7.09259768 7.93483224,7.09259768 C6.19672613,7.09259768 5.4032429,6.60474705 4.45862002,6.0043155 C3.51399713,5.40388395 2.41823459,4.72839846 0.377849154,4.72839846 C0.151139662,4.72839846 0,4.87850634 0,5.10366817 L0,5.51646487 C0,5.7416267 0.151139662,5.89173458 0.377849154,5.89173458 C2.11595526,5.89173458 2.90943849,6.37958522 3.85406137,6.98001677 C4.79868426,7.58044832 5.8944468,8.25593381 7.93483224,8.25593381 C9.97521767,8.25593381 11.0709802,7.58044832 12.0156031,6.98001677 C12.960226,6.41711219 13.7537092,5.89173458 15.4918153,5.89173458 C17.2299214,5.89173458 18.0234047,6.37958522 18.9680275,6.98001677 C19.5348013,7.31775952 20.101575,7.69302923 20.9328431,7.91819107 C20.5927789,8.29346078 20.1771448,8.74378445 19.7615108,9.19410811 C19.7237258,9.15658114 19.648156,9.11905416 19.6103711,9.11905416 C18.6657482,8.51862262 17.5699857,7.84313712 15.5296002,7.84313712 C13.4892148,7.84313712 12.3934523,8.51862262 11.4488294,9.11905416 C10.5042065,9.68195874 9.71072326,10.2073363 7.97261715,10.2073363 C6.23451104,10.2073363 5.44102782,9.71948571 4.49640493,9.11905416 C3.55178205,8.51862262 2.4560195,7.84313712 0.41563407,7.84313712 C0.188924577,7.84313712 0.0377849154,7.99324501 0.0377849154,8.21840684 L0.0377849154,8.63120353 C0.0377849154,8.85636536 0.188924577,9.00647325 0.41563407,9.00647325 C2.15374018,9.00647325 2.9472234,9.49432388 3.89184629,10.0947554 C4.83646917,10.695187 5.93223172,11.3706725 7.97261715,11.3706725 C10.0507875,11.3706725 11.1087651,10.695187 12.053388,10.0947554 C12.9980109,9.53185086 13.7914941,9.00647325 15.5296002,9.00647325 C17.2299214,9.00647325 18.0234047,9.49432388 18.9680275,10.0572285 C18.5901784,10.4324982 18.2123292,10.8452949 17.7966952,11.2956185 C17.1921365,11.1079837 16.4742231,10.9578758 15.5296002,10.9578758 C13.4892148,10.9578758 12.3934523,11.6333613 11.4488294,12.2337928 C10.5042065,12.7966974 9.71072326,13.322075 7.97261715,13.322075 C6.23451104,13.322075 5.44102782,12.8342244 4.49640493,12.2337928 C3.55178205,11.6333613 2.4560195,10.9578758 0.41563407,10.9578758 C0.188924577,10.9578758 0.0377849154,11.1079837 0.0377849154,11.3331455 L0.0377849154,11.7459422 C0.0377849154,11.971104 0.188924577,12.1212119 0.41563407,12.1212119 C2.15374018,12.1212119 2.9472234,12.6090625 3.89184629,13.2094941 C4.83646917,13.8099256 5.93223172,14.4854111 7.97261715,14.4854111 C10.0507875,14.4854111 11.1087651,13.8099256 12.053388,13.2094941 C12.9980109,12.6465895 13.7914941,12.1212119 15.5296002,12.1212119 C16.0585891,12.1212119 16.4742231,12.1587389 16.8520723,12.2337928 C16.2852985,12.7966974 15.7185248,13.4346559 15.0761813,14.0726145 C13.3002902,14.1476684 12.2800975,14.7856269 11.4110445,15.3110045 C10.4664216,15.8739091 9.67293835,16.3992867 7.93483224,16.3992867 C6.19672613,16.3992867 5.4032429,15.9114361 4.45862002,15.3110045 C3.51399713,14.710573 2.41823459,14.0350875 0.377849154,14.0350875 C0.151139662,14.0350875 0,14.1851954 0,14.4103572 L0,14.9357348 C0,15.1608966 0.151139662,15.3110045 0.377849154,15.3110045 C2.11595526,15.3110045 2.90943849,15.7988552 3.85406137,16.3992867 C4.79868426,16.9997183 5.8944468,17.6752038 7.93483224,17.6752038 C9.97521767,17.6752038 11.0709802,16.9997183 12.0156031,16.3992867 C12.5445919,16.061544 13.0357958,15.7613282 13.6781394,15.5736933 C12.6201617,16.6244485 11.3732595,17.6752038 10.1263573,18.688432 C9.74850818,18.9886478 9.37065902,19.2888635 8.99280987,19.5515523 C8.69053055,19.5890793 8.35046631,19.6266063 7.93483224,19.6266063 C6.19672613,19.6266063 5.4032429,19.1387557 4.45862002,18.5383241 C3.51399713,17.9378926 2.41823459,17.2624071 0.377849154,17.2624071 C0.151139662,17.2624071 0,17.4125149 0,17.6376768 L0,18.0504735 C0,18.2756353 0.151139662,18.4257432 0.377849154,18.4257432 C2.11595526,18.4257432 2.90943849,18.9135938 3.85406137,19.5140254 C4.79868426,20.1144569 5.8944468,20.7899424 7.93483224,20.7899424 C8.23711156,20.7899424 8.50160597,20.7899424 8.76610038,20.7524154 C10.5419914,23.7170462 14.2071282,24.017262 17.1921365,24.2048969 C17.6833404,24.2424238 18.1745443,24.2424238 18.6279633,24.2424238 C21.1973375,24.2424238 23.4644325,23.7170462 25.3914632,22.741345 C29.9634379,20.3396188 31.7771139,14.635519 31.9660384,10.0572285 C32.1171781,8.06829895 31.8526837,4.42818268 29.3210944,2.28914528 Z M19.648156,5.96678853 C18.7035331,5.36635698 17.6077706,4.69087148 15.5673852,4.69087148 C13.4892148,4.69087148 12.4312372,5.36635698 11.4866143,5.96678853 C11.1087651,6.19195036 10.730916,6.41711219 10.3152819,6.60474705 C10.3908517,6.45463916 10.5042065,6.2670043 10.5797763,6.11689642 C10.8820556,5.62904578 11.184335,5.14119515 11.5243992,4.72839846 L11.599969,4.61581754 C12.0156031,4.09043993 12.506807,3.6025893 13.0357958,3.18979261 L13.0357958,3.18979261 L13.2625053,3.00215775 L13.3380751,2.92710381 C14.9628265,1.72624071 16.965427,1.05075521 19.2703069,1.01322824 C19.7615108,1.01322824 20.2904996,0.975701269 20.8194884,0.975701269 C22.2931001,0.975701269 24.5224101,1.05075521 26.4872257,1.76376768 C27.3940637,2.10151042 28.149762,2.51430712 28.7165357,3.00215775 C29.5100189,3.67764324 30.0390078,4.5407636 30.4168569,5.44141092 C29.5478039,4.31560177 29.018815,3.90280507 28.2631167,3.90280507 C28.0364072,3.90280507 27.8474827,3.94033205 27.6207732,4.05291296 C27.4318486,4.12796691 27.242924,4.24054782 27.0539994,4.31560177 C26.9406447,4.39065571 26.789505,4.46570965 26.6761503,4.50323662 C26.373871,4.35312874 26.0715916,4.27807479 25.7693123,4.27807479 C25.3914632,4.27807479 25.0891838,4.39065571 24.8246894,4.50323662 L24.8246894,4.50323662 C24.0689911,4.50323662 23.5777872,4.91603332 23.0865833,5.55399184 C22.8220889,5.89173458 22.3686699,6.37958522 21.8396811,7.01754374 C20.9328431,6.75485494 20.3282845,6.37958522 19.648156,5.96678853 Z M31.4370496,10.0572285 C31.4370496,10.1698094 31.4370496,10.2823903 31.3992647,10.3949712 C31.28591,10.2823903 31.1725552,10.1698094 31.0592005,10.0572285 L31.0592005,10.0572285 C30.832491,9.83206663 30.6057815,9.64443177 30.4168569,9.49432388 C30.4168569,9.49432388 30.4168569,9.49432388 30.379072,9.49432388 C30.3035022,9.45679691 30.2657172,9.41926994 30.1901474,9.38174297 C30.1901474,9.38174297 30.1901474,9.38174297 30.1523625,9.38174297 C30.1523625,9.30668902 30.1145776,9.30668902 30.0390078,9.26916205 C30.0390078,9.26916205 30.0390078,9.26916205 30.0390078,9.26916205 C30.0012228,9.23163508 29.925653,9.23163508 29.8878681,9.23163508 C29.8878681,9.23163508 29.8878681,9.23163508 29.8500832,9.23163508 C29.8122983,9.23163508 29.7745133,9.23163508 29.7367284,9.23163508 C29.7367284,9.23163508 29.7367284,9.23163508 29.7367284,9.23163508 C29.6989435,9.23163508 29.6611586,9.26916205 29.6611586,9.30668902 C29.6233737,9.344216 29.6233737,9.38174297 29.6233737,9.41926994 C29.6233737,9.41926994 29.6233737,9.45679691 29.6233737,9.45679691 C29.6233737,9.49432388 29.6233737,9.53185086 29.5855888,9.56937783 C29.5855888,9.56937783 29.5855888,9.6069048 29.5855888,9.6069048 C29.5855888,9.64443177 29.5855888,9.68195874 29.5855888,9.71948571 C29.5855888,9.71948571 29.5855888,9.75701269 29.5855888,9.75701269 C29.5855888,9.79453966 29.5855888,9.8695936 29.5855888,9.90712057 C29.5855888,9.90712057 29.5855888,9.94464755 29.5855888,9.94464755 C29.5855888,10.0197015 29.5855888,10.0572285 29.6233737,10.1322824 C29.6233737,10.1322824 29.6233737,10.1698094 29.6233737,10.1698094 C29.6233737,10.2448633 29.6611586,10.3199173 29.6611586,10.3949712 C29.6611586,10.3949712 29.6611586,10.3949712 29.6611586,10.3949712 C29.6611586,10.4700252 29.6989435,10.5826061 29.6989435,10.65766 C29.6989435,10.65766 29.6989435,10.65766 29.6989435,10.65766 C29.7367284,10.7702409 29.7367284,10.8452949 29.7745133,10.9578758 L29.7745133,10.9578758 C29.8500832,11.3331455 29.9634379,11.7084152 30.0767927,12.1212119 C30.1901474,12.5340086 30.3412871,12.9468053 30.4546418,13.284548 C30.4924267,13.359602 30.4924267,13.397129 30.4924267,13.4721829 C30.4924267,13.5097099 30.4924267,13.5097099 30.4924267,13.5472368 C30.4924267,13.5847638 30.4924267,13.5847638 30.4924267,13.6222908 C30.4924267,13.6598178 30.4924267,13.7348717 30.4924267,13.7348717 C30.4924267,13.7348717 30.4924267,13.7348717 30.4924267,13.7348717 L30.4924267,13.7348717 C30.4924267,13.7723987 30.4924267,13.7723987 30.4924267,13.7723987 L30.4924267,13.7723987 C30.4924267,13.7723987 30.4924267,13.7723987 30.4924267,13.7723987 C30.4924267,13.8099256 30.4546418,13.8099256 30.4168569,13.8099256 C30.4168569,13.8099256 30.4168569,13.8099256 30.4168569,13.8099256 C30.379072,13.8099256 30.3412871,13.8099256 30.3035022,13.7723987 C30.3035022,13.7723987 30.3035022,13.7723987 30.3035022,13.7723987 C30.1523625,13.6973447 29.8878681,13.4346559 29.5478039,13.0218592 C29.5478039,13.0218592 29.5478039,13.0218592 29.5478039,12.9843323 C29.472234,12.8717514 29.3966642,12.7966974 29.2833094,12.6841165 C29.2833094,12.6841165 29.2833094,12.6465895 29.2455245,12.6465895 C28.8676754,12.1962659 28.4520413,11.5958343 27.9986223,10.8452949 C27.9608374,10.7702409 27.9230525,10.695187 27.8474827,10.65766 C27.8474827,10.65766 27.8096977,10.620133 27.8096977,10.620133 C27.7719128,10.5826061 27.7341279,10.5075521 27.6585581,10.4700252 C27.6585581,10.4700252 27.6585581,10.4700252 27.6585581,10.4700252 C27.6207732,10.4324982 27.5829883,10.3949712 27.5452033,10.3574442 C27.5452033,10.3574442 27.5074184,10.3574442 27.5074184,10.3199173 C27.4696335,10.2823903 27.4318486,10.2823903 27.3562788,10.2448633 C27.3562788,10.2448633 27.3562788,10.2448633 27.3184938,10.2448633 C27.2807089,10.2448633 27.242924,10.2073363 27.2051391,10.2073363 C27.2051391,10.2073363 27.1673542,10.2073363 27.1673542,10.2073363 C27.1295693,10.2073363 27.0917844,10.2073363 27.0162145,10.2073363 C27.0162145,10.2073363 27.0162145,10.2073363 26.9784296,10.2073363 C26.9406447,10.2073363 26.9028598,10.2073363 26.8650749,10.2448633 C26.8650749,10.2448633 26.8650749,10.2448633 26.8272899,10.2448633 C26.789505,10.2448633 26.7517201,10.2823903 26.6761503,10.3199173 C26.6761503,10.3199173 26.6761503,10.3199173 26.6383654,10.3199173 C26.6005805,10.3574442 26.5627955,10.3574442 26.5250106,10.3949712 C26.5250106,10.3949712 26.5250106,10.3949712 26.4872257,10.3949712 C26.4494408,10.4324982 26.4116559,10.4700252 26.336086,10.5075521 C26.336086,10.5075521 26.336086,10.5075521 26.2983011,10.5450791 C26.2605162,10.5826061 26.2227313,10.620133 26.1849464,10.65766 C26.1849464,10.65766 26.1849464,10.65766 26.1849464,10.65766 C26.1471615,10.695187 26.1093766,10.7702409 26.0715916,10.8077679 C26.0715916,10.8077679 26.0715916,10.8452949 26.0338067,10.8452949 C25.9960218,10.8828218 25.9582369,10.9578758 25.920452,10.9954028 C25.920452,10.9954028 25.920452,10.9954028 25.920452,10.9954028 C25.8826671,11.0704567 25.8448821,11.1079837 25.8070972,11.1830376 C25.8070972,11.1830376 25.7693123,11.2205646 25.7693123,11.2205646 C25.7315274,11.2956185 25.6937425,11.3331455 25.6559576,11.4081994 C25.6559576,11.4081994 25.6559576,11.4081994 25.6559576,11.4081994 C25.6181727,11.4832534 25.5803877,11.5207804 25.5426028,11.5958343 C25.5426028,11.5958343 25.5048179,11.6333613 25.5048179,11.6333613 C25.467033,11.7084152 25.4292481,11.7834692 25.3914632,11.8209961 C25.3914632,11.8209961 25.3914632,11.8585231 25.3914632,11.8585231 C25.3536782,11.9335771 25.3158933,11.971104 25.3158933,12.046158 C25.3158933,12.0836849 25.2781084,12.0836849 25.2781084,12.1212119 C25.2403235,12.1962659 25.2025386,12.2713198 25.2025386,12.3088468 C25.2025386,12.3463737 25.2025386,12.3463737 25.1647537,12.3839007 C25.1269688,12.4214277 25.1269688,12.4964816 25.0891838,12.5340086 C25.0891838,12.5715356 25.0513989,12.5715356 25.0513989,12.6090625 C24.7113347,13.322075 24.4846252,13.9975605 24.3712704,14.1851954 C24.3712704,14.1851954 24.3712704,14.2227223 24.3712704,14.2227223 C24.3712704,14.2227223 24.3712704,14.2227223 24.3712704,14.2227223 C24.3712704,14.2227223 24.3712704,14.2227223 24.3712704,14.2227223 C24.3712704,14.2227223 24.3712704,14.2227223 24.3712704,14.2227223 C24.3712704,14.2227223 24.3712704,14.2227223 24.3712704,14.2227223 C24.3712704,14.2227223 24.3712704,14.1851954 24.3712704,14.1476684 L24.3712704,14.1476684 C24.3334855,13.9600335 24.3712704,13.4721829 24.4468403,12.9092783 C24.4468403,12.7591704 24.4846252,12.6090625 24.4846252,12.4589547 C24.4846252,12.4589547 24.4846252,12.4589547 24.4846252,12.4214277 C24.4846252,12.2713198 24.5224101,12.0836849 24.5224101,11.9335771 C24.5224101,11.9335771 24.5224101,11.9335771 24.5224101,11.9335771 C24.560195,11.5958343 24.560195,11.2580916 24.560195,10.9578758 L24.560195,10.9578758 C24.560195,10.4324982 24.5224101,10.0197015 24.3712704,9.83206663 C24.3712704,9.83206663 24.3712704,9.83206663 24.3712704,9.83206663 C24.3712704,9.79453966 24.3334855,9.79453966 24.2957006,9.79453966 C24.2957006,9.79453966 24.2957006,9.79453966 24.2957006,9.79453966 C24.2579157,9.79453966 24.2579157,9.79453966 24.2201308,9.79453966 C24.2201308,9.79453966 24.2201308,9.79453966 24.2201308,9.79453966 C24.1823459,9.79453966 24.1823459,9.79453966 24.144561,9.83206663 C24.144561,9.83206663 24.144561,9.83206663 24.144561,9.83206663 C24.106776,9.83206663 24.0689911,9.8695936 24.0312062,9.90712057 C23.7667118,10.0947554 23.3510777,10.5826061 22.9354437,11.1455106 C22.8220889,11.2956185 22.7087342,11.4457264 22.6331643,11.5958343 C22.6331643,11.5958343 22.6331643,11.5958343 22.6331643,11.5958343 C22.5198096,11.7459422 22.4064548,11.8960501 22.330885,12.046158 C22.330885,12.046158 22.330885,12.046158 22.330885,12.046158 C22.2175303,12.1962659 22.1419604,12.3463737 22.0286057,12.4964816 C22.0286057,12.4964816 22.0286057,12.4964816 22.0286057,12.4964816 C21.9152509,12.6465895 21.8396811,12.7966974 21.7263264,12.9468053 L21.7263264,12.9468053 C21.3862621,13.4346559 21.1217677,13.8849796 20.9328431,14.0726145 C20.9328431,14.0726145 20.9328431,14.0726145 20.9328431,14.0726145 C20.8950582,14.1101414 20.8950582,14.1101414 20.8572733,14.1476684 C20.8572733,14.1476684 20.8572733,14.1476684 20.8572733,14.1476684 C20.8572733,14.1476684 20.8194884,14.1851954 20.8194884,14.1851954 C20.8194884,14.1851954 20.8194884,14.1851954 20.8194884,14.1851954 C20.8194884,14.1851954 20.7817035,14.1851954 20.7817035,14.1851954 C20.7817035,14.1851954 20.7439186,14.1851954 20.7439186,14.1476684 C20.7439186,14.1476684 20.7439186,14.1476684 20.7439186,14.1476684 C20.7439186,14.1476684 20.7439186,14.1101414 20.7439186,14.1101414 C20.7439186,14.1101414 20.7439186,14.1101414 20.7439186,14.1101414 C20.7439186,14.0726145 20.7439186,14.0726145 20.7439186,14.0350875 C20.7439186,14.0350875 20.7439186,14.0350875 20.7439186,14.0350875 C20.8194884,13.7723987 21.008413,13.2470211 21.1973375,12.7591704 C21.2351225,12.6841165 21.2351225,12.6090625 21.2729074,12.5340086 C21.2729074,12.5340086 21.2729074,12.4964816 21.3106923,12.4964816 C21.3484772,12.4214277 21.3862621,12.3463737 21.3862621,12.2713198 C21.3862621,12.2713198 21.3862621,12.2713198 21.3862621,12.2337928 C21.424047,12.1587389 21.424047,12.1212119 21.424047,12.046158 C21.424047,12.046158 21.424047,12.008631 21.424047,12.008631 C21.424047,11.971104 21.461832,11.8960501 21.461832,11.8585231 C21.461832,11.7834692 21.4996169,11.6708883 21.4996169,11.5958343 C21.4996169,11.5958343 21.4996169,11.5583073 21.4996169,11.5583073 C21.4996169,11.4832534 21.5374018,11.4457264 21.5374018,11.3706725 C21.5374018,11.3706725 21.5374018,11.3331455 21.5374018,11.3331455 C21.5374018,11.2580916 21.5751867,11.2205646 21.5751867,11.1455106 C21.5751867,11.1455106 21.5751867,11.1455106 21.5751867,11.1455106 C21.6885414,10.65766 21.877466,10.3949712 22.1797453,9.8695936 L22.1797453,9.8695936 C22.2175303,9.79453966 22.2553152,9.71948571 22.2931001,9.64443177 C22.2931001,9.6069048 22.330885,9.6069048 22.330885,9.56937783 C22.3686699,9.49432388 22.4064548,9.38174297 22.4820247,9.30668902 C22.5198096,9.26916205 22.5198096,9.23163508 22.5198096,9.19410811 C22.5198096,9.19410811 22.5198096,9.19410811 22.5198096,9.15658114 C22.5198096,9.15658114 22.5198096,9.11905416 22.5198096,9.11905416 C22.5198096,9.11905416 22.5198096,9.11905416 22.5198096,9.08152719 C22.5198096,9.08152719 22.5198096,9.04400022 22.5198096,9.04400022 C22.5198096,9.04400022 22.5198096,9.04400022 22.5198096,9.04400022 C22.5198096,9.04400022 22.5198096,9.04400022 22.5198096,9.04400022 C22.5198096,9.04400022 22.5198096,9.04400022 22.5198096,9.04400022 C22.5198096,9.04400022 22.5198096,9.04400022 22.4820247,9.04400022 C22.4820247,9.04400022 22.4820247,9.04400022 22.4442398,9.04400022 C22.4442398,9.04400022 22.4064548,9.04400022 22.4064548,9.04400022 C22.4064548,9.04400022 22.4064548,9.04400022 22.3686699,9.04400022 C22.3686699,9.04400022 22.330885,9.04400022 22.330885,9.04400022 C22.330885,9.04400022 22.2931001,9.04400022 22.2931001,9.04400022 C22.2553152,9.04400022 22.2175303,9.08152719 22.2175303,9.08152719 C22.2175303,9.08152719 22.1797453,9.08152719 22.1797453,9.11905416 C22.1419604,9.11905416 22.1419604,9.15658114 22.1041755,9.15658114 C22.1041755,9.15658114 22.0663906,9.19410811 22.0286057,9.19410811 C21.9908208,9.19410811 21.9908208,9.23163508 21.9530359,9.23163508 C21.9152509,9.23163508 21.9152509,9.26916205 21.877466,9.26916205 C21.8396811,9.26916205 21.8396811,9.30668902 21.8018962,9.30668902 C21.7641113,9.30668902 21.7641113,9.344216 21.7263264,9.344216 C21.6885414,9.344216 21.6885414,9.38174297 21.6507565,9.38174297 C21.6129716,9.38174297 21.6129716,9.41926994 21.5751867,9.41926994 C21.5374018,9.41926994 21.5374018,9.45679691 21.4996169,9.45679691 C21.461832,9.49432388 21.424047,9.49432388 21.3862621,9.53185086 C21.3862621,9.53185086 21.3484772,9.56937783 21.3484772,9.56937783 C21.3106923,9.6069048 21.2729074,9.6069048 21.2351225,9.64443177 C20.8572733,9.90712057 20.4416392,10.2073363 20.0637901,10.4700252 C19.9126504,10.5826061 19.7615108,10.695187 19.648156,10.8077679 C19.648156,10.8077679 19.648156,10.8077679 19.648156,10.8077679 C19.2325219,11.1079837 18.9302426,11.3331455 18.9302426,11.3331455 C19.0813823,11.1455106 19.2703069,10.9954028 19.4214465,10.8077679 C19.5725862,10.65766 19.6859409,10.5450791 19.7992957,10.3949712 C20.1393599,10.0572285 20.4416392,9.71948571 20.7061336,9.41926994 L20.7061336,9.41926994 C21.2729074,8.81883839 21.7641113,8.29346078 22.1419604,7.84313712 L22.1419604,7.84313712 C22.5575945,7.39281346 22.8976587,7.01754374 23.1621531,6.71732797 L23.1621531,6.71732797 C23.237723,6.64227402 23.3132928,6.56722008 23.3888626,6.49216613 C23.4266476,6.45463916 23.4266476,6.45463916 23.4644325,6.41711219 C23.5022174,6.37958522 23.5400023,6.30453127 23.5777872,6.2670043 C23.6155721,6.22947733 23.6155721,6.22947733 23.6533571,6.19195036 C23.691142,6.15442339 23.7289269,6.11689642 23.7667118,6.07936944 C23.7667118,6.04184247 23.8044967,6.04184247 23.8044967,6.0043155 C23.8422816,5.96678853 23.8800665,5.89173458 23.9178515,5.85420761 C24.6357649,4.95356029 24.6735498,5.36635698 25.1269688,5.17872212 C25.5426028,5.02861423 25.7693123,4.91603332 26.2227313,5.17872212 C26.6761503,5.44141092 27.242924,5.02861423 27.9986223,4.69087148 C28.0364072,4.69087148 28.0741922,4.65334451 28.1119771,4.65334451 C28.1119771,4.65334451 28.149762,4.65334451 28.149762,4.65334451 C28.1875469,4.65334451 28.1875469,4.65334451 28.2253318,4.65334451 C28.2253318,4.65334451 28.2631167,4.65334451 28.2631167,4.65334451 C28.3009016,4.65334451 28.3009016,4.65334451 28.3386866,4.65334451 C28.3386866,4.65334451 28.3764715,4.65334451 28.4142564,4.69087148 C28.4520413,4.69087148 28.4520413,4.69087148 28.4898262,4.72839846 C28.5276111,4.72839846 28.5276111,4.76592543 28.5653961,4.76592543 C28.603181,4.76592543 28.603181,4.8034524 28.6409659,4.8034524 C28.6787508,4.8034524 28.6787508,4.84097937 28.7165357,4.84097937 C28.7543206,4.84097937 28.7543206,4.87850634 28.7921055,4.87850634 C28.8298905,4.91603332 28.8298905,4.91603332 28.8676754,4.95356029 C28.9054603,4.99108726 28.9054603,4.99108726 28.9432452,5.02861423 C28.9810301,5.0661412 28.9810301,5.10366817 29.018815,5.10366817 C29.0566,5.14119515 29.0566,5.14119515 29.0943849,5.17872212 C29.1321698,5.21624909 29.1699547,5.25377606 29.2077396,5.29130303 C29.2455245,5.32883001 29.2455245,5.32883001 29.2833094,5.36635698 C29.3588793,5.44141092 29.4344491,5.55399184 29.5100189,5.62904578 C29.5478039,5.66657275 29.5855888,5.70409972 29.6233737,5.7416267 C29.6611586,5.77915367 29.6989435,5.85420761 29.7367284,5.89173458 C29.7745133,5.92926156 29.8122983,6.0043155 29.8500832,6.04184247 C29.8878681,6.07936944 29.925653,6.15442339 29.9634379,6.19195036 C30.0012228,6.2670043 30.0390078,6.30453127 30.1145776,6.37958522 C30.1523625,6.41711219 30.1901474,6.49216613 30.2279323,6.52969311 C30.2657172,6.60474705 30.3412871,6.67980099 30.379072,6.75485494 C30.4168569,6.82990888 30.4546418,6.86743585 30.5302117,6.9424898 C30.6057815,7.05507071 30.6813513,7.16765163 30.7569211,7.28023254 C30.9836306,7.58044832 31.2103401,7.91819107 31.5126195,8.29346078 C31.4370496,9.23163508 31.4370496,9.68195874 31.4370496,10.0572285 Z" id="Shape"></path>
            </g>
        </g>
    </g>
</svg>