<svg xmlns="http://www.w3.org/2000/svg" width="24" height="24" xmlns:v="https://vecta.io/nano"><path d="M13.035 1.216a9.77 9.77 0 0 1 9.749 9.785 9.77 9.77 0 0 1-9.512 9.745L13 20.75c-.737-.001-1.47-.086-2.188-.252-.947 1.36-2.525 2.252-4.3 2.252a5.25 5.25 0 0 1-5.25-5.25c0-1.786.892-3.363 2.254-4.312a9.67 9.67 0 0 1-.254-2.224 9.77 9.77 0 0 1 9.785-9.749zM6.5 13.75a3.75 3.75 0 1 0 0 7.5 3.75 3.75 0 1 0 0-7.5zm0 1.5a.75.75 0 0 1 .743.648L7.25 16v.75H8a.75.75 0 0 1 .102 1.493L8 18.25h-.75V19a.75.75 0 0 1-1.493.102L5.75 19v-.75H5a.75.75 0 0 1-.102-1.493L5 16.75h.75V16a.75.75 0 0 1 .75-.75zm6.533-12.534a8.27 8.27 0 0 0-8.142 9.786c.508-.164 1.05-.252 1.61-.252a5.25 5.25 0 0 1 5.25 5.25c0 .56-.088 1.102-.25 1.61.365.07.736.113 1.11.13l.393.01a8.27 8.27 0 0 0 8.283-8.251 8.27 8.27 0 0 0-8.251-8.283zM12.5 5.25a.75.75 0 0 1 .743.648L13.25 6v4.64h3.64a.75.75 0 0 1 .743.648l.007.102a.75.75 0 0 1-.648.743l-.102.007H12.5a.75.75 0 0 1-.743-.648l-.007-.102V6a.75.75 0 0 1 .75-.75z" fill="#48ac98" fill-rule="nonzero"/></svg>