<svg xmlns="http://www.w3.org/2000/svg" width="24" height="24" xmlns:v="https://vecta.io/nano"><path d="M16.605 1.25C20 1.25 22.75 4 22.75 7.394c0 3.354-2.688 6.08-6.027 6.144-.037.004-.074.007-.112.007-.293 0-.584-.02-.87-.06v6.266c0 1.6-1.22 2.895-2.768 2.987l-.173.005H6.2c-1.57 0-2.847-1.25-2.937-2.816l-.005-.175V6.25c0-1.6 1.22-2.895 2.768-2.987l.173-.005h5.86a6.13 6.13 0 0 1 4.544-2.008zM11.06 4.74l-4.86.001c-.755 0-1.38.595-1.452 1.363l-.007.146v13.5c0 .788.582 1.43 1.32 1.502l.14.007h6.6c.755 0 1.38-.595 1.452-1.363l.007-.146-.001-6.673-3.083.657a.75.75 0 0 1-.904-.788l.014-.1.645-3.093-.014-.034a6.12 6.12 0 0 1-.447-2.023l-.008-.28v-.022a6.12 6.12 0 0 1 .601-2.654zm-.34 13.517a.74.74 0 0 1 .742.742.74.74 0 0 1-.641.735l-.1.007H8.28A.74.74 0 0 1 7.538 19a.74.74 0 0 1 .641-.735l.1-.007h2.44zM16.605 2.75c-2.562 0-4.64 2.073-4.645 4.634.001.7.15 1.365.434 1.973a.75.75 0 0 1 .07.351l-.015.12-.46 2.2 2.195-.466a.75.75 0 0 1 .358.011l.114.042c.59.273 1.23.42 1.892.43l.058-.006c2.565 0 4.645-2.08 4.645-4.645S19.17 2.75 16.605 2.75z" fill="#48ac98" fill-rule="nonzero"/></svg>