<svg xmlns="http://www.w3.org/2000/svg" width="24" height="24" xmlns:v="https://vecta.io/nano"><path d="M17.656 3.928l.138.13.8.797.027.026.023.026 2.3 2.302a2.75 2.75 0 0 1 .129 3.751l-.13.138L16.8 15.25H20a1.75 1.75 0 0 1 1.744 1.607l.006.143v2A1.75 1.75 0 0 1 20 20.75h0H4A1.75 1.75 0 0 1 2.25 19h0v-2A1.75 1.75 0 0 1 4 15.25h4.927l-1.163-1.164a2.75 2.75 0 0 1-.129-3.751l.13-.138 6.14-6.14a2.75 2.75 0 0 1 3.751-.129zM20 16.75H4a.25.25 0 0 0-.25.25h0v2a.25.25 0 0 0 .25.25h16a.25.25 0 0 0 .25-.25h0v-2a.25.25 0 0 0-.25-.25h0zM18.088 6.473L10.18 14.38l.87.87h3.62l5.216-5.214a1.25 1.25 0 0 0 .091-1.666l-.09-.1-1.796-1.795zm-3.02-1.447l-.1.09-6.14 6.14a1.25 1.25 0 0 0-.091 1.666l.09.1.295.294 7.908-7.908-.294-.295a1.25 1.25 0 0 0-1.666-.091zM4 9.25a.75.75 0 0 1 .102 1.493L4 10.75H3a.75.75 0 0 1-.102-1.493L3 9.25h1zm2-3a.75.75 0 0 1 .102 1.493L6 7.75H3a.75.75 0 0 1-.102-1.493L3 6.25h3zm2-3a.75.75 0 0 1 .102 1.493L8 4.75H3a.75.75 0 0 1-.102-1.493L3 3.25h5z" fill="#48ac98" fill-rule="nonzero"/></svg>