<svg xmlns="http://www.w3.org/2000/svg" width="24" height="24" xmlns:v="https://vecta.io/nano"><path d="M4 21.75a.75.75 0 0 1-.102-1.493L4 20.25h3.053l3.022-7.13-1.58-.67-3.57-1.516c-1.52-.645-2.13-2.477-1.302-3.904h0l.14-.24a9.11 9.11 0 0 1 11.167-3.922h0l.27.1a9.11 9.11 0 0 1 5.203 10.877h0l-.075.266c-.45 1.59-2.193 2.422-3.714 1.776h0l-5.156-2.19-2.774 6.544H20a.75.75 0 0 1 .102 1.493L20 21.75H4zM16.024 5.14l.017.087a11.4 11.4 0 0 1-1.576 8.128l2.734 1.16c.7.293 1.48-.085 1.684-.805h0l.075-.266c.9-3.165-.34-6.48-2.934-8.304zm-1.608-.322l-.068.04c-2.41 1.4-4.113 3.745-4.704 6.45l1.67.708a.76.76 0 0 1 .038.015l.03.016 1.678.713a9.9 9.9 0 0 0 1.445-7.555l-.07-.31-.02-.076zm-1.35-.93c-3.12-.598-6.36.818-8.008 3.654h0l-.14.24c-.376.65-.1 1.48.6 1.772h0l2.733 1.16c.68-2.78 2.382-5.207 4.772-6.792z" fill="#000" fill-rule="nonzero"/></svg>