<svg width="24" height="24" viewBox="0 0 24 24" xmlns="http://www.w3.org/2000/svg">
  <g fill="none" fill-rule="evenodd">
    <path d="M0 0h24v24H0z"/>
    <path d="M18.7603115 2.578707c1.5867855-.3299554 2.9909369 1.074196 2.6609991 2.66089665l-.808006 3.8880291c-.1321905.63595871-.3545981 1.24582635-.6577978 1.81212625-.0093082.0169522-.0186801.0338143-.0287243.0503356-.3056625.5620244-.6922897 1.0796256-1.1494524 1.5362355l-2.2988977 2.2978611-.0234541 2.7975121c-.0030577.4020907-.1447838.788885-.3975848 1.0967182l-.1150634.1269086-2.7549599 2.7549581c-.6624171.6600257-1.7725198.3815437-2.0646382-.4772087l-.0346453-.1206657-.6579857-2.7844282c-1.01087937.1073976-2.02028097-.1541488-2.85452104-.7322807l-1.17524987 1.1746252c-.29289322.2928932-.76776696.2928932-1.06066018 0-.26626656-.2662666-.29047261-.6829303-.07261815-.9765418l.07261815-.0841184L6.5135574 16.427291c-.60774492-.8750773-.8669265-1.9546425-.71118498-3.0260431l-.01994001.1669433-2.78485253-.6572794c-.91075811-.2151397-1.25753502-1.3057956-.68124953-2.0071364l.08433956-.0931055 2.754-2.75399999c.28397365-.28397364.65600334-.4608142 1.05187621-.50292385l.17093239-.00971771 2.7979539-.02483719 2.29791679-2.29620032c.4567675-.4573205.9744488-.84402783 1.5358246-1.15085215.0127056-.00620271.024932-.01317004.0373225-.01977671.5699732-.30738764 1.184671-.53238659 1.8259-.66567263zm-3.7926533 13.7004973c-.9044046.7457871-1.9484429 1.3015407-3.0677394 1.6350917L12.444 20.221l2.4376699-2.4363301c.0309725-.0309724.0530292-.0692313.0644409-.1108157l.0089176-.0643757zM13.3674541 5.60594321l-.2004314.13736968c-.223966.16229427-.4356497.34273566-.6327758.54010033L9.34433009 9.47233009C8.24179612 10.5748641 7.52370731 12.0049223 7.29662758 13.5517521l-.01042714.0691298c-.08735839.6010036.02857668 1.2073717.31272457 1.7196115l4.81074489-4.8108235c.2928932-.2928932.767767-.2928932 1.0606602 0 .2662665.2662666.2904726.6829303.0726181.9765418l-.0726181.0841184-4.80859687 4.809585c.51616553.2861666 1.11778532.4005922 1.71351467.3134573l.3832233-.0631336c1.4249674-.2714086 2.7394976-.9658678 3.7691987-1.9955689l.6701424-.6701184a.75498469.75498469 0 01.0150919-.014887l2.5040866-2.5043153c.2546429-.2543349.4811329-.5329803.6768193-.8310225l.2725591.3882342c-1.4338291-2.10252479-3.2300336-3.93796354-5.2989151-5.41661769zM7.72137914 9.03051259l-1.33167588.01346572c-.04337423.00032985-.08576704.01217238-.12297508.03379629l-.05139809.03955549L3.778 11.554l2.30770713.5448294c.33430278-1.1205493.89008403-2.16443327 1.63567201-3.06831681zM19.952707 4.93431147c.1100446-.52921447-.357804-.99706307-.8871033-.88700082l-3.887971.80799395c-.0789963.01642019-.1574732.03462928-.235376.0545977 1.5535332 1.20018896 2.947652 2.59430779 4.1482061 4.14601581l.0542266-.23352176z" fill="#000" fill-rule="nonzero"/>
  </g>
</svg>
