<svg xmlns="http://www.w3.org/2000/svg" width="24" height="24" xmlns:v="https://vecta.io/nano"><path d="M16.95 11.15c3.1 0 5.662 2.452 5.795 5.565h0l.005.235c0 3.1-2.452 5.662-5.565 5.795h0l-.235.005c-3.1 0-5.662-2.452-5.795-5.565h0l-.005-.235c0-3.1 2.452-5.662 5.565-5.795h0zm.007 1.5l-.194.005c-2.295.098-4.113 1.99-4.113 4.28h0l.004.203c.098 2.295 1.99 4.113 4.28 4.113h0l.203-.004c2.295-.098 4.113-1.99 4.113-4.28h0l-.004-.203a4.3 4.3 0 0 0-4.289-4.114h0zM4.305 14.67a.75.75 0 0 1 .75.75c0 1.506 1.143 2.746 2.61 2.898a.75.75 0 0 1 1.118-.936l.084.073 1.1 1.1c.025.025.047.05.07.08l.004.005.003.005.004.006.01.015.032.05.023.044.022.05.013.036.02.067.007.036.008.058.002.026.002.04v.027l-.004.063-.003.024-.006.038-.007.032-.007.028-.004.014-.01.035-.008.02-.01.022-.008.02-.02.038-.01.02-.023.038h0l-.027.04-.073.084-1.1 1.1a.75.75 0 0 1-1.188-.891c-2.302-.148-4.123-2.063-4.123-4.403a.75.75 0 0 1 .75-.75zM17.563 14l.058.097 2.125 4.25a.75.75 0 0 1-1.29.759l-.052-.088-.168-.335h-2.574l-.166.335a.75.75 0 0 1-.912.375l-.094-.04a.75.75 0 0 1-.375-.912l.04-.094 2.125-4.25a.75.75 0 0 1 1.284-.097zm-.613 2.11l-.538 1.074h1.074L16.95 16.1zM9 1.35a3.75 3.75 0 0 1 3.75 3.75h0V9A3.75 3.75 0 0 1 9 12.75h0-3.9A3.75 3.75 0 0 1 1.35 9h0V5.1A3.75 3.75 0 0 1 5.1 1.35h0zm0 1.5H5.1A2.25 2.25 0 0 0 2.85 5.1h0V9a2.25 2.25 0 0 0 2.25 2.25H9A2.25 2.25 0 0 0 11.25 9h0V5.1A2.25 2.25 0 0 0 9 2.85h0zM7.05 4.5a.75.75 0 0 1 .743.648l.002.03.2-.001.068-.003.067.004h.94a.75.75 0 0 1 .102 1.493l-.102.007h-.33c-.092.484-.27.936-.52 1.34a1.44 1.44 0 0 0 .703.297l.15.01a.75.75 0 1 1 0 1.5c-.692 0-1.34-.255-1.878-.705-.614.444-1.362.705-2.172.705a.75.75 0 0 1-.102-1.493l.102-.007c.62 0 1.186-.26 1.6-.685.032-.047.07-.09.112-.127.204-.24.362-.522.46-.834h-.132-.03H5.03a.75.75 0 0 1-.102-1.493l.102-.007h1.274l.003-.03A.75.75 0 0 1 7.05 4.5zm9.144-1.214a.75.75 0 0 1 .127.891c2.302.148 4.123 2.063 4.123 4.403a.75.75 0 1 1-1.5 0c0-1.506-1.143-2.746-2.61-2.898a.75.75 0 0 1-1.118.936l-.084-.073-1.1-1.1-.063-.072-.01-.012-.004-.006-.017-.025a.56.56 0 0 1-.03-.048l-.023-.044-.025-.06-.01-.026-.02-.067-.008-.038L13.82 5l-.003-.045-.001-.03.001-.028.003-.046.003-.027.001-.01.005-.03.006-.03.007-.028.006-.022.01-.028.008-.02.01-.022.01-.024.018-.036.01-.018.024-.04.026-.037.073-.084 1.1-1.1a.75.75 0 0 1 1.061 0z" fill="#000" fill-rule="nonzero"/></svg>