<svg xmlns="http://www.w3.org/2000/svg" width="24" height="24" xmlns:v="https://vecta.io/nano"><path d="M21.025 14.25H21c.038 0 .076.003.113.008l.035.006c.025.005.05.01.073.018l.036.012.067.028.036.018c.024.013.047.027.07.043l.018.013.084.073 1.5 1.5a.75.75 0 0 1-.977 1.133l-.084-.073-.22-.22V19c0 1.458-1.146 2.658-2.583 2.745L19 21.75h-2.99a.75.75 0 0 1-.102-1.493l.102-.007H19c.643 0 1.18-.496 1.243-1.123L20.25 19v-2.19l-.22.22a.75.75 0 0 1-.977.073l-.084-.073a.75.75 0 0 1-.073-.977l.073-.084 1.5-1.5.072-.063-.072.063c.037-.037.077-.07.12-.097l.063-.037.027-.013c.028-.014.06-.026.1-.036A.77.77 0 0 1 21 14.25h.025zm-3.025-2a.75.75 0 0 1 .102 1.493L18 13.75h-3a1.25 1.25 0 0 0-1.244 1.122L13.75 15v2.188l.22-.218a.75.75 0 0 1 .977-.073l.084.073a.75.75 0 0 1 .073.977l-.073.084-1.5 1.5c-.025.025-.053.05-.082.07l.082-.07c-.037.037-.077.07-.12.097l-.063.037-.027.013a.75.75 0 0 1-.085.034l-.02.006c-.068.02-.142.032-.218.032-.038 0-.076-.003-.113-.008l-.035-.006c-.025-.005-.05-.01-.073-.018l-.036-.012-.067-.028-.036-.018c-.026-.014-.05-.03-.075-.047-.045-.034-.072-.057-.096-.08l-1.5-1.5a.75.75 0 0 1 .977-1.133l.084.073.22.22V15a2.75 2.75 0 0 1 2.582-2.745L15 12.25h3zm0-10a3.75 3.75 0 0 1 3.745 3.551l.005.2v4a.75.75 0 0 1-1.493.102L20.25 10V7.75H3.75V14a2.25 2.25 0 0 0 2.096 2.245L6 16.25h2a.75.75 0 0 1 .102 1.493L8 17.75H6a3.75 3.75 0 0 1-3.745-3.551L2.25 14V6a3.75 3.75 0 0 1 3.551-3.745L6 2.25h12zm-8.43 8a.75.75 0 0 1 .102 1.493l-.102.007H7a.75.75 0 0 1-.102-1.493L7 10.25h2.57zM18 3.75H6a2.25 2.25 0 0 0-2.245 2.096L3.75 6v.25h16.5V6a2.25 2.25 0 0 0-2.096-2.245L18 3.75z" fill="#48ac98" fill-rule="nonzero"/></svg>