<svg width="24" height="24" viewBox="0 0 24 24" xmlns="http://www.w3.org/2000/svg">
  <g fill="none" fill-rule="evenodd">
    <path d="M0 0h24v24H0z"/>
    <path d="M10.079617 2.90007522c1.1338353-.86643363 2.7059307-.86643363 3.8396733-.00007081L15.323 3.972l1.7561228.23457907c1.3542043.18056059 2.431543 1.20791722 2.6867273 2.53598562l.0296506.18291287L20.027 8.675l1.0722572 1.4060523c.8241482 1.0801337.8637387 2.557267.1174003 3.6746615l-.1178454.1648166L20.025 15.325l-.2335791 1.7541228c-.1805606 1.3542043-1.2079172 2.431543-2.5360291 2.686733l-.1829191.0296515L15.324 20.027l-1.404617 1.0739248c-1.0798431.8251749-2.5572012.8644689-3.6748227.1179433l-.1648506-.1178725L8.675 20.028l-1.75412279-.2345791c-1.35420436-.1805606-2.43154298-1.2079172-2.68672728-2.5359856l-.02965066-.1829129L3.972 15.325l-1.07325717-1.4050523c-.82384072-1.0797307-.86307123-2.5576968-.11730709-3.6747257l.11775213-.1647524L3.972 8.675l.23557907-1.75312279c.18056059-1.35420436 1.20791722-2.43154298 2.53570089-2.68668949l.18287225-.02964526L8.673 3.973zm2.929 1.19184956c-.5961647-.45556637-1.4220693-.45556637-2.0185106.00021125L9.527 5.209l-.07530901.07099698c-.07414259.05828127-.16374849.103897-.26915598.13173619l-.11068722.02172437-1.94840145.25905327c-.74423587.09854234-1.32981297.68351864-1.42906205 1.42788637l-.261 1.952c-.02993148.22385538-.13242379.3883663-.25320011.50390963L5.157 9.596l-1.02676322 1.3439633-.12971222.1822546c-.36191493.5813186-.33175876 1.3341147.09042763 1.887435l1.195 1.564c.0794824.1040255.13035111.2270441.14754854.3568247l.25801008 1.9470761c.09854234.7442358.68351864 1.3298129 1.42788637 1.429062l1.952.261c.12943971.0173073.25211706.0681126.35589312.1473887l1.5630927 1.1940708c.5961647.4555664 1.4220693.4555664 2.0182699-.0000274L14.469 18.793l.0095007-.0108985c.0852084-.0881906.1977093-.1568759.3383022-.1939344l.1107244-.0216744 1.9480264-.2580035c.7442358-.0985423 1.3298129-.6835187 1.4290121-1.4275122l.26-1.952c.0298263-.2239269.1322671-.3885104.2530259-.5041193L18.84 14.404l1.0670752-1.394383c.4552219-.5957139.4550218-1.4218794-.0005352-2.0189353l-1.193-1.56500002c-.0791942-.10388845-.1298806-.22665998-.1470407-.35615924l-.2580101-1.9470761c-.0985423-.74423587-.6835187-1.32981297-1.4274624-1.42900548l-1.953-.26c-.1295933-.01725257-.2524258-.06808109-.3563171-.14744527zM12.191 7.75c.5867145 0 1.1230927.33225046 1.3845706.85911322l.4143945.83977587c.0069487.0140171.019209.02294325.033004.02492315l.9292228.13517892c.5809877.0854965 1.0633092.49231954 1.2442563 1.05072614l.118028.3640866c.1808767.5581893.0293956 1.1706291-.3909934 1.5812862l-.6713868.6543767c-.0095804.0093242-.0142771.0238047-.0119594.0373441l.1594559.9266786c.0972876.5778878-.1406176 1.1623306-.615046 1.5064856l-.3085323.223932c-.475274.3467163-1.1052011.3929545-1.6257964.119059l-.829223-.4355924c-.0130421-.0068316-.0289475-.0068316-.0412126-.0004076l-.8304981.4362614c-.5186716.2719626-1.1474181.2263934-1.62383057-.1172524l-.30984228-.2248855c-.47531606-.344799-.71400737-.9292936-.61474786-1.5092787l.15889256-.9233741c.0024252-.0141653-.00227156-.0286458-.01223872-.0383467l-.67036141-.6533783c-.42163521-.4099771-.57272768-1.023043-.39160402-1.5819945l.11797196-.3639134c.18097514-.5584932.66329669-.96531624 1.24550712-1.05099166l.92950026-.1352167c.01229472-.0017632.02455506-.01068935.03089826-.02348232l.4142842-.83954531C10.6828008 8.08365328 11.2200207 7.75 11.808 7.75zm0 1.5h-.383c-.0166912 0-.0310948.00894571-.0384294.02388678l-.4156055.84222412c-.2255517.4549924-.6598944.771215-1.160996.8430769l-.92677716.134821c-.01727115.0025416-.03077119.0139285-.03574374.0292739l-.11797196.3639134c-.00526391.0162446-.00116438.0328787.01100653.0447138l.67061325.6536233c.36397438.3542425.52982808.8655805.44404058 1.3666559l-.1588845.9233272c-.0027118.015845.0037588.0316897.0172944.0415086l.3082073.2237028c.0141781.0102269.0335011.0116274.047464.0043062l.830777-.4364076c.4489579-.2351684.9850525-.2351684 1.4347874.0004076l.8304255.4362237c.0144938.0076255.0306085.0064426.0452458-.0042327l.3101578-.2251145c.0126673-.009189.0196625-.0263736.0172521-.0407213l-.1591074-.9246259c-.0856801-.5004495.0801736-1.0117875.4437612-1.3656533l.6703986-.6534132c.0123281-.0120427.0166815-.0296435.011636-.045214l-.118028-.3640866c-.0049446-.0152588-.0184446-.0266457-.0344929-.0290083l-.9264998-.1347833c-.5026018-.0720786-.9369445-.3883012-1.1631017-.8445177l-.4142421-.83946864C12.2238812 9.25969693 12.2082267 9.25 12.191 9.25z" fill="#000" fill-rule="nonzero"/>
  </g>
</svg>
