<svg xmlns="http://www.w3.org/2000/svg" width="24" height="24" xmlns:v="https://vecta.io/nano"><path d="M8 20.25a.75.75 0 0 1 .102 1.493L8 21.75H7a.75.75 0 0 1-.102-1.493L7 20.25h1zm4-18a9.75 9.75 0 1 1 0 19.5.75.75 0 1 1 0-1.5 8.25 8.25 0 1 0 0-16.5 8.25 8.25 0 0 0-8.196 7.333.75.75 0 1 1-1.491-.165A9.75 9.75 0 0 1 12 2.25zm-4 15a.75.75 0 0 1 .102 1.493L8 18.75H5a.75.75 0 0 1-.102-1.493L5 17.25h3zm0-3a.75.75 0 0 1 .102 1.493L8 15.75H3a.75.75 0 0 1-.102-1.493L3 14.25h5zm3.718-7.015a.75.75 0 0 1 .743.648l.007.102v4.23l3.296 2.01a.75.75 0 0 1 .297.94l-.047.1a.75.75 0 0 1-.94.297l-.1-.047-3.656-2.23a.75.75 0 0 1-.351-.53l-.008-.11v-4.65a.75.75 0 0 1 .75-.75z" fill="#000" fill-rule="nonzero"/></svg>