<svg xmlns="http://www.w3.org/2000/svg" width="24" height="24" xmlns:v="https://vecta.io/nano"><path d="M10.08 2.9a3.16 3.16 0 0 1 3.84 0h0l1.404 1.072 1.756.235a3.16 3.16 0 0 1 2.687 2.536h0l.03.183.23 1.75L21.1 10.08c.824 1.08.864 2.557.117 3.675h0l-.118.165-1.074 1.403-.234 1.755a3.16 3.16 0 0 1-2.536 2.687h0l-.183.03-1.748.23L13.92 21.1a3.16 3.16 0 0 1-3.675.118h0l-.165-.118-1.405-1.073-1.754-.235a3.16 3.16 0 0 1-2.687-2.536h0l-.03-.183-.232-1.75L2.9 13.92c-.824-1.08-.863-2.557-.118-3.674h0l.118-.165 1.073-1.405.236-1.753a3.16 3.16 0 0 1 2.536-2.687h0l.183-.03 1.747-.233zm2.93 1.192a1.66 1.66 0 0 0-2.019 0h0L9.527 5.21l-.075.07c-.074.058-.164.104-.27.132h0l-.11.022-1.948.26A1.66 1.66 0 0 0 5.694 7.12h0l-.26 1.952c-.03.224-.132.388-.253.504h0l-.023.02L4.13 10.94l-.13.182c-.362.58-.332 1.334.1 1.886h0l1.195 1.564a.75.75 0 0 1 .148.357h0l.258 1.947a1.66 1.66 0 0 0 1.428 1.429h0l1.952.26a.75.75 0 0 1 .356.147h0L11 19.908a1.66 1.66 0 0 0 2.018 0h0l1.46-1.116.01-.01c.085-.088.198-.157.338-.194h0l.11-.022 1.948-.258a1.66 1.66 0 0 0 1.429-1.428h0l.26-1.952a.75.75 0 0 1 .15-.359h0l1.193-1.56c.455-.596.455-1.422 0-2.02h0l-1.193-1.564a.75.75 0 0 1-.147-.356h0l-.258-1.947a1.66 1.66 0 0 0-1.427-1.429h0l-1.953-.26a.75.75 0 0 1-.356-.147h0zM12 7.434a2.51 2.51 0 0 1 2.468 2.314l.005.16-.001.585c.736.197 1.278.868 1.278 1.666h0V14.2c0 .952-.772 1.724-1.724 1.724h0-4.052c-.952 0-1.724-.772-1.724-1.724h0v-2.052c0-.797.54-1.468 1.277-1.665v-.586c0-1.366 1.107-2.473 2.473-2.473zm2.026 4.5H9.974c-.124 0-.224.1-.224.224h0V14.2c0 .124.1.224.224.224h4.052c.124 0 .224-.1.224-.224h0v-2.052c0-.124-.1-.224-.224-.224h0zm-2.026-3c-.5 0-.9.375-.966.86l-.007.114-.001.526h1.946l.001-.526c0-.5-.455-.973-.973-.973z" fill="#323232" fill-rule="nonzero"/></svg>