<?xml version="1.0" encoding="UTF-8"?>
<svg width="24px" height="24px" viewBox="0 0 24 24" version="1.1" xmlns="http://www.w3.org/2000/svg" xmlns:xlink="http://www.w3.org/1999/xlink">
    <!-- Generator: Sketch 63.1 (92452) - https://sketch.com -->
    <title>Icon / Support</title>
    <desc>Created with Sketch.</desc>
    <g id="Icon-/-Support" stroke="none" stroke-width="1" fill="none" fill-rule="evenodd">
        <g id="Headphones,-Customer,-support">
            <polygon id="Path" points="0 0 24 0 24 24 0 24"></polygon>
            <path d="M12,2.25 C15.9241293,2.25 19.1198652,5.36725329 19.246125,9.2606772 C20.6503417,9.38568536 21.75,10.5639936 21.75,12 L21.75,12 L21.75,15 C21.75,16.5192136 20.5192136,17.75 19,17.75 L19,17.75 L18.75,17.75 L18.75,18 C18.75,19.4629464 17.6086946,20.658435 16.1675667,20.7449829 L16,20.75 L14.4790543,20.751134 C14.1819588,21.4833552 13.4635846,22 12.625,22 L12.625,22 L11.375,22 C10.3467448,22 9.48862837,21.2200148 9.3824139,20.1656103 L9.3824139,20.1656103 L9.375,20 C9.375,18.8957864 10.2707864,18 11.375,18 L11.375,18 L12.625,18 C13.4519489,18 14.1688557,18.5044776 14.4731131,19.2504598 L16,19.25 C16.6476123,19.25 17.1795843,18.7585037 17.2435511,18.1278762 L17.25,18 L17.2502725,17.5816153 C16.6589803,17.3007131 16.25,16.6979518 16.25,16 L16.25,16 L16.25,11 C16.25,10.1207457 16.8990535,9.39255922 17.7439937,9.26860762 C17.6244462,6.2005378 15.0985585,3.75 12,3.75 C8.9014466,3.75 6.37556215,6.20052967 6.25453903,9.26939663 C7.10094645,9.39255922 7.75,10.1207457 7.75,11 L7.75,11 L7.75,16 C7.75,16.9662136 6.96621356,17.75 6,17.75 L6,17.75 L5,17.75 C3.48078644,17.75 2.25,16.5192136 2.25,15 L2.25,15 L2.25,12 C2.25,10.5639936 3.34965833,9.38568536 4.75312883,9.26092131 L4.75,9.5 C4.75,5.49578644 7.99578644,2.25 12,2.25 Z M12.625,19.5 L11.375,19.5 C11.0992136,19.5 10.875,19.7242136 10.8740436,19.9621363 L10.8740436,19.9621363 L10.877612,20.0518951 C10.9032906,20.3044962 11.118378,20.5 11.375,20.5 L11.375,20.5 L12.625,20.5 C12.9007864,20.5 13.125,20.2757864 13.1259564,20.0378637 L13.1259564,20.0378637 L13.122388,19.9481049 C13.0967094,19.6955038 12.881622,19.5 12.625,19.5 L12.625,19.5 Z M19,10.75 L18,10.75 C17.8622136,10.75 17.75,10.8622136 17.75,11 L17.75,11 L17.75,16 C17.75,16.1377864 17.8622136,16.25 18,16.25 L18,16.25 L19,16.25 C19.6907864,16.25 20.25,15.6907864 20.25,15 L20.25,15 L20.25,12 C20.25,11.3092136 19.6907864,10.75 19,10.75 L19,10.75 Z M6,10.75 L5,10.75 C4.30921356,10.75 3.75,11.3092136 3.75,12 L3.75,12 L3.75,15 C3.75,15.6907864 4.30921356,16.25 5,16.25 L5,16.25 L6,16.25 C6.13778644,16.25 6.25,16.1377864 6.25,16 L6.25,16 L6.25,11 C6.25,10.8622136 6.13778644,10.75 6,10.75 L6,10.75 Z" id="Combined-Shape" fill="#000000" fill-rule="nonzero"></path>
        </g>
    </g>
</svg>