<svg width="26" height="26" viewBox="0 0 26 26" fill="none" xmlns="http://www.w3.org/2000/svg">
<path d="M21.4853 4.51472C26.1715 9.20101 26.1715 16.799 21.4853 21.4853C16.799 26.1715 9.20099 26.1715 4.51472 21.4853C-0.171573 16.799 -0.171573 9.20099 4.51472 4.51472C9.20101 -0.171573 16.799 -0.171573 21.4853 4.51472" stroke="#323232" stroke-width="2" stroke-linecap="round" stroke-linejoin="round"/>
<path d="M15.4041 16.6614L12.3987 19.6667L10.5947 17.8627" stroke="#323232" stroke-width="2" stroke-linecap="round" stroke-linejoin="round"/>
<path d="M9.00033 9.48535H7.66699C6.56299 9.48535 5.66699 10.3814 5.66699 11.4854V22.3334" stroke="#323232" stroke-width="2" stroke-linecap="round" stroke-linejoin="round"/>
<path d="M17 9.48535H18.3333C19.4373 9.48535 20.3333 10.3814 20.3333 11.4854V22.3334" stroke="#323232" stroke-width="2" stroke-linecap="round" stroke-linejoin="round"/>
<path fill-rule="evenodd" clip-rule="evenodd" d="M15.54 11.3026H10.4613C9.65333 11.3026 9 10.6493 9 9.84263V9.12663C9 8.31996 9.65333 7.66663 10.46 7.66663H15.5387C16.3467 7.66663 17 8.31996 17 9.12663V9.84129C17 10.6493 16.3467 11.3026 15.54 11.3026V11.3026Z" stroke="#323232" stroke-width="2" stroke-linecap="round" stroke-linejoin="round"/>
</svg>
