<svg width="24" height="24" viewBox="0 0 24 24" fill="none" xmlns="http://www.w3.org/2000/svg">
<path fill-rule="evenodd" clip-rule="evenodd" d="M3.62151 7.02788L3.76039 6.78736C6.01284 2.90731 10.7543 1.24718 14.9277 2.86573L15.173 2.96535C15.1815 2.96859 15.1898 2.97198 15.1982 2.97552L15.2064 2.97906C19.4302 4.77646 21.6571 9.43725 20.4007 13.8521L20.3255 14.1178C19.8743 15.7067 18.1325 16.5396 16.6119 15.8943L13.0391 14.3775L13.0257 14.3718L11.4567 13.7057L8.68255 20.2499H20C20.4142 20.2499 20.75 20.5857 20.75 20.9999C20.75 21.3796 20.4679 21.6934 20.1018 21.7431L20 21.7499H7.5667C7.55538 21.7502 7.54403 21.7502 7.53266 21.7499H4.00001C3.5858 21.7499 3.25001 21.4141 3.25001 20.9999C3.25001 20.6202 3.53217 20.3064 3.89824 20.2568L4.00001 20.2499H7.05334L10.076 13.1195L8.53256 12.4643C8.51212 12.4566 8.49215 12.4481 8.47268 12.4388L4.92399 10.9323C3.40349 10.2869 2.79299 8.45545 3.62151 7.02788ZM11.4075 12.0552C11.3897 12.046 11.3715 12.0373 11.3527 12.0294C11.3342 12.0215 11.3156 12.0145 11.2969 12.0082L9.64439 11.3067C10.2359 8.60004 11.9377 6.25428 14.3484 4.85563L14.4169 4.81591L14.436 4.89301L14.5074 5.20387C15.0641 7.81716 14.5405 10.541 13.0629 12.758L11.4075 12.0552ZM5.05852 7.53893C6.70497 4.70277 9.94587 3.28665 13.0662 3.88497C10.6496 5.4692 8.92743 7.91185 8.24261 10.7116L5.5101 9.55154C4.82015 9.2587 4.54325 8.42799 4.91968 7.77937L5.05852 7.53893ZM14.4647 13.3531L17.198 14.5135C17.888 14.8064 18.6779 14.4286 18.8824 13.7087L18.9577 13.4426C19.8583 10.2777 18.6169 6.96226 16.0244 5.13896C16.564 7.97947 16.0036 10.9155 14.4647 13.3531Z" fill="black"/>
</svg>
