<svg width="24" height="24" viewBox="0 0 24 24" fill="none" xmlns="http://www.w3.org/2000/svg">
<path fill-rule="evenodd" clip-rule="evenodd" d="M19.2461 9.26068C19.1199 5.36725 15.9241 2.25 12 2.25C8.07581 2.25 4.88004 5.36735 4.75387 9.26086C3.35004 9.38527 2.25 10.5637 2.25 12V15C2.25 16.5192 3.48079 17.75 5 17.75H6C6.96621 17.75 7.75 16.9662 7.75 16V11C7.75 10.1203 7.10021 9.39174 6.25458 9.2684C6.37611 6.2 8.90178 3.75 12 3.75C15.0982 3.75 17.6239 6.2 17.7454 9.2684C16.8998 9.39174 16.25 10.1203 16.25 11V16C16.25 16.6978 16.6589 17.3005 17.25 17.5815V18L17.2436 18.1279C17.1796 18.7585 16.6476 19.25 16 19.25H14.4729C14.1686 18.5043 13.4518 18 12.625 18H11.375C10.2708 18 9.375 18.8958 9.375 20L9.38241 20.1656C9.48863 21.22 10.3467 22 11.375 22H12.625C13.464 22 14.1827 21.4828 14.4795 20.75H16L16.1676 20.745C17.6087 20.6584 18.75 19.4629 18.75 18V17.75H19C20.5192 17.75 21.75 16.5192 21.75 15V12C21.75 10.5637 20.65 9.38527 19.2461 9.26086L19.2461 9.26068ZM13.1253 20.0212C13.1255 20.0269 13.1257 20.0325 13.126 20.0382C13.1248 20.276 12.9007 20.5 12.625 20.5H11.375C11.1184 20.5 10.9033 20.3045 10.8776 20.0519L10.874 19.9621C10.875 19.7242 11.0992 19.5 11.375 19.5H12.625C12.8816 19.5 13.0967 19.6955 13.1224 19.9481L13.1253 20.0212ZM18 16.25H19C19.6908 16.25 20.25 15.6908 20.25 15V12C20.25 11.3092 19.6908 10.75 19 10.75H18.5H18C17.8622 10.75 17.75 10.8622 17.75 11V16C17.75 16.1378 17.8622 16.25 18 16.25ZM5.5 10.75H5C4.30921 10.75 3.75 11.3092 3.75 12V15C3.75 15.6908 4.30921 16.25 5 16.25H6C6.13779 16.25 6.25 16.1378 6.25 16V11C6.25 10.8622 6.13779 10.75 6 10.75H5.5Z" fill="black"/>
</svg>
