<svg width="24" height="24" viewBox="0 0 24 24" fill="none" xmlns="http://www.w3.org/2000/svg">
<path fill-rule="evenodd" clip-rule="evenodd" d="M6.92613 4.20555L8.67298 3.973L10.0796 2.90008C11.2134 2.03364 12.7855 2.03364 13.9193 2.90001L15.323 3.972L17.0791 4.20658C18.4333 4.38714 19.5106 5.4145 19.7658 6.74257L19.7955 6.92548L20.027 8.674L21.0992 10.0801C21.9234 11.1602 21.963 12.6373 21.2166 13.7547L21.0988 13.9195L20.025 15.323L19.7914 17.0781C19.6108 18.4323 18.5835 19.5097 17.2554 19.7649L17.0724 19.7945L15.324 20.026L13.9194 21.0999C12.8395 21.9251 11.3622 21.9644 10.2445 21.2179L10.0797 21.1L8.67498 20.027L6.92085 19.7924C5.56665 19.6119 4.48931 18.5845 4.23413 17.2564L4.20448 17.0735L3.97198 15.324L2.89897 13.9193C2.07485 12.8404 2.03561 11.3623 2.78141 10.2452L2.89916 10.0805L3.97198 8.675L4.20756 6.92188C4.38812 5.56768 5.41547 4.49034 6.74326 4.23519L6.92613 4.20555ZM14.5717 5.286L13.0086 4.09193C12.4124 3.63636 11.5865 3.63636 10.9901 4.09214L9.52698 5.209L9.45167 5.28C9.37752 5.33828 9.28792 5.3839 9.18251 5.41174L9.07182 5.43346L7.12342 5.69251C6.37919 5.79106 5.79361 6.37603 5.69436 7.1204L5.43336 9.0724C5.40343 9.29626 5.30094 9.46077 5.18016 9.57631L5.15698 9.596L4.13021 10.94L4.00051 11.1222C3.63863 11.7035 3.66878 12.456 4.09093 13.0087L5.28593 14.5727C5.36541 14.6767 5.41628 14.7997 5.43348 14.9295L5.69149 16.8766C5.79003 17.6208 6.37501 18.2064 7.11937 18.3056L9.07137 18.5666C9.20081 18.5839 9.32349 18.6347 9.42727 18.714L10.9904 19.9081C11.5865 20.3636 12.4124 20.3636 13.0086 19.9081L14.469 18.792L14.4785 18.7811C14.5637 18.6929 14.6762 18.6242 14.8168 18.5872L14.9275 18.5655L16.8755 18.3075C17.6198 18.209 18.2053 17.624 18.3045 16.88L18.5645 14.928C18.582 14.7972 18.6335 14.6734 18.7141 14.569L19.9071 13.0086C20.3623 12.4129 20.3621 11.5867 19.9067 10.9899L18.7137 9.42587C18.6344 9.32194 18.5836 9.1991 18.5665 9.06953L18.3085 7.12245C18.2099 6.37821 17.6249 5.79264 16.881 5.69344L14.928 5.43344C14.7984 5.41619 14.6756 5.36536 14.5717 5.286ZM12 7.434C13.299 7.434 14.383 8.48589 14.4677 9.74818L14.473 9.907V10.4925C15.2085 10.6894 15.75 11.3604 15.75 12.158V14.21C15.75 15.1622 14.9782 15.934 14.026 15.934H9.97398C9.02176 15.934 8.24998 15.1622 8.24998 14.21V12.158C8.24998 11.3604 8.7915 10.6894 9.52698 10.4925V9.907C9.52698 8.54079 10.6338 7.434 12 7.434ZM10.277 11.934H9.97398C9.85019 11.934 9.74998 12.0342 9.74998 12.158V14.21C9.74998 14.3338 9.85019 14.434 9.97398 14.434H14.026C14.1498 14.434 14.25 14.3338 14.25 14.21V12.158C14.25 12.0342 14.1498 11.934 14.026 11.934H13.723H10.277ZM12.973 10.434H11.027V9.907L11.0335 9.79345C11.0897 9.30926 11.5006 8.934 12 8.934C12.5183 8.934 12.973 9.39747 12.973 9.907V10.434Z" fill="#323232"/>
</svg>
