<svg width="142" height="25" fill="none" xmlns="http://www.w3.org/2000/svg"><path fill-rule="evenodd" clip-rule="evenodd" d="M30.237 2.36c-.701-.619-1.558-1.083-2.61-1.47C25.445.116 23.185 0 21.43 0c-.545 0-1.09 0-1.636.039-2.572.077-4.832.812-6.664 2.206l-.117.077c-.623.464-1.207 1.045-1.714 1.625l-.039.078a2.136 2.136 0 0 1-.136.174c-.049.058-.098.116-.137.174l-.233.31c-.234.31-.43.619-.624.928a10.588 10.588 0 0 0-.818 1.626 9.134 9.134 0 0 1-1.13.077c-1.793 0-2.61-.503-3.585-1.122-.974-.62-2.104-1.316-4.208-1.316-.234 0-.39.155-.39.387v.426c0 .232.156.387.39.387 1.792 0 2.61.503 3.584 1.122.975.62 2.105 1.316 4.209 1.316 2.104 0 3.234-.697 4.208-1.316l.134-.08c.918-.55 1.742-1.042 3.45-1.042 1.793 0 2.612.503 3.586 1.122l.19.114c.524.316 1.071.647 1.836.854-.35.387-.78.851-1.208 1.315a.296.296 0 0 0-.156-.077c-.974-.62-2.104-1.316-4.208-1.316s-3.234.697-4.208 1.316l-.135.08c-.917.55-1.74 1.042-3.45 1.042-1.793 0-2.61-.503-3.585-1.122-.974-.62-2.104-1.316-4.208-1.316-.234 0-.39.155-.39.387v.426c0 .232.156.387.39.387 1.792 0 2.61.503 3.584 1.122.975.62 2.105 1.316 4.209 1.316 2.138 0 3.229-.693 4.201-1.312l.007-.004.134-.08c.918-.55 1.741-1.042 3.45-1.042 1.73 0 2.549.489 3.505 1.059l.042.024c-.357.355-.714.742-1.101 1.161l-.107.117a7.63 7.63 0 0 0-2.338-.349c-2.104 0-3.234.697-4.208 1.316l-.135.08c-.917.55-1.74 1.042-3.45 1.042-1.793 0-2.61-.503-3.585-1.122-.974-.62-2.104-1.316-4.208-1.316-.234 0-.39.155-.39.387v.426c0 .232.156.387.39.387 1.792 0 2.61.503 3.584 1.122.975.62 2.105 1.316 4.209 1.316 2.138 0 3.229-.693 4.201-1.312l.007-.004.134-.08c.918-.55 1.741-1.042 3.45-1.042.546 0 .975.039 1.365.116-.283.281-.567.58-.859.89-.31.328-.631.667-.973 1.006-1.794.076-2.84.71-3.725 1.244l-.054.034-.135.08c-.917.549-1.74 1.042-3.45 1.042-1.793 0-2.61-.503-3.585-1.122-.974-.62-2.104-1.316-4.208-1.316-.234 0-.39.155-.39.387v.541c0 .233.156.388.39.388 1.792 0 2.61.503 3.584 1.122.975.619 2.105 1.316 4.209 1.316 2.104 0 3.234-.697 4.208-1.316.546-.348 1.052-.658 1.715-.852-1.091 1.084-2.377 2.168-3.663 3.212-.39.31-.78.62-1.17.89a8.465 8.465 0 0 1-1.09.078c-1.793 0-2.61-.503-3.585-1.122-.974-.62-2.104-1.316-4.208-1.316-.234 0-.39.155-.39.387v.426c0 .232.156.387.39.387 1.792 0 2.61.503 3.584 1.122.975.619 2.105 1.316 4.209 1.316.312 0 .584 0 .857-.04 1.831 3.058 5.611 3.368 8.69 3.561.506.039 1.012.039 1.48.039 2.65 0 4.988-.542 6.975-1.548 4.715-2.477 6.585-8.36 6.78-13.08.156-2.052-.117-5.805-2.728-8.011Zm-9.975 3.793c-.974-.619-2.104-1.316-4.208-1.316-2.138 0-3.23.694-4.202 1.312l-.006.004c-.39.232-.78.465-1.208.658.039-.077.087-.164.136-.251.049-.087.097-.175.136-.252.312-.503.624-1.006.974-1.432l.079-.116a8.839 8.839 0 0 1 1.48-1.47l.234-.194.078-.077c1.675-1.239 3.74-1.935 6.117-1.974.25 0 .507-.01.77-.019.273-.01.55-.02.828-.02 1.52 0 3.819.078 5.845.813.935.348 1.714.774 2.299 1.277.818.697 1.364 1.587 1.753 2.515-.896-1.16-1.441-1.586-2.22-1.586-.234 0-.43.038-.663.155a3.942 3.942 0 0 0-.292.135 3.922 3.922 0 0 1-.293.135 1.825 1.825 0 0 1-.39.194 2.087 2.087 0 0 0-.934-.232c-.39 0-.702.116-.974.232-.78 0-1.286.426-1.793 1.084-.14.178-.33.397-.558.657-.215.247-.462.531-.728.852-.91-.264-1.524-.637-2.202-1.049l-.058-.035Zm11.768 4.218.35.349c.04-.116.04-.232.04-.349 0-.386 0-.85.077-1.818-.2-.248-.367-.48-.524-.697a20.777 20.777 0 0 0-.255-.348l-.234-.349a.68.68 0 0 1-.156-.193c-.02-.039-.048-.077-.078-.116-.029-.039-.058-.078-.077-.116-.02-.02-.04-.049-.059-.078a.544.544 0 0 0-.058-.077.681.681 0 0 1-.156-.194c-.02-.019-.04-.048-.059-.077a.53.53 0 0 0-.058-.077.53.53 0 0 1-.059-.078c-.019-.029-.038-.058-.058-.077a.53.53 0 0 1-.058-.078c-.02-.029-.04-.058-.059-.077l-.117-.116c-.039-.039-.078-.087-.117-.135-.039-.049-.078-.097-.117-.136l-.078-.077-.116-.116-.078-.078c-.024 0-.034-.015-.046-.035-.008-.013-.017-.027-.032-.042l-.078-.078-.078-.077c-.02 0-.03-.01-.04-.02-.009-.01-.019-.019-.038-.019-.02 0-.03-.01-.039-.02-.01-.009-.02-.018-.039-.018-.02 0-.03-.01-.039-.02-.01-.01-.02-.02-.039-.02-.02 0-.03-.009-.039-.018-.01-.01-.02-.02-.039-.02-.022-.022-.032-.032-.043-.036-.009-.003-.018-.003-.035-.003-.039-.038-.078-.038-.078-.038h-.233c-.02 0-.04.01-.059.02-.02.009-.039.018-.058.018-.167.075-.325.153-.474.227-.55.272-.99.49-1.358.277-.437-.254-.67-.169-1.05-.03l-.08.03c-.147.06-.251.06-.348.06-.213 0-.39-.001-.899.636-.02.02-.039.049-.058.078a.53.53 0 0 1-.059.077c0 .02-.01.029-.02.039-.009.01-.019.019-.019.038l-.117.116-.077.078a.537.537 0 0 0-.059.077.53.53 0 0 1-.058.078l-.078.077-.234.232c-.273.31-.623.697-1.052 1.161a40.25 40.25 0 0 1-1.48 1.626c-.274.31-.585.657-.936 1.006-.117.155-.234.27-.39.425-.078.097-.165.184-.253.271-.088.088-.175.175-.253.271 0 0 .312-.232.74-.541.117-.117.273-.233.429-.349.195-.135.4-.28.604-.426.204-.145.409-.29.604-.425.02-.02.039-.03.058-.039.02-.01.04-.02.059-.039l.039-.038a.204.204 0 0 1 .058-.039c.02-.01.039-.02.059-.039.019 0 .029-.01.038-.019.01-.01.02-.02.04-.02.019 0 .029-.009.038-.019.01-.01.02-.02.04-.02.019 0 .029-.009.038-.018.01-.01.02-.02.04-.02.019 0 .029-.01.038-.02.01-.009.02-.018.04-.018.019 0 .028-.01.038-.02.01-.01.02-.02.04-.02.019 0 .028-.009.038-.019.01-.01.02-.019.04-.019.019 0 .028-.01.038-.02.01-.009.02-.019.039-.019.039 0 .078-.038.078-.038.02 0 .03-.01.039-.02.01-.01.02-.019.039-.019 0-.039.039-.039.039-.039s.039-.038.078-.038h.234v.154c0 .04 0 .078-.04.117-.059.059-.096.14-.127.21a1.57 1.57 0 0 1-.028.06c0 .02-.01.03-.02.04-.01.009-.02.018-.02.038l-.116.232-.145.249c-.23.389-.381.647-.479 1.067 0 .039-.01.068-.02.097-.009.029-.019.058-.019.096v.039c0 .039-.01.068-.019.097a.283.283 0 0 0-.02.096v.04c0 .038-.01.086-.019.135-.01.048-.02.096-.02.135 0 .02-.01.049-.019.078-.01.028-.02.058-.02.077v.039c0 .077 0 .116-.038.193v.039c0 .077-.04.155-.078.232-.04 0-.04.039-.04.039-.019.038-.029.077-.038.116a.545.545 0 0 1-.04.116c-.194.503-.389 1.045-.467 1.316V14.59c0 .039.04.039.04.039h.038l.04-.04.077-.077c.128-.127.29-.373.487-.67.101-.152.212-.32.331-.49.059-.078.107-.155.156-.233.049-.077.098-.155.156-.232.058-.077.107-.155.156-.232.049-.078.097-.155.156-.232.078-.155.195-.31.311-.465.078-.155.195-.31.312-.464.429-.58.857-1.084 1.13-1.277.04-.039.078-.078.117-.078.023-.022.032-.031.043-.035.009-.003.018-.003.035-.003h.078c.039 0 .078 0 .078.038.156.194.195.62.195 1.161 0 .31 0 .658-.04 1.006 0 .078-.009.165-.019.252s-.02.174-.02.252v.038c0 .078-.009.155-.019.232-.01.078-.02.155-.02.233-.077.58-.116 1.083-.077 1.277v.039a5.09 5.09 0 0 0 .234-.537c.121-.302.277-.69.467-1.089 0-.02.01-.029.02-.039.01-.01.02-.019.02-.038.019-.02.028-.049.038-.078a.193.193 0 0 1 .04-.077c.022-.022.031-.032.035-.043.003-.009.003-.018.003-.034 0-.04.04-.117.078-.194 0-.02.01-.029.02-.039.01-.01.019-.02.019-.038 0-.057.02-.093.047-.139.01-.016.02-.034.03-.055v-.039a.841.841 0 0 0 .118-.193l.039-.039c.02-.039.039-.068.058-.097.02-.029.04-.058.059-.096a.846.846 0 0 1 .058-.097c.02-.03.04-.058.059-.097l.039-.038a.847.847 0 0 1 .058-.097c.02-.03.039-.058.058-.097.02-.02.04-.048.059-.077a.541.541 0 0 1 .058-.078c.04 0 .04-.038.04-.038.019-.02.038-.049.058-.078.02-.029.039-.058.058-.077l.117-.116.04-.04a.539.539 0 0 0 .155-.115h.039a.206.206 0 0 1 .058-.039c.02-.01.04-.02.059-.039h.039a.91.91 0 0 0 .074-.042c.034-.02.058-.035.082-.035h.039c.039-.039.078-.039.117-.039h.234c.019 0 .038.01.058.02.02.01.039.019.058.019h.04c.029.015.053.024.074.032.033.012.057.021.081.045 0 .04.039.04.039.04l.117.115c.054.027.09.073.12.111.012.017.024.032.036.044l.039.039c.078.038.117.116.156.193.467.774.896 1.393 1.285 1.858.04 0 .04.039.04.039.116.116.194.193.272.31v.038c.35.425.624.696.78.774.038.039.077.039.116.039.04 0 .078 0 .078-.04v-.309c0-.077 0-.116-.039-.193l-.09-.264c-.1-.29-.21-.613-.3-.936l-.075-.273c-.09-.321-.175-.624-.236-.927a1.185 1.185 0 0 1-.039-.155 1.189 1.189 0 0 0-.039-.154.756.756 0 0 0-.02-.136.75.75 0 0 1-.019-.135c0-.039-.01-.078-.02-.116a.48.48 0 0 1-.019-.116v-.04c-.039-.077-.039-.115-.039-.193v-.387c.04-.038.04-.077.04-.116v-.038c0-.04 0-.078.038-.116 0-.04.039-.078.078-.078h.156c.039 0 .117 0 .156.039a.993.993 0 0 0 .039.018c.052.023.078.035.078.098h.039c.039.02.068.039.097.058.03.02.058.039.097.058h.04c.194.155.428.348.662.58Z" fill="#000"/><path d="M43.777 4.426h3.708l2.965 12.121h.196l6.967-12.12h3.708l-2.777 16.727h-2.908l1.912-11.492H57.4l-6.535 11.443h-2.164L45.99 9.637h-.155l-1.927 11.517H41l2.777-16.728ZM65.29 21.407c-.794 0-1.486-.142-2.074-.425a2.757 2.757 0 0 1-1.299-1.274c-.272-.56-.34-1.252-.204-2.075.12-.707.349-1.293.686-1.756a3.961 3.961 0 0 1 1.258-1.11 6.293 6.293 0 0 1 1.633-.637 14.332 14.332 0 0 1 1.814-.31 48.968 48.968 0 0 0 1.821-.213c.468-.066.82-.164 1.054-.294a.854.854 0 0 0 .424-.621v-.049c.098-.615 0-1.092-.294-1.43-.294-.337-.784-.506-1.47-.506-.718 0-1.323.158-1.813.474-.49.316-.847.689-1.07 1.119l-2.679-.392c.338-.762.8-1.4 1.389-1.911a5.839 5.839 0 0 1 2.033-1.16 7.677 7.677 0 0 1 2.475-.392c.599 0 1.184.07 1.756.212a4.226 4.226 0 0 1 1.527.703c.447.32.774.76.98 1.315.213.555.248 1.25.107 2.082l-1.397 8.397h-2.842l.294-1.724H69.3c-.234.349-.54.675-.915.98-.376.3-.822.542-1.34.727-.517.18-1.102.27-1.756.27Zm1.12-2.173c.593 0 1.127-.117 1.6-.351.474-.24.863-.555 1.168-.947.305-.392.496-.82.572-1.283l.245-1.478a1.753 1.753 0 0 1-.506.212 7.417 7.417 0 0 1-.768.172c-.278.049-.553.092-.825.13-.272.039-.506.071-.703.098-.451.06-.865.158-1.24.294-.371.137-.679.327-.924.572-.24.24-.39.55-.45.931-.086.54.042.95.385 1.234.343.277.825.416 1.445.416ZM74.92 21.154l2.091-12.546h2.957l-2.091 12.546H74.92ZM78.922 6.81c-.474 0-.865-.158-1.176-.473a1.38 1.38 0 0 1-.408-1.136c.038-.44.237-.82.596-1.135a1.856 1.856 0 0 1 1.25-.474c.473 0 .863.158 1.168.474.31.316.446.694.408 1.135-.033.441-.232.82-.596 1.136-.36.315-.773.473-1.242.473ZM86.65 4.426l-2.776 16.728h-2.957l2.777-16.728h2.957ZM89.822 4.426h3.708l2.965 12.121h.196l6.967-12.12h3.708l-2.777 16.727h-2.908l1.912-11.492h-.148l-6.534 11.443h-2.164L92.035 9.637h-.155l-1.927 11.517h-2.908l2.777-16.728ZM111.335 21.407c-.795 0-1.486-.142-2.074-.425a2.76 2.76 0 0 1-1.299-1.274c-.272-.56-.34-1.252-.204-2.075.12-.707.348-1.293.686-1.756a3.955 3.955 0 0 1 1.258-1.11 6.292 6.292 0 0 1 1.633-.637 14.338 14.338 0 0 1 1.814-.31 49.059 49.059 0 0 0 1.821-.213c.468-.066.819-.164 1.054-.294a.853.853 0 0 0 .424-.621v-.049c.098-.615 0-1.092-.294-1.43-.294-.337-.784-.506-1.47-.506-.719 0-1.323.158-1.813.474-.49.316-.847.689-1.07 1.119l-2.679-.392c.338-.762.8-1.4 1.388-1.911a5.847 5.847 0 0 1 2.034-1.16 7.676 7.676 0 0 1 2.475-.392c.599 0 1.184.07 1.756.212a4.225 4.225 0 0 1 1.527.703c.447.32.774.76.98 1.315.213.555.248 1.25.107 2.082l-1.397 8.397h-2.842l.294-1.724h-.098a4.506 4.506 0 0 1-.915.98 4.63 4.63 0 0 1-1.34.727c-.517.18-1.102.27-1.756.27Zm1.119-2.173c.594 0 1.127-.117 1.601-.351.474-.24.863-.555 1.168-.947.305-.392.496-.82.572-1.283l.245-1.478a1.76 1.76 0 0 1-.506.212 7.447 7.447 0 0 1-.768.172c-.278.049-.553.092-.825.13-.272.039-.507.071-.703.098a5.94 5.94 0 0 0-1.241.294c-.37.137-.678.327-.923.572-.24.24-.389.55-.449.931-.087.54.041.95.384 1.234.343.277.825.416 1.445.416ZM129.32 8.608l-.383 2.287h-7.204l.375-2.287h7.212Zm-4.941-3.006h2.957l-1.96 11.778c-.06.398-.049.703.032.915a.743.743 0 0 0 .417.425c.196.076.416.114.661.114.18 0 .349-.014.507-.04.158-.034.283-.058.375-.074l.131 2.311c-.18.055-.422.114-.727.18a5.844 5.844 0 0 1-1.078.114c-.751.017-1.405-.098-1.96-.343a2.42 2.42 0 0 1-1.209-1.151c-.25-.523-.308-1.177-.171-1.96l2.025-12.269ZM135.089 21.399c-1.258 0-2.298-.262-3.12-.784-.822-.529-1.4-1.275-1.732-2.238-.326-.97-.381-2.11-.163-3.423.212-1.29.645-2.423 1.299-3.397a7.014 7.014 0 0 1 2.45-2.287c.985-.55 2.074-.825 3.267-.825.773 0 1.484.125 2.132.376a3.999 3.999 0 0 1 1.641 1.143c.447.517.755 1.176.923 1.977.169.794.161 1.742-.024 2.842l-.139.907h-10.291l.318-1.993h7.449c.098-.567.066-1.07-.098-1.511a2.098 2.098 0 0 0-.817-1.054c-.381-.256-.857-.384-1.429-.384a3.15 3.15 0 0 0-1.633.45 4.168 4.168 0 0 0-1.266 1.143 3.55 3.55 0 0 0-.654 1.478l-.335 1.911c-.12.784-.092 1.424.082 1.92.174.495.479.86.915 1.094.435.234.985.351 1.65.351.435 0 .838-.06 1.208-.18.371-.12.7-.299.989-.538.294-.245.539-.545.735-.899l2.703.31a5.435 5.435 0 0 1-1.315 1.912 6.118 6.118 0 0 1-2.074 1.258c-.801.294-1.691.44-2.671.44Z" fill="#000"/></svg>
