<?xml version="1.0" encoding="UTF-8"?>
<svg width="78px" height="74px" viewBox="0 0 78 74" version="1.1" xmlns="http://www.w3.org/2000/svg" xmlns:xlink="http://www.w3.org/1999/xlink">
    <title>send@1.5x</title>
    <g id="Home" stroke="none" stroke-width="1" fill="none" fill-rule="evenodd">
        <g id="Mailmate-home" transform="translate(-822.000000, -1323.000000)" fill="#CA2228" fill-rule="nonzero">
            <g id="Why-to-choose-us?" transform="translate(-11.000000, 635.000000)">
                <g id="Group-12" transform="translate(752.000000, 656.000000)">
                    <g id="send" transform="translate(81.000000, 32.000000)">
                        <polygon id="Path" points="73.7638653 47.9570018 73.7638653 45.368796 76.3520711 45.368796 76.3520711 42.7805902 73.7638653 42.7805902 73.7638653 40.1923844 71.1756595 40.1923844 71.1756595 42.7805902 68.5874537 42.7805902 68.5874537 45.368796 71.1756595 45.368796 71.1756595 47.9570018"></polygon>
                        <polygon id="Path" points="25.882058 50.5452076 25.882058 53.1334134 23.2938522 53.1334134 23.2938522 55.7216192 25.882058 55.7216192 25.882058 58.309825 28.4702638 58.309825 28.4702638 55.7216192 31.0584696 55.7216192 31.0584696 53.1334134 28.4702638 53.1334134 28.4702638 50.5452076"></polygon>
                        <polygon id="Path" points="34.9407783 0.075194496 34.9407783 2.6634003 32.3525725 2.6634003 32.3525725 5.2516061 34.9407783 5.2516061 34.9407783 7.8398119 37.5289841 7.8398119 37.5289841 5.2516061 40.1171899 5.2516061 40.1171899 2.6634003 37.5289841 2.6634003 37.5289841 0.075194496"></polygon>
                        <polygon id="Path" points="15.5292348 22.0749438 33.6466754 22.0749438 33.6466754 24.6631496 15.5292348 24.6631496"></polygon>
                        <polygon id="Path" points="0 41.4864873 12.941029 41.4864873 12.941029 44.0746931 0 44.0746931"></polygon>
                        <polygon id="Path" points="0 62.1921337 12.941029 62.1921337 12.941029 64.7803395 0 64.7803395"></polygon>
                        <polygon id="Path" points="0 27.2513554 15.5292348 27.2513554 15.5292348 29.8395612 0 29.8395612"></polygon>
                        <polygon id="Path" points="10.3528232 22.0749438 12.941029 22.0749438 12.941029 24.6631496 10.3528232 24.6631496"></polygon>
                        <polygon id="Path" points="2.5882058 33.7218699 10.3528232 33.7218699 10.3528232 36.3100757 2.5882058 36.3100757"></polygon>
                        <polygon id="Path" points="2.5882058 67.3685453 12.941029 67.3685453 12.941029 69.9567511 2.5882058 69.9567511"></polygon>
                        <path d="M49.1759102,46.6628989 C48.4612469,46.6628989 47.8818073,47.2423385 47.8818073,47.9570018 L47.8818073,58.309825 C47.8818073,59.0244881 48.4612469,59.6039279 49.1759102,59.6039279 L64.705145,59.6039279 C65.4198083,59.6039279 65.9992479,59.0244881 65.9992479,58.309825 L65.9992479,47.9570018 C65.9992479,47.2423385 65.4198083,46.6628989 64.705145,46.6628989 L49.1759102,46.6628989 Z M60.4348581,49.2511047 L56.9405276,51.5808691 L53.4461971,49.2511047 L60.4348581,49.2511047 Z M63.4110421,57.0157221 L50.4700131,57.0157221 L50.4700131,50.3745982 L56.222073,54.2101474 C56.6574426,54.5008151 57.2236126,54.5008151 57.6589821,54.2101474 L63.4110421,50.3745982 L63.4110421,57.0157221 Z" id="Shape"></path>
                        <path d="M15.5292348,62.1921337 L15.5292348,72.5449569 C15.5292348,73.25962 16.1086744,73.8390598 16.8233377,73.8390598 L32.3525725,73.8390598 C33.0672358,73.8390598 33.6466754,73.25962 33.6466754,72.5449569 L33.6466754,62.1921337 C33.6466754,61.4774704 33.0672358,60.8980308 32.3525725,60.8980308 L16.8233377,60.8980308 C16.1086744,60.8980308 15.5292348,61.4774704 15.5292348,62.1921337 Z M28.0822856,63.4862366 L24.5879551,65.816001 L21.0936246,63.4862366 L28.0822856,63.4862366 Z M18.1174406,64.6097301 L23.8695005,68.4452793 C24.3048701,68.735947 24.8710401,68.735947 25.3064096,68.4452793 L31.0584696,64.6097301 L31.0584696,71.250854 L18.1174406,71.250854 L18.1174406,64.6097301 Z" id="Shape"></path>
                        <path d="M27.1761609,1.3692974 L11.6469261,1.3692974 C10.9322628,1.3692974 10.3528232,1.94873698 10.3528232,2.6634003 L10.3528232,13.0162235 C10.3528232,13.7308866 10.9322628,14.3103264 11.6469261,14.3103264 L27.1761609,14.3103264 C27.8908242,14.3103264 28.4702638,13.7308866 28.4702638,13.0162235 L28.4702638,2.6634003 C28.4702638,1.94873698 27.8908242,1.3692974 27.1761609,1.3692974 Z M22.905874,3.9575032 L19.4115435,6.28726759 L15.917213,3.9575032 L22.905874,3.9575032 Z M25.882058,11.7221206 L12.941029,11.7221206 L12.941029,5.08099675 L18.693089,8.91654595 C19.1284585,9.20721359 19.6946285,9.20721359 20.129998,8.91654595 L25.882058,5.08099675 L25.882058,11.7221206 Z" id="Shape"></path>
                        <path d="M75.0579682,18.1926351 L75.0579682,7.8398119 C75.0579682,7.12514858 74.4785286,6.545709 73.7638653,6.545709 L58.2346305,6.545709 C57.5199672,6.545709 56.9405276,7.12514858 56.9405276,7.8398119 L56.9405276,18.1926351 C56.9405276,18.9072982 57.5199672,19.486738 58.2346305,19.486738 L73.7638653,19.486738 C74.4785286,19.486738 75.0579682,18.9072982 75.0579682,18.1926351 Z M69.4935784,9.1339148 L65.9992479,11.4636792 L62.5049174,9.1339148 L69.4935784,9.1339148 Z M72.4697624,16.8985322 L59.5287334,16.8985322 L59.5287334,10.2574083 L65.2807933,14.0929575 C65.7161629,14.3836252 66.2823329,14.3836252 66.7177024,14.0929575 L72.4697624,10.2574083 L72.4697624,16.8985322 Z" id="Shape"></path>
                        <polygon id="Path" points="0 3.9575032 7.7646174 3.9575032 7.7646174 6.545709 0 6.545709"></polygon>
                        <polygon id="Path" points="2.5882058 9.1339148 7.7646174 9.1339148 7.7646174 11.7221206 2.5882058 11.7221206"></polygon>
                        <polygon id="Path" points="41.4112928 9.1339148 54.3523218 9.1339148 54.3523218 11.7221206 41.4112928 11.7221206"></polygon>
                        <polygon id="Path" points="43.9994986 14.3103264 54.3523218 14.3103264 54.3523218 16.8985322 43.9994986 16.8985322"></polygon>
                        <polygon id="Path" points="34.9407783 54.4275163 45.2936015 54.4275163 45.2936015 57.0157221 34.9407783 57.0157221"></polygon>
                        <polygon id="Path" points="37.5289841 49.2511047 45.2936015 49.2511047 45.2936015 51.8393105 37.5289841 51.8393105"></polygon>
                        <polygon id="Path" points="5.1764116 50.5452076 7.7646174 50.5452076 7.7646174 53.1334134 5.1764116 53.1334134"></polygon>
                        <polygon id="Path" points="32.3525725 14.3103264 34.9407783 14.3103264 34.9407783 16.8985322 32.3525725 16.8985322"></polygon>
                        <polygon id="Path" points="50.4700131 1.3692974 53.0582189 1.3692974 53.0582189 3.9575032 50.4700131 3.9575032"></polygon>
                        <polygon id="Path" points="45.2936015 63.4862366 47.8818073 63.4862366 47.8818073 66.0744424 45.2936015 66.0744424"></polygon>
                        <polygon id="Path" points="63.4110421 23.3690467 65.9992479 23.3690467 65.9992479 25.9572525 63.4110421 25.9572525"></polygon>
                        <path d="M76.7855451,33.8033832 L40.5506639,20.8623542 C40.0799086,20.6923768 39.5535474,20.8105396 39.200955,21.1656595 L31.816733,28.5454583 L21.9997493,28.5454583 C21.6566351,28.5460901 21.3274224,28.6819457 21.0847781,28.92459 L13.3201607,36.6892074 C12.9505073,37.0594926 12.8392954,37.6161843 13.0396032,38.0995774 C13.2399111,38.5829702 13.7119301,38.8982815 14.2351319,38.8982815 L21.4639098,38.8982815 L12.0260578,48.3361335 C11.6564044,48.7064187 11.5451925,49.2631104 11.7455003,49.7465035 C11.9458082,50.2298963 12.4178272,50.5452076 12.941029,50.5452076 C13.0364439,50.5452076 13.1312267,50.5350974 13.2247459,50.5142452 L76.6357879,36.2791133 C77.1924796,36.1489447 77.5981506,35.6687112 77.6329044,35.0974861 C77.667658,34.526261 77.3232801,33.9998998 76.7855451,33.8033832 L76.7855451,33.8033832 Z M40.4533533,23.5687227 L68.8825446,33.7218699 L30.3002062,33.7218699 L40.4533533,23.5687227 Z M17.3591772,36.3100757 L22.5355888,31.1336641 L29.2285272,31.1336641 L24.0521156,36.3100757 L17.3591772,36.3100757 Z M17.0110079,47.0123319 L27.7120004,36.3100757 L64.6792377,36.3100757 L17.0110079,47.0123319 Z" id="Shape"></path>
                    </g>
                </g>
            </g>
        </g>
    </g>
</svg>