<?xml version="1.0" encoding="UTF-8"?>
<svg xmlns="http://www.w3.org/2000/svg" xmlns:xlink="http://www.w3.org/1999/xlink" width="24px" height="24px" viewBox="0 0 24 24" version="1.1">
<g id="surface1">
<path style=" stroke:none;fill-rule:nonzero;fill:rgb(0%,0%,0%);fill-opacity:1;" d="M 16.453125 10.910156 L 16.453125 6.496094 L 17.46875 6.496094 L 17.46875 1.929688 L 12.476562 1.929688 L 12.476562 0 L 6.730469 0 L 6.730469 1.929688 L 1.738281 1.929688 L 1.738281 6.496094 L 2.753906 6.496094 L 2.753906 21.96875 L 10.949219 21.96875 C 12.144531 23.21875 13.832031 24 15.691406 24 C 19.3125 24 22.261719 21.054688 22.261719 17.433594 C 22.261719 14.070312 19.71875 11.289062 16.453125 10.910156 Z M 14.933594 10.910156 C 14.015625 11.015625 13.15625 11.3125 12.394531 11.753906 L 12.394531 6.496094 L 14.933594 6.496094 Z M 8.253906 1.523438 L 10.953125 1.523438 L 10.953125 1.929688 L 8.253906 1.929688 Z M 3.261719 3.449219 L 15.945312 3.449219 L 15.945312 4.972656 L 3.261719 4.972656 Z M 4.277344 6.496094 L 6.8125 6.496094 L 6.8125 20.449219 L 4.277344 20.449219 Z M 8.335938 20.449219 L 8.335938 6.496094 L 10.871094 6.496094 L 10.871094 12.976562 C 9.789062 14.148438 9.125 15.714844 9.125 17.433594 C 9.125 18.519531 9.390625 19.542969 9.859375 20.449219 Z M 15.691406 22.476562 C 12.910156 22.476562 10.648438 20.214844 10.648438 17.433594 C 10.648438 14.652344 12.910156 12.386719 15.691406 12.386719 C 18.476562 12.386719 20.738281 14.652344 20.738281 17.433594 C 20.738281 20.214844 18.476562 22.476562 15.691406 22.476562 Z M 15.691406 22.476562 "/>
<path style=" stroke:none;fill-rule:nonzero;fill:rgb(0%,0%,0%);fill-opacity:1;" d="M 17.367188 14.683594 L 15.691406 16.355469 L 14.019531 14.683594 L 12.945312 15.761719 L 14.617188 17.433594 L 12.945312 19.105469 L 14.019531 20.179688 L 15.691406 18.507812 L 17.367188 20.179688 L 18.441406 19.105469 L 16.769531 17.433594 L 18.441406 15.761719 Z M 17.367188 14.683594 "/>
</g>
</svg>