<?xml version="1.0" encoding="UTF-8"?>
<svg xmlns="http://www.w3.org/2000/svg" xmlns:xlink="http://www.w3.org/1999/xlink" width="24px" height="24px" viewBox="0 0 24 24" version="1.1">
<g id="surface1">
<path style=" stroke:none;fill-rule:nonzero;fill:rgb(0%,0%,0%);fill-opacity:1;" d="M 23.433594 9.566406 L 20.222656 9.566406 L 20.222656 7.1875 C 20.222656 6.875 19.96875 6.621094 19.65625 6.621094 L 11.980469 6.621094 L 10.625 3.734375 C 10.53125 3.535156 10.332031 3.40625 10.113281 3.40625 L 0.566406 3.40625 C 0.253906 3.40625 0 3.660156 0 3.972656 L 0 20.027344 C 0 20.335938 0.25 20.59375 0.566406 20.59375 L 19.65625 20.59375 C 19.890625 20.59375 20.101562 20.445312 20.1875 20.226562 L 23.960938 10.335938 C 24.105469 9.964844 23.828125 9.566406 23.433594 9.566406 Z M 1.132812 4.539062 L 9.753906 4.539062 L 11.109375 7.429688 C 11.203125 7.628906 11.402344 7.753906 11.621094 7.753906 L 19.089844 7.753906 L 19.089844 9.566406 L 4.34375 9.566406 C 4.105469 9.566406 3.898438 9.710938 3.8125 9.929688 L 1.132812 16.953125 Z M 19.265625 19.460938 L 1.390625 19.460938 L 4.730469 10.699219 C 5.546875 10.699219 21.796875 10.699219 22.609375 10.699219 Z M 19.265625 19.460938 "/>
</g>
</svg>
