<?xml version="1.0" encoding="UTF-8"?>
<svg xmlns="http://www.w3.org/2000/svg" xmlns:xlink="http://www.w3.org/1999/xlink" width="24px" height="24px" viewBox="0 0 24 24" version="1.1">
<g id="surface1">
<path style=" stroke:none;fill-rule:nonzero;fill:rgb(0%,0%,0%);fill-opacity:1;" d="M 23.9375 11.1875 L 19.492188 19.597656 C 19.214844 20.1875 18.648438 20.414062 18.390625 20.414062 L 1.257812 20.417969 C 0.5625 20.417969 0 19.851562 0 19.160156 L 0.0234375 8.363281 L 0.0117188 5.171875 C 0.0117188 5.019531 0.0703125 4.875 0.175781 4.765625 C 0.285156 4.65625 0.433594 4.597656 0.585938 4.597656 L 5.039062 4.597656 C 5.277344 4.597656 5.492188 4.742188 5.578125 4.964844 L 6.390625 7.105469 L 11.265625 7.105469 C 10.785156 7.417969 10.328125 7.804688 9.898438 8.25 L 5.996094 8.25 C 5.757812 8.25 5.546875 8.105469 5.460938 7.882812 L 4.644531 5.742188 L 1.144531 5.742188 L 1.148438 8.359375 L 1.148438 19.160156 C 1.148438 19.21875 1.195312 19.269531 1.257812 19.269531 L 2.605469 19.269531 L 6.601562 11.1875 C 6.824219 10.734375 7.25 10.371094 7.703125 10.371094 L 14.09375 10.371094 C 13.429688 10.855469 13.140625 11.742188 13.449219 12.542969 C 13.726562 13.257812 14.425781 13.738281 15.191406 13.738281 C 15.417969 13.738281 15.640625 13.699219 15.859375 13.617188 L 20.875 11.6875 C 21.472656 11.457031 21.882812 10.953125 22.019531 10.371094 L 23.121094 10.371094 C 23.570312 10.371094 24.203125 10.675781 23.9375 11.1875 Z M 9.953125 9.640625 L 12.527344 9.640625 C 12.546875 9.640625 12.566406 9.644531 12.589844 9.644531 C 13.074219 9.203125 13.589844 8.882812 14.136719 8.707031 C 15.714844 8.203125 17.296875 8.902344 18.199219 9.4375 L 15.191406 10.59375 C 14.675781 10.792969 14.414062 11.375 14.613281 11.890625 C 14.765625 12.289062 15.148438 12.535156 15.550781 12.535156 C 15.671875 12.535156 15.792969 12.515625 15.910156 12.46875 L 20.929688 10.542969 C 21.445312 10.34375 21.703125 9.761719 21.503906 9.246094 L 19.578125 4.226562 C 19.378906 3.710938 18.796875 3.453125 18.28125 3.648438 C 17.765625 3.847656 17.507812 4.429688 17.703125 4.945312 L 18.644531 7.390625 C 17.378906 6.753906 15.515625 6.167969 13.542969 6.792969 C 12.160156 7.230469 10.964844 8.183594 9.953125 9.640625 Z M 9.953125 9.640625 "/>
</g>
</svg>
