<?xml version="1.0" encoding="UTF-8"?>
<svg width="24px" height="25px" viewBox="0 0 24 25" version="1.1" xmlns="http://www.w3.org/2000/svg" xmlns:xlink="http://www.w3.org/1999/xlink">
    <title>Group 2</title>
    <g id="App" stroke="none" stroke-width="1" fill="none" fill-rule="evenodd">
        <g id="TokyoMate-App---Mail---Unopened" transform="translate(-1287.000000, -54.000000)">
            <g id="Buttons-/-Icon-Button-/-Small" transform="translate(1281.000000, 48.000000)">
                <g id="Icon" transform="translate(6.000000, 6.000000)">
                    <g id="Group-2" transform="translate(0.000000, 0.028000)">
                        <polygon id="Path" points="24 1.3079815e-15 0 1.3079815e-15 0 24 24 24"></polygon>
                        <path d="M19.4462117,17.3970518 L19.5303301,17.4696699 L21.5303301,19.4696699 C21.5557782,19.495118 21.5794061,19.5223864 21.6010016,19.551263 L21.5303301,19.4696699 C21.5673834,19.5067232 21.5997491,19.5466889 21.6274273,19.5888302 C21.6405922,19.6089851 21.6529723,19.6299725 21.664329,19.6515818 C21.6691626,19.6607036 21.6735192,19.6694344 21.6776949,19.6782296 C21.690442,19.7050181 21.7019466,19.7334779 21.7116971,19.7627395 C21.7139554,19.7696832 21.7158799,19.7757544 21.7177252,19.7818445 C21.7386468,19.8503231 21.75,19.9238357 21.75,20 C21.75,20.0383922 21.7471153,20.0761107 21.7415508,20.1129505 C21.7397462,20.1245181 21.7376905,20.1362278 21.7353557,20.1478927 C21.730412,20.1728958 21.7242388,20.1971921 21.7169138,20.2209837 C21.7132873,20.2326435 21.7092554,20.2446929 21.7049093,20.256654 C21.696425,20.2799516 21.6871231,20.3020202 21.6768269,20.3235218 C21.6713347,20.3351229 21.6650317,20.3474599 21.658365,20.359651 C21.6451298,20.3836668 21.6310246,20.4063902 21.6157838,20.4282634 C21.6118625,20.4340051 21.6074572,20.4401347 21.6029482,20.4462117 C21.5971451,20.4538569 21.5954427,20.4560847 21.5937281,20.4583026 L21.5303301,20.5303301 L19.5303301,22.5303301 C19.2374369,22.8232233 18.7625631,22.8232233 18.4696699,22.5303301 C18.2034034,22.2640635 18.1791973,21.8473998 18.3970518,21.5537883 L18.4696699,21.4696699 L19.188,20.75 L15,20.75 C14.5857864,20.75 14.25,20.4142136 14.25,20 C14.25,19.6203042 14.5321539,19.306509 14.8982294,19.2568466 L15,19.25 L19.189,19.25 L18.4696699,18.5303301 C18.2034034,18.2640635 18.1791973,17.8473998 18.3970518,17.5537883 L18.4696699,17.4696699 C18.7359365,17.2034034 19.1526002,17.1791973 19.4462117,17.3970518 Z M2.25,7.01 L2.25503746,6.84366392 C2.34193676,5.39594188 3.54227583,4.25 5.011,4.25 L5.011,4.25 L17.99,4.25 C19.437908,4.25 20.6373838,5.36865929 20.7449739,6.833316 L20.7449739,6.833316 L20.751,7.011 C20.751,7.02005535 20.7509556,7.02910484 20.7508669,7.0381482 L20.75,14 C20.75,14.4142136 20.4142136,14.75 20,14.75 C19.6203042,14.75 19.306509,14.4678461 19.2568466,14.1017706 L19.25,14 L19.25,9.49 L14.1817367,12.9268709 C12.6301277,13.9783275 10.6135657,14.0221382 9.02317735,13.0582804 L8.8182255,12.9268452 L3.75,9.491 L3.75,16 C3.75,16.6476123 4.2414963,17.1795843 4.87212382,17.2435511 L5,17.25 L11,17.25 C11.4142136,17.25 11.75,17.5857864 11.75,18 C11.75,18.3796958 11.4678461,18.693491 11.1017706,18.7431534 L11,18.75 L5,18.75 C3.53705361,18.75 2.34156501,17.6086946 2.25501709,16.1675667 L2.25,16 L2.25,7.01 Z M19.25,7.01 L19.2475148,6.91607805 C19.1991826,6.26123665 18.6510121,5.75 17.99,5.75 L17.99,5.75 L5.011,5.75 C4.31421356,5.75 3.75,6.31421356 3.75,7.011 L3.75,7.011 L3.7575966,7.14924722 C3.79785851,7.51430177 3.99612853,7.84671346 4.3037745,8.05515476 L4.3037745,8.05515476 L9.65973668,11.6851291 C10.7706664,12.437957 12.2293336,12.437957 13.3401999,11.6851721 L13.3401999,11.6851721 L18.6973141,8.05409468 C19.0436707,7.81942557 19.251,7.42884722 19.2515064,7.03855656 L19.25,7.054 L19.25,7.01 Z" id="Combined-Shape" fill="#8792A2" fill-rule="nonzero"></path>
                    </g>
                </g>
            </g>
        </g>
    </g>
</svg>