<?xml version="1.0" encoding="UTF-8"?>
<svg xmlns="http://www.w3.org/2000/svg" xmlns:xlink="http://www.w3.org/1999/xlink" width="24px" height="24px" viewBox="0 0 24 24" version="1.1">
<g id="surface1">
<path style=" stroke:none;fill-rule:nonzero;fill:rgb(0%,0%,0%);fill-opacity:1;" d="M 20.019531 7.875 L 20.019531 0 L 3.921875 0 L 3.921875 7.882812 C 2.738281 8.042969 1.824219 9.054688 1.824219 10.28125 L 1.824219 14.507812 C 1.824219 15.792969 2.832031 16.847656 4.101562 16.925781 L 4.101562 24 L 7.210938 24 L 7.210938 16.9375 L 8.289062 16.9375 L 8.289062 24 L 11.460938 24 L 11.460938 16.9375 L 12.539062 16.9375 L 12.539062 24 L 15.710938 24 L 15.710938 16.9375 L 16.789062 16.9375 L 16.789062 24 L 19.898438 24 L 19.898438 16.925781 C 21.167969 16.847656 22.175781 15.792969 22.175781 14.507812 L 22.175781 10.28125 C 22.175781 9.035156 21.230469 8.007812 20.019531 7.875 Z M 10.5625 23.101562 L 9.1875 23.101562 L 9.1875 16.9375 L 10.5625 16.9375 Z M 14.8125 23.101562 L 13.4375 23.101562 L 13.4375 16.9375 L 14.8125 16.9375 Z M 19.121094 0.898438 L 19.121094 7.839844 L 4.816406 7.839844 L 4.816406 0.898438 Z M 6.3125 23.101562 L 4.996094 23.101562 L 4.996094 16.9375 L 6.3125 16.9375 Z M 19.003906 23.101562 L 17.6875 23.101562 L 17.6875 16.9375 L 19.003906 16.9375 Z M 21.277344 14.507812 C 21.277344 15.347656 20.59375 16.039062 19.753906 16.039062 L 4.246094 16.039062 C 3.40625 16.039062 2.722656 15.347656 2.722656 14.507812 L 2.722656 10.28125 C 2.722656 9.550781 3.238281 8.941406 3.921875 8.792969 L 3.921875 8.796875 L 20.019531 8.796875 L 20.019531 8.78125 C 20.734375 8.90625 21.277344 9.53125 21.277344 10.28125 Z M 21.277344 14.507812 "/>
<path style=" stroke:none;fill-rule:nonzero;fill:rgb(0%,0%,0%);fill-opacity:1;" d="M 6.613281 2.515625 L 11.941406 2.515625 L 11.941406 3.410156 L 6.613281 3.410156 Z M 6.613281 2.515625 "/>
<path style=" stroke:none;fill-rule:nonzero;fill:rgb(0%,0%,0%);fill-opacity:1;" d="M 6.613281 4.96875 L 17.328125 4.96875 L 17.328125 5.867188 L 6.613281 5.867188 Z M 6.613281 4.96875 "/>
</g>
</svg>