<svg width="24" height="24" viewBox="0 0 24 24" fill="none" xmlns="http://www.w3.org/2000/svg">
<path fill-rule="evenodd" clip-rule="evenodd" d="M9.0001 1.34998H5.1001C3.02888 1.34998 1.3501 3.02876 1.3501 5.09998V8.99998C1.3501 11.0712 3.02888 12.75 5.1001 12.75H9.0001C11.0713 12.75 12.7501 11.0712 12.7501 8.99998V5.09998C12.7501 3.02876 11.0713 1.34998 9.0001 1.34998ZM5.1001 2.84998H9.0001C10.2429 2.84998 11.2501 3.85719 11.2501 5.09998V8.99998C11.2501 10.2428 10.2429 11.25 9.0001 11.25H5.1001C3.85731 11.25 2.8501 10.2428 2.8501 8.99998V5.09998C2.8501 3.85719 3.85731 2.84998 5.1001 2.84998ZM16.7151 11.1548L16.9501 11.15C20.0597 11.15 22.6126 13.6024 22.7453 16.7149L22.7501 16.95C22.7501 20.0596 20.2977 22.6125 17.1851 22.7451L16.9501 22.75C13.8405 22.75 11.2876 20.2976 11.1549 17.185L11.1501 16.95C11.1501 13.8404 13.6025 11.2875 16.7151 11.1548ZM16.9571 12.649L16.763 12.654C14.4684 12.7519 12.6501 14.6448 12.6499 16.934L12.6541 17.1371C12.752 19.4316 14.6449 21.25 16.9341 21.2501L17.1372 21.246C19.4318 21.1481 21.2501 19.2552 21.2503 16.9659L21.2461 16.7629C21.1482 14.4683 19.2553 12.65 16.9571 12.649ZM17.5633 14.0014C17.2479 13.5479 16.5384 13.5803 16.2793 14.0986L14.536 17.5851C14.5312 17.5943 14.5265 17.6036 14.522 17.6131L14.1543 18.3486L14.1149 18.4427C13.9956 18.7923 14.1501 19.185 14.4897 19.3548L14.5838 19.3942C14.9334 19.5135 15.3261 19.359 15.4959 19.0194L15.6636 18.684H18.2366L18.4043 19.0194L18.4559 19.1073C18.664 19.4126 19.0709 19.5246 19.4105 19.3548C19.781 19.1696 19.9312 18.719 19.7459 18.3486L19.3782 17.6131C19.3737 17.6036 19.369 17.5943 19.3642 17.5851L17.6209 14.0986L17.5633 14.0014ZM17.4869 17.184L16.9501 16.11L16.4133 17.184H17.4869ZM9.0701 5.17998C9.48431 5.17998 9.8201 5.51576 9.8201 5.92998C9.8201 6.30967 9.53794 6.62347 9.17187 6.67313L9.0701 6.67998H8.74111C8.64885 7.16394 8.46961 7.61623 8.22065 8.01857C8.43908 8.18524 8.678 8.28637 8.9237 8.3159L9.0751 8.32498C9.48931 8.32498 9.8251 8.66076 9.8251 9.07498C9.8251 9.48919 9.48931 9.82498 9.0751 9.82498C8.38353 9.82498 7.73526 9.56996 7.1973 9.12035C6.58308 9.56414 5.83448 9.82498 5.0251 9.82498C4.61088 9.82498 4.2751 9.48919 4.2751 9.07498C4.2751 8.69528 4.55725 8.38148 4.92333 8.33182L5.0251 8.32498C5.64254 8.32498 6.20531 8.06708 6.61809 7.6468C6.6539 7.5953 6.69671 7.54762 6.74632 7.50523C6.94502 7.2673 7.09973 6.98764 7.19677 6.67998H7.0501H5.0301C4.61588 6.67998 4.2801 6.34419 4.2801 5.92998C4.2801 5.55028 4.56225 5.23648 4.92833 5.18682L5.0301 5.17998H6.30332C6.33862 4.79858 6.65949 4.49998 7.0501 4.49998C7.42979 4.49998 7.74359 4.78213 7.79325 5.14821L7.79539 5.17998H7.97503C8.00359 5.17667 8.03265 5.17498 8.0621 5.17498C8.09155 5.17498 8.1206 5.17667 8.14917 5.17998H9.0701ZM16.3226 4.17545C18.6246 4.32551 20.4451 6.24037 20.4451 8.57998L18.6596 7.32056C18.2316 6.4289 17.3632 5.78863 16.3362 5.68176L14.9758 5.54269C14.8245 5.64195 14.6451 5.68079 14.4718 5.65918L16.2228 6.51537C16.2137 6.52554 16.2042 6.53553 16.1944 6.54531C15.9282 6.81157 15.5115 6.83578 15.2179 6.61792L15.1338 6.54531L14.035 5.4465L14.0361 5.44662C14.0358 5.4463 14.0354 5.44598 14.0351 5.44567L14.0332 5.44471C13.8984 5.30912 13.8151 5.12227 13.8151 4.91598C13.8151 4.91579 13.8151 4.9156 13.8151 4.91541C13.815 4.75822 13.864 4.60101 13.9621 4.46876L13.968 4.46199C13.9863 4.43796 14.0063 4.41478 14.0279 4.39261L14.0348 4.38465L15.1338 3.28565C15.4267 2.99275 15.9015 2.99275 16.1944 3.28565C16.4354 3.52663 16.4781 3.8908 16.3226 4.17545ZM16.2228 6.51537C16.4317 6.28254 16.4695 5.95051 16.3362 5.68176L18.6596 7.32056C18.7321 7.47165 18.792 7.62994 18.8379 7.79409L16.2228 6.51537ZM18.8379 7.79409L20.4451 8.57998C20.4451 8.99419 20.1093 9.32998 19.6951 9.32998C19.2809 9.32998 18.9451 8.99419 18.9451 8.57998C18.9451 8.30768 18.9077 8.0441 18.8379 7.79409ZM5.04839 15.3192C4.99918 14.9527 4.68515 14.67 4.3051 14.67L5.04839 15.3192ZM5.0551 15.4251C5.0577 16.9289 6.19964 18.1658 7.66396 18.3182C7.61032 18.21 7.5844 18.0916 7.58619 17.9735L8.53278 18.9266L8.83369 18.6257L7.68121 17.619C7.71417 17.5601 7.75569 17.5047 7.80577 17.4546C8.07203 17.1884 8.4887 17.1642 8.78231 17.382L8.86643 17.4546L9.96453 18.5528L9.97356 18.5619C10.0414 18.6319 10.093 18.7118 10.1282 18.7969C10.1602 18.8741 10.1797 18.9577 10.1841 19.0454C10.1848 19.0582 10.1851 19.071 10.1851 19.084V19.0845C10.1852 19.2417 10.1362 19.3989 10.038 19.5312L10.0322 19.538C10.0139 19.562 9.99392 19.5852 9.97231 19.6073L9.96543 19.6153L8.86643 20.7143C8.57353 21.0072 8.09866 21.0072 7.80577 20.7143C7.56479 20.4733 7.52208 20.1092 7.67764 19.8245C5.37562 19.6744 3.5551 17.7596 3.5551 15.42C3.5551 15.0058 3.89088 14.67 4.3051 14.67L5.0551 15.4251ZM7.68121 17.619C7.61972 17.729 7.58804 17.8511 7.58619 17.9735L5.0551 15.4251L5.0551 15.42C5.0551 15.3858 5.05281 15.3522 5.04839 15.3192L7.68121 17.619Z" fill="black"/>
</svg>
