<svg width="24" height="24" viewBox="0 0 24 24" fill="none" xmlns="http://www.w3.org/2000/svg">
<path fill-rule="evenodd" clip-rule="evenodd" d="M8 2.25H5C3.48079 2.25 2.25 3.48079 2.25 5V8C2.25 9.51921 3.48079 10.75 5 10.75H8C9.51921 10.75 10.75 9.51921 10.75 8V5C10.75 3.48079 9.51921 2.25 8 2.25ZM5 3.75H8C8.69079 3.75 9.25 4.30921 9.25 5V8C9.25 8.69079 8.69079 9.25 8 9.25H5C4.30921 9.25 3.75 8.69079 3.75 8V5C3.75 4.30921 4.30921 3.75 5 3.75ZM19.6516 14.3489C18.1876 12.8837 15.8124 12.8837 14.3484 14.3489C12.7037 15.9923 12.9286 18.7262 14.8662 20.0859C16.1067 20.9554 17.8135 20.97 19.0694 20.13L20.4697 21.5303L20.5538 21.6029C20.8474 21.8208 21.2641 21.7966 21.5303 21.5303C21.8232 21.2374 21.8232 20.7626 21.5303 20.4697L20.1283 19.0677C21.0827 17.624 20.9493 15.6466 19.6516 14.3489ZM15.4091 15.4095C16.2458 14.5722 17.5779 14.5323 18.4614 15.2895L18.5907 15.4093L18.7038 15.5309C19.5658 16.5268 19.3968 18.0696 18.2724 18.8579C17.5279 19.3797 16.4721 19.3797 15.7275 18.8578C14.556 18.0357 14.4212 16.3967 15.4091 15.4095ZM16 2.25H19C20.5192 2.25 21.75 3.48079 21.75 5V8C21.75 9.51921 20.5192 10.75 19 10.75H16C14.4808 10.75 13.25 9.51921 13.25 8V5C13.25 3.48079 14.4808 2.25 16 2.25ZM19 3.75H16C15.3092 3.75 14.75 4.30921 14.75 5V8C14.75 8.69079 15.3092 9.25 16 9.25H19C19.6908 9.25 20.25 8.69079 20.25 8V5C20.25 4.30921 19.6908 3.75 19 3.75ZM8 13.25H5C3.48079 13.25 2.25 14.4808 2.25 16V19C2.25 20.5192 3.48079 21.75 5 21.75H8C9.51921 21.75 10.75 20.5192 10.75 19V16C10.75 14.4808 9.51921 13.25 8 13.25ZM5 14.75H8C8.69079 14.75 9.25 15.3092 9.25 16V19C9.25 19.6908 8.69079 20.25 8 20.25H5C4.30921 20.25 3.75 19.6908 3.75 19V16C3.75 15.3092 4.30921 14.75 5 14.75Z" fill="black"/>
</svg>
