<svg width="24" height="24" viewBox="0 0 24 24" fill="none" xmlns="http://www.w3.org/2000/svg">
<path fill-rule="evenodd" clip-rule="evenodd" d="M17.5 2.25H6.5C4.98079 2.25 3.75 3.48079 3.75 5V19C3.75 20.5192 4.98079 21.75 6.5 21.75H17.5C19.0192 21.75 20.25 20.5192 20.25 19V5C20.25 3.48079 19.0192 2.25 17.5 2.25ZM6.5 3.75H17.5C18.1908 3.75 18.75 4.30921 18.75 5V19C18.75 19.6908 18.1908 20.25 17.5 20.25H6.5C5.80921 20.25 5.25 19.6908 5.25 19V5C5.25 4.30921 5.80921 3.75 6.5 3.75ZM12.1508 5.1318L12.041 5.125L11.9306 5.13191C11.4965 5.18663 11.1605 5.55968 11.1671 6.01087C11.167 6.48321 11.5588 6.875 12.042 6.875C12.5252 6.875 12.917 6.48322 12.917 6C12.917 5.55296 12.5823 5.18566 12.1508 5.1318ZM16 8.25C16.4142 8.25 16.75 8.58579 16.75 9C16.75 9.3797 16.4678 9.69349 16.1018 9.74315L16 9.75H8C7.58579 9.75 7.25 9.41421 7.25 9C7.25 8.6203 7.53215 8.30651 7.89823 8.25685L8 8.25H16ZM13 11.25H16C16.4142 11.25 16.75 11.5858 16.75 12V15V18C16.75 18.4142 16.4142 18.75 16 18.75H13H8C7.58579 18.75 7.25 18.4142 7.25 18V15V12C7.25 11.5858 7.58579 11.25 8 11.25H13ZM8.75 15.75V17.25H12.25V15.75H8.75ZM13.75 17.25H15.25V15.75H13.75V17.25ZM15.25 14.25V12.75H13.75V14.25H15.25ZM12.25 12.75V14.25H8.75V12.75H12.25Z" fill="black"/>
</svg>
