<svg width="24" height="24" viewBox="0 0 24 24" fill="none" xmlns="http://www.w3.org/2000/svg">
<path fill-rule="evenodd" clip-rule="evenodd" d="M17.5 2.25H6.5C4.98079 2.25 3.75 3.48079 3.75 5V19C3.75 20.5192 4.98079 21.75 6.5 21.75H17.5C19.0192 21.75 20.25 20.5192 20.25 19V5C20.25 3.48079 19.0192 2.25 17.5 2.25ZM6.5 3.75H17.5C18.1908 3.75 18.75 4.30921 18.75 5V19C18.75 19.6908 18.1908 20.25 17.5 20.25H6.5C5.80921 20.25 5.25 19.6908 5.25 19V5C5.25 4.30921 5.80921 3.75 6.5 3.75ZM16.75 7.5C16.75 7.08579 16.4142 6.75 16 6.75H14L13.8982 6.75685C13.5322 6.80651 13.25 7.1203 13.25 7.5C13.25 7.91421 13.5858 8.25 14 8.25H16L16.1018 8.24315C16.4678 8.19349 16.75 7.8797 16.75 7.5ZM16 9.75C16.4142 9.75 16.75 10.0858 16.75 10.5C16.75 10.8797 16.4678 11.1935 16.1018 11.2432L16 11.25H14C13.5858 11.25 13.25 10.9142 13.25 10.5C13.25 10.1203 13.5322 9.80651 13.8982 9.75685L14 9.75H16ZM16.75 15C16.75 14.5858 16.4142 14.25 16 14.25H8L7.89823 14.2568C7.53215 14.3065 7.25 14.6203 7.25 15C7.25 15.4142 7.58579 15.75 8 15.75H16L16.1018 15.7432C16.4678 15.6935 16.75 15.3797 16.75 15ZM16 17.25C16.4142 17.25 16.75 17.5858 16.75 18C16.75 18.3797 16.4678 18.6935 16.1018 18.7432L16 18.75H8C7.58579 18.75 7.25 18.4142 7.25 18C7.25 17.6203 7.53215 17.3065 7.89823 17.2568L8 17.25H16ZM10.2432 5.89823C10.1935 5.53215 9.8797 5.25 9.5 5.25C9.08579 5.25 8.75 5.58579 8.75 6V6.02539C7.89887 6.16962 7.25 6.91103 7.25 7.803C7.25 8.6295 7.81239 9.35022 8.61364 9.55224L10.0209 9.90455L10.0844 9.92846C10.184 9.97943 10.25 10.0833 10.25 10.199C10.25 10.3662 10.1143 10.502 9.947 10.502H9.55519C9.53697 10.5007 9.51856 10.5 9.5 10.5C9.48144 10.5 9.46303 10.5007 9.44481 10.502H9.125L9.0584 10.4947C8.97196 10.4753 8.89567 10.4175 8.83826 10.3234L8.77941 10.2401C8.54637 9.95344 8.13154 9.876 7.8074 10.0737C7.4538 10.2895 7.34202 10.751 7.55774 11.1046C7.82756 11.5469 8.25321 11.858 8.75 11.963V12L8.75685 12.1018C8.80651 12.4678 9.1203 12.75 9.5 12.75C9.91421 12.75 10.25 12.4142 10.25 12V11.9766C11.1016 11.8325 11.75 11.0912 11.75 10.199C11.75 9.3725 11.1876 8.65178 10.3864 8.44976L8.97915 8.09745L8.9156 8.07354C8.81598 8.02257 8.75 7.91873 8.75 7.803C8.75 7.63621 8.88621 7.5 9.053 7.5H9.5H9.875L9.94123 7.50722C10.0272 7.52643 10.103 7.58383 10.1603 7.6775L10.2193 7.76073C10.4527 8.04705 10.8676 8.12391 11.1915 7.92571C11.5448 7.7095 11.6559 7.24781 11.4397 6.8945C11.1699 6.4537 10.7454 6.14377 10.25 6.03898V6L10.2432 5.89823Z" fill="black"/>
</svg>
