<svg width="24" height="24" viewBox="0 0 24 24" fill="none" xmlns="http://www.w3.org/2000/svg">
<path fill-rule="evenodd" clip-rule="evenodd" d="M21.75 12C21.75 6.61479 17.3852 2.25 12 2.25C7.01996 2.25 2.85741 6.0042 2.31355 10.9175C2.26798 11.3292 2.56479 11.6999 2.97649 11.7454C3.38818 11.791 3.75888 11.4942 3.80445 11.0825C4.26444 6.92685 7.78685 3.75 12 3.75C16.5568 3.75 20.25 7.44321 20.25 12C20.25 16.5568 16.5568 20.25 12 20.25C11.5858 20.25 11.25 20.5858 11.25 21C11.25 21.4142 11.5858 21.75 12 21.75C17.3852 21.75 21.75 17.3852 21.75 12ZM11.718 7.235C12.0977 7.235 12.4115 7.51715 12.4612 7.88323L12.468 7.985V12.214L15.7644 14.2246C16.0886 14.4223 16.2097 14.8265 16.0615 15.165L16.0144 15.2554C15.8167 15.5796 15.4125 15.7007 15.074 15.5525L14.9836 15.5054L11.3276 13.2764C11.1362 13.1597 11.0087 12.9647 10.9762 12.7467L10.968 12.636V7.985C10.968 7.57079 11.3038 7.235 11.718 7.235ZM8 14.25C8.41421 14.25 8.75 14.5858 8.75 15C8.75 15.3797 8.46785 15.6935 8.10177 15.7432L8 15.75H3C2.58579 15.75 2.25 15.4142 2.25 15C2.25 14.6203 2.53215 14.3065 2.89823 14.2568L3 14.25H8ZM8 17.25C8.41421 17.25 8.75 17.5858 8.75 18C8.75 18.3797 8.46785 18.6935 8.10177 18.7432L8 18.75H5C4.58579 18.75 4.25 18.4142 4.25 18C4.25 17.6203 4.53215 17.3065 4.89823 17.2568L5 17.25H8ZM8.75 21C8.75 20.5858 8.41421 20.25 8 20.25H7L6.89823 20.2568C6.53215 20.3065 6.25 20.6203 6.25 21C6.25 21.4142 6.58579 21.75 7 21.75H8L8.10177 21.7432C8.46785 21.6935 8.75 21.3797 8.75 21Z" fill="black"/>
</svg>
