<svg width="24" height="24" viewBox="0 0 24 24" fill="none" xmlns="http://www.w3.org/2000/svg">
<path fill-rule="evenodd" clip-rule="evenodd" d="M8.67298 3.973L6.92613 4.20555L6.74326 4.23519C5.41547 4.49034 4.38812 5.56768 4.20756 6.92188L3.97198 8.675L2.89916 10.0805L2.78141 10.2452C2.03565 11.3623 2.07488 12.8402 2.89872 13.92L3.97198 15.325L4.20448 17.0745L4.23413 17.2574C4.48931 18.5855 5.56665 19.6129 6.92085 19.7934L8.67498 20.028L10.0797 21.101L10.2445 21.2189C11.3622 21.9654 12.8395 21.9261 13.9194 21.1009L15.324 20.027L17.0724 19.7955L17.2554 19.7659C18.5835 19.5107 19.6108 18.4333 19.7914 17.0791L20.025 15.325L21.0988 13.9205L21.2166 13.7557C21.963 12.6383 21.9234 11.1612 21.0992 10.0811L20.027 8.675L19.7955 6.92548L19.7658 6.74257C19.5106 5.4145 18.4333 4.38714 17.0791 4.20658L15.323 3.972L13.9193 2.90001C12.7855 2.03364 11.2134 2.03364 10.0796 2.90008L8.67298 3.973ZM13.0086 4.09193L14.5717 5.286C14.6756 5.36536 14.7984 5.41619 14.928 5.43344L16.881 5.69344C17.6249 5.79264 18.2099 6.37821 18.3085 7.12245L18.5665 9.06953C18.5836 9.19902 18.6343 9.3218 18.7135 9.42568L19.9065 10.9907C20.3621 11.5877 20.3623 12.4139 19.9071 13.0096L18.84 14.404L18.8176 14.4249C18.6968 14.5405 18.5944 14.7051 18.5645 14.929L18.3045 16.881C18.2053 17.625 17.6198 18.21 16.8755 18.3085L14.9275 18.5665L14.8168 18.5882C14.6762 18.6252 14.5637 18.6939 14.4785 18.7821L14.469 18.793L13.0086 19.909C12.4124 20.3646 11.5865 20.3646 10.9904 19.9091L9.42727 18.715C9.32349 18.6357 9.20081 18.5849 9.07137 18.5676L7.11937 18.3066C6.37501 18.2074 5.79003 17.6218 5.69149 16.8776L5.43348 14.9305C5.41628 14.8007 5.36541 14.6777 5.28593 14.5737L4.09093 13.0097C3.66874 12.4563 3.63859 11.7035 4.0005 11.1222L4.13021 10.94L5.15698 9.596L5.18016 9.57631C5.30094 9.46077 5.40343 9.29626 5.43336 9.0724L5.69436 7.1204C5.79361 6.37603 6.37919 5.79106 7.12342 5.69251L9.07182 5.43346L9.18251 5.41174C9.28792 5.3839 9.37752 5.33828 9.45167 5.28L9.52698 5.209L10.9901 4.09214C11.5865 3.63636 12.4124 3.63636 13.0086 4.09193ZM12.191 7.75H11.808C11.22 7.75 10.6828 8.08366 10.4237 8.61157L10.0094 9.45112C10.0031 9.46391 9.9908 9.47284 9.97851 9.4746L9.04901 9.60982C8.4668 9.69549 7.98448 10.1023 7.8035 10.6608L7.68553 11.0247C7.5044 11.5837 7.6555 12.1967 8.07713 12.6067L8.74749 13.2601C8.75746 13.2698 8.76216 13.2843 8.75973 13.2984L8.60084 14.2218C8.50158 14.8018 8.74027 15.3863 9.21559 15.7311L9.52543 15.956C10.0018 16.2996 10.6306 16.3452 11.1493 16.0732L11.9798 15.637C11.992 15.6305 12.0079 15.6305 12.021 15.6374L12.8502 16.073C13.3708 16.3469 14.0007 16.3006 14.476 15.9539L14.7845 15.73C15.259 15.3858 15.4969 14.8014 15.3996 14.2235L15.2401 13.2968C15.2378 13.2833 15.2425 13.2688 15.2521 13.2595L15.9235 12.6051C16.3438 12.1944 16.4953 11.582 16.3145 11.0238L16.1964 10.6597C16.0155 10.1013 15.5332 9.69449 14.9522 9.60899L14.0229 9.47381C14.0092 9.47184 13.9969 9.46291 13.9899 9.44889L13.5755 8.60912C13.3141 8.08225 12.7777 7.75 12.191 7.75ZM11.808 9.25H12.191C12.2082 9.25 12.2239 9.2597 12.2312 9.27442L12.6454 10.1139C12.8716 10.5701 13.3059 10.8863 13.8085 10.9584L14.735 11.0932C14.7511 11.0956 14.7646 11.1069 14.7695 11.1222L14.8875 11.4863C14.8926 11.5019 14.8882 11.5195 14.8759 11.5315L14.2055 12.1849C13.8419 12.5388 13.6761 13.0501 13.7617 13.5506L13.9208 14.4752C13.9233 14.4895 13.9163 14.5067 13.9036 14.5159L13.5934 14.741C13.5788 14.7517 13.5627 14.7529 13.5482 14.7453L12.7178 14.309C12.268 14.0735 11.7319 14.0735 11.283 14.3086L10.4522 14.745C10.4382 14.7524 10.4189 14.751 10.4047 14.7407L10.0965 14.517C10.083 14.5072 10.0765 14.4914 10.0792 14.4755L10.2381 13.5522C10.3239 13.0511 10.158 12.5398 9.79407 12.1855L9.12346 11.5319C9.11129 11.5201 9.10719 11.5034 9.11245 11.4872L9.23042 11.1233C9.2354 11.1079 9.2489 11.0966 9.26617 11.094L10.1929 10.9592C10.694 10.8873 11.1284 10.5711 11.3539 10.1161L11.7695 9.27389C11.7769 9.25895 11.7913 9.25 11.808 9.25Z" fill="black"/>
</svg>
