<svg width="24" height="24" viewBox="0 0 24 24" fill="none" xmlns="http://www.w3.org/2000/svg">
<path fill-rule="evenodd" clip-rule="evenodd" d="M18.7605 2.57879L14.8726 3.38677C13.5842 3.65459 12.4028 4.29271 11.4736 5.22307L9.17616 7.51978L6.37771 7.54411L6.20678 7.55383C5.81091 7.59594 5.43888 7.77278 5.15491 8.05675L2.40091 10.8108L2.31657 10.9039C1.74028 11.6052 2.08706 12.6959 2.99782 12.911L5.78166 13.5686C5.67481 14.5841 5.93748 15.5971 6.51318 16.4265L5.33991 17.5998L5.26729 17.6839C5.04943 17.9775 5.07364 18.3941 5.33991 18.6604C5.6328 18.9533 6.10767 18.9533 6.40057 18.6604L7.57545 17.4855C8.40983 18.0639 9.41948 18.3255 10.4306 18.218L11.0883 21.0025L11.123 21.1232C11.4151 21.9819 12.5252 22.2604 13.1876 21.6004L15.9426 18.8454L16.0576 18.7185C16.3104 18.4107 16.4522 18.0239 16.4552 17.6218L16.4795 14.8244L18.7776 12.5264C19.7076 11.5975 20.3457 10.4162 20.6135 9.12772L21.4215 5.23969C21.7515 3.65299 20.3473 2.24883 18.7605 2.57879ZM15.2015 13.9812C15.2018 13.9809 15.202 13.9807 15.2022 13.9804L17.7172 11.4654C17.9722 11.2108 18.1989 10.9318 18.3948 10.6333C17.008 8.69288 15.3075 6.9923 13.367 5.60556C13.0685 5.8015 12.7893 6.02836 12.5345 6.2835L9.34457 9.47241C8.33379 10.4832 7.64613 11.7692 7.3637 13.1682L7.36315 13.1715L7.3624 13.1746C7.33731 13.2995 7.31544 13.4253 7.29686 13.5518L7.28644 13.621C7.19908 14.2219 7.315 14.8283 7.59913 15.3405L12.4099 10.5298C12.7028 10.2369 13.1777 10.2369 13.4706 10.5298C13.7368 10.796 13.761 11.2127 13.5432 11.5063L13.4706 11.5904L8.66133 16.3996C9.17764 16.6861 9.77951 16.8006 10.3755 16.7135L10.7587 16.6503C10.7868 16.645 10.8149 16.6394 10.8429 16.6338C10.8482 16.6326 10.8534 16.6316 10.8586 16.6306C12.2451 16.3462 13.5223 15.6603 14.5279 14.6548L15.2015 13.9812ZM11.9 17.9144C13.0189 17.581 14.0626 17.0256 14.9668 16.2802L14.9553 17.6096L14.9463 17.6739C14.9349 17.7155 14.9129 17.7538 14.8819 17.7848L12.4442 20.2211L11.9 17.9144ZM19.1449 8.82248C19.1286 8.90088 19.1106 8.97877 19.0908 9.0561C17.8902 7.50432 16.496 6.11014 14.9442 4.90954C15.0216 4.88975 15.0995 4.87169 15.1779 4.85539L19.0658 4.04739C19.5951 3.93733 20.063 4.40518 19.9529 4.93439L19.1449 8.82248ZM6.08587 12.0992C6.41993 10.9793 6.97519 9.93601 7.72005 9.03249L6.38994 9.04406C6.34656 9.04439 6.30417 9.05623 6.26696 9.07786L6.21557 9.11741L3.77824 11.5541L6.08587 12.0992Z" fill="black"/>
</svg>
