<?xml version="1.0" encoding="UTF-8"?>
<svg version="1.1" id="Capa_1" xmlns="http://www.w3.org/2000/svg" xmlns:xlink="http://www.w3.org/1999/xlink" x="0px" y="0px"
	 viewBox="0 0 401 401" style="enable-background:new 0 0 401 401;" xml:space="preserve">
<g>
	<path d="M334.5,131.549V0h-269v131.677c-19.736,2.681-35,19.632-35,40.091v70.652c0,21.485,16.831,39.106,38,40.388V401h52V283h18
		v118h53V283h18v118h53V283h18v118h52V282.808c21.169-1.282,38-18.903,38-40.388v-70.652
		C370.5,150.964,354.719,133.783,334.5,131.549z M176.5,386h-23V283h23V386z M247.5,386h-23V283h23V386z M319.5,15v116h-239V15
		H319.5z M105.5,386h-22V283h22V386z M317.5,386h-22V283h22V386z M355.5,242.42c0,14.044-11.426,25.58-25.471,25.58H70.971
		C56.926,268,45.5,256.465,45.5,242.42v-70.652c0-12.167,8.577-22.362,20-24.873V147h269v-0.302c11.919,2.12,21,12.551,21,25.07
		V242.42z"/>
	<rect x="110.5" y="42" width="89" height="15"/>
	<rect x="110.5" y="83" width="179" height="15"/>
</g>
</svg>