<svg width="256" height="256" fill="none" xmlns="http://www.w3.org/2000/svg"><path fill-rule="evenodd" clip-rule="evenodd" d="M231.595 50.847c-5.303-4.681-11.784-8.192-19.737-11.118C195.361 33.878 178.275 33 165.019 33c-4.124 0-8.248 0-12.372.293-19.442.585-36.528 6.144-50.373 16.676l-.884.585c-4.713 3.511-9.132 7.9-12.962 12.288l-.294.585c-.295.44-.663.878-1.031 1.317-.368.439-.737.877-1.031 1.316l-1.768 2.34c-1.767 2.341-3.24 4.682-4.713 7.023-2.357 3.803-4.419 7.899-6.186 12.287-2.357.293-5.303.586-8.543.586-13.55 0-19.737-3.804-27.101-8.485-7.365-4.681-15.908-9.947-31.815-9.947-1.768 0-2.946 1.17-2.946 2.925v3.219c0 1.755 1.178 2.925 2.946 2.925 13.55 0 19.737 3.804 27.101 8.485 7.365 4.681 15.908 9.947 31.815 9.947 15.907 0 24.45-5.266 31.815-9.947l1.015-.607c6.938-4.152 13.162-7.878 26.086-7.878 13.551 0 19.737 3.804 27.101 8.485.478.284.955.572 1.435.862h.001c3.963 2.39 8.102 4.886 13.883 6.452a1624.039 1624.039 0 0 1-9.132 9.948c-.295-.293-.884-.586-1.179-.586-7.364-4.68-15.907-9.947-31.814-9.947-15.908 0-24.45 5.266-31.815 9.947l-1.016.607c-6.937 4.152-13.162 7.878-26.086 7.878-13.55 0-19.736-3.803-27.1-8.485-7.365-4.68-15.908-9.947-31.816-9.947-1.767 0-2.945 1.17-2.945 2.926v3.218c0 1.755 1.178 2.926 2.945 2.926 13.551 0 19.737 3.803 27.102 8.484 7.364 4.681 15.907 9.948 31.814 9.948 16.166 0 24.413-5.243 31.765-9.916l.05-.032c.341-.203.68-.405 1.016-.607 6.937-4.152 13.162-7.877 26.086-7.877 13.065 0 19.262 3.694 26.489 8.002l.317.19c-2.698 2.679-5.396 5.605-8.32 8.775l-.002.002-.81.877c-4.713-1.462-10.31-2.633-17.674-2.633-15.908 0-24.45 5.267-31.815 9.948-.34.203-.68.405-1.016.607-6.937 4.152-13.162 7.877-26.086 7.877-13.55 0-19.736-3.803-27.1-8.484-7.365-4.681-15.908-9.948-31.816-9.948-1.767 0-2.945 1.171-2.945 2.926v3.218c0 1.756 1.178 2.926 2.945 2.926 13.551 0 19.737 3.803 27.102 8.485 7.364 4.681 15.907 9.947 31.814 9.947 16.166 0 24.413-5.243 31.765-9.916l.05-.031 1.016-.608c6.937-4.151 13.162-7.877 26.086-7.877 4.124 0 7.364.293 10.31.878-2.14 2.125-4.28 4.388-6.487 6.722h-.001c-2.35 2.485-4.775 5.049-7.357 7.614-13.565.573-21.474 5.358-28.16 9.404l-.415.25-1.007.603-.008.004c-6.938 4.152-13.162 7.878-26.086 7.878-13.55 0-19.737-3.803-27.101-8.485-7.365-4.681-15.908-9.947-31.815-9.947-1.768 0-2.946 1.17-2.946 2.926v4.096c0 1.755 1.178 2.925 2.946 2.925 13.55 0 19.737 3.804 27.101 8.485 7.365 4.681 15.908 9.947 31.815 9.947 15.907 0 24.45-5.266 31.815-9.947 4.124-2.633 7.953-4.974 12.961-6.437-8.248 8.192-17.97 16.384-27.69 24.284-2.946 2.34-5.892 4.681-8.838 6.729-2.356.292-5.008.585-8.248.585-13.55 0-19.737-3.803-27.101-8.485-7.365-4.681-15.908-9.947-31.815-9.947-1.768 0-2.946 1.17-2.946 2.926v3.218c0 1.755 1.178 2.926 2.946 2.926 13.55 0 19.737 3.803 27.101 8.484 7.365 4.681 15.908 9.948 31.815 9.948 2.357 0 4.419 0 6.48-.293 13.846 23.113 42.42 25.454 65.692 26.916 3.83.293 7.659.293 11.194.293 20.032 0 37.707-4.096 52.73-11.703 35.644-18.724 49.784-63.195 51.257-98.888 1.179-15.507-.884-43.886-20.62-60.562Zm-75.413 28.672c-7.364-4.681-15.907-9.948-31.814-9.948-16.166 0-24.413 5.243-31.765 9.916l-.05.032c-2.946 1.755-5.892 3.51-9.132 4.973a52.26 52.26 0 0 1 1.03-1.901h.001c.368-.659.736-1.317 1.031-1.902 2.357-3.803 4.713-7.607 7.364-10.825l.59-.878A66.86 66.86 0 0 1 104.63 57.87l1.767-1.463.589-.585c12.667-9.363 28.28-14.629 46.25-14.921 1.879 0 3.829-.07 5.815-.143 2.062-.074 4.162-.15 6.262-.15 11.489 0 28.869.585 44.187 6.144 7.07 2.633 12.962 5.851 17.381 9.655 6.186 5.266 10.31 11.995 13.256 19.017-6.776-8.777-10.9-11.996-16.791-11.996-1.768 0-3.241.293-5.008 1.17-.737.293-1.473.659-2.21 1.025-.736.365-1.472.731-2.209 1.024-.884.585-2.062 1.17-2.946 1.463-2.356-1.17-4.713-1.756-7.07-1.756-2.945 0-5.302.878-7.364 1.756-5.892 0-9.721 3.218-13.551 8.192-1.057 1.35-2.502 3.007-4.215 4.973-1.627 1.868-3.497 4.013-5.506 6.437-6.876-1.992-11.523-4.814-16.65-7.928l-.436-.264Zm88.963 31.889 2.652 2.633c.294-.877.294-1.755.294-2.633 0-2.926 0-6.436.589-13.75-1.51-1.876-2.779-3.632-3.961-5.267-.662-.915-1.296-1.793-1.93-2.633l-1.768-2.633c-.589-.585-.883-.878-1.178-1.463-.147-.293-.368-.585-.589-.878-.221-.292-.442-.585-.589-.877-.148-.147-.295-.366-.442-.586-.148-.219-.295-.438-.442-.585-.589-.585-.884-.877-1.178-1.463-.148-.146-.295-.365-.442-.585-.148-.22-.295-.439-.442-.585-.147-.146-.295-.366-.442-.585-.147-.22-.295-.439-.442-.585-.147-.146-.294-.366-.442-.585-.147-.22-.294-.44-.442-.585l-.883-.878c-.295-.293-.59-.658-.884-1.024-.295-.366-.589-.732-.884-1.024l-.589-.585-.884-.878-.589-.585c-.182 0-.252-.112-.348-.266a1.635 1.635 0 0 0-.241-.32l-.589-.584-.589-.585c-.148 0-.221-.074-.295-.147-.074-.073-.147-.146-.295-.146-.147 0-.221-.073-.294-.146-.074-.073-.147-.147-.295-.147-.147 0-.221-.073-.294-.146-.074-.073-.148-.146-.295-.146s-.221-.073-.295-.147c-.073-.073-.147-.146-.294-.146-.169-.168-.241-.24-.328-.27-.064-.022-.136-.022-.261-.022-.295-.293-.589-.293-.589-.293H222.168c-.147 0-.294.073-.442.146-.147.073-.294.147-.442.147-1.26.563-2.452 1.153-3.583 1.712-4.158 2.056-7.483 3.701-10.262 2.091-3.307-1.916-5.067-1.271-7.933-.222l-.61.222c-1.109.46-1.899.457-2.634.455-1.608-.004-2.952-.007-6.792 4.811-.148.147-.295.366-.442.585-.147.22-.295.44-.442.586 0 .146-.074.219-.147.292-.074.073-.148.146-.148.293l-.883.877-.59.586c-.147.146-.294.365-.441.585-.148.22-.295.439-.442.585l-.589.585-1.768 1.755c-2.062 2.341-4.713 5.267-7.954 8.778-2.945 3.51-6.775 7.606-11.194 12.287-2.062 2.341-4.418 4.974-7.07 7.607-.883 1.171-1.767 2.048-2.945 3.218-.59.732-1.252 1.39-1.915 2.049-.663.658-1.326 1.316-1.915 2.047 0 0 2.357-1.755 5.597-4.096.884-.877 2.062-1.755 3.24-2.633a590.337 590.337 0 0 0 4.566-3.218c1.547-1.097 3.093-2.194 4.566-3.218a1.56 1.56 0 0 1 .442-.293c.148-.073.295-.146.442-.292l.295-.293c.147-.146.294-.219.442-.292.147-.074.294-.147.442-.293.147 0 .22-.073.294-.146.074-.073.147-.147.295-.147.147 0 .221-.073.294-.146.074-.073.148-.146.295-.146s.221-.073.294-.146c.074-.074.148-.147.295-.147s.221-.073.295-.146c.073-.073.147-.146.294-.146s.221-.073.295-.147c.073-.073.147-.146.294-.146.148 0 .221-.073.295-.146.074-.073.147-.146.294-.146.148 0 .221-.074.295-.147.074-.073.147-.146.295-.146.294 0 .589-.293.589-.293.147 0 .221-.073.294-.146.074-.073.148-.146.295-.146 0-.293.295-.293.295-.293s.294-.292.589-.292h1.767v1.17c0 .293 0 .585-.294.878-.45.447-.729 1.064-.966 1.592-.074.163-.143.318-.213.456 0 .146-.073.219-.147.292-.074.073-.147.147-.147.293l-.884 1.755c-.39.677-.755 1.298-1.097 1.88-1.73 2.941-2.879 4.893-3.616 8.068 0 .292-.074.512-.148.731-.073.219-.147.439-.147.731v.293c0 .293-.074.512-.147.731-.074.22-.147.439-.147.732v.292c0 .293-.074.659-.148 1.024-.073.366-.147.732-.147 1.024 0 .147-.074.366-.147.586-.074.219-.148.438-.148.585v.292c0 .585 0 .878-.294 1.463v.293c0 .585-.295 1.17-.589 1.755-.295 0-.295.293-.295.293-.147.292-.221.585-.295.877-.073.293-.147.586-.294.878-1.473 3.804-2.946 7.899-3.535 9.947V143.298c0 .293.294.293.294.293h.295l.295-.293.589-.585c.971-.965 2.198-2.82 3.682-5.062a180.49 180.49 0 0 1 2.504-3.715c.442-.585.81-1.17 1.178-1.755.369-.586.737-1.171 1.179-1.756.442-.585.81-1.17 1.178-1.755.368-.585.736-1.171 1.178-1.756.589-1.17 1.473-2.34 2.357-3.511.589-1.17 1.473-2.34 2.357-3.51 3.24-4.389 6.48-8.192 8.542-9.655.295-.293.59-.585.884-.585.169-.168.241-.24.328-.27.064-.023.136-.023.261-.023h.589c.295 0 .59 0 .59.293 1.178 1.463 1.473 4.681 1.473 8.777 0 2.34 0 4.973-.295 7.607 0 .585-.074 1.243-.147 1.901-.074.659-.148 1.317-.148 1.902v.293c0 .585-.073 1.17-.147 1.755s-.147 1.17-.147 1.755c-.589 4.389-.884 8.192-.589 9.655v.293c.404-.669.993-2.134 1.767-4.059.918-2.283 2.097-5.213 3.535-8.229 0-.146.074-.22.147-.293.074-.073.148-.146.148-.292.147-.147.221-.366.294-.585.074-.22.148-.439.295-.586.169-.168.241-.239.272-.326.022-.063.022-.135.022-.259 0-.292.295-.877.59-1.463 0-.146.073-.219.147-.292.074-.073.147-.146.147-.293 0-.428.158-.7.358-1.044.073-.126.152-.262.231-.419v-.292c.295-.293.589-.878.884-1.463l.295-.293c.147-.292.294-.512.442-.731a6.43 6.43 0 0 0 .441-.731c.148-.293.295-.512.442-.732.148-.219.295-.439.442-.731l.295-.293c.147-.292.294-.512.442-.731.147-.22.294-.439.441-.732.148-.146.295-.365.442-.585.148-.219.295-.439.442-.585.295 0 .295-.293.295-.293.147-.146.294-.365.442-.585.147-.219.294-.439.442-.585l.883-.877.295-.293c.589-.293.884-.585 1.178-.878h.295c.147-.146.294-.219.442-.292.147-.073.294-.147.441-.293h.295c.225-.112.407-.223.563-.319.251-.154.433-.266.615-.266h.295c.295-.293.589-.293.884-.293H215.098c.147 0 .295.074.442.147.147.073.295.146.442.146h.295c.225.112.407.181.562.24.252.095.434.164.616.345 0 .293.294.293.294.293l.884.877c.411.204.679.551.903.841.097.126.186.241.275.33l.295.292c.589.293.884.878 1.178 1.463 3.535 5.851 6.776 10.533 9.722 14.043.294 0 .294.293.294.293.884.878 1.473 1.463 2.062 2.341v.292c2.651 3.218 4.713 5.266 5.892 5.851.294.293.589.293.884.293.294 0 .589 0 .589-.293v-2.34c0-.585 0-.878-.295-1.463-.212-.633-.442-1.3-.68-1.992-.753-2.188-1.594-4.633-2.266-7.078-.192-.7-.384-1.387-.574-2.063-.68-2.429-1.321-4.717-1.782-7.006-.148-.439-.221-.805-.295-1.17-.074-.366-.147-.732-.294-1.171 0-.292-.074-.658-.148-1.024-.073-.365-.147-.731-.147-1.024 0-.292-.074-.585-.147-.877-.074-.293-.148-.586-.148-.878v-.293c-.294-.585-.294-.877-.294-1.463v-2.925c.294-.293.294-.585.294-.878v-.293c0-.292 0-.585.295-.877 0-.293.295-.585.589-.585h1.178c.295 0 .884 0 1.179.292.108.054.206.098.294.137.393.175.589.263.589.741h.295c.295.146.516.292.737.439.22.146.441.292.736.439h.295c1.472 1.17 3.24 2.633 5.007 4.388Z" fill="#000"/></svg>
