<svg width="24" height="24" viewBox="0 0 24 24" fill="none" xmlns="http://www.w3.org/2000/svg">
<path fill-rule="evenodd" clip-rule="evenodd" d="M17.2773 5.65667C14.0684 2.44778 8.86556 2.44778 5.65667 5.65667C2.44778 8.86556 2.44778 14.0684 5.65667 17.2773C8.68679 20.3074 13.4949 20.4763 16.7231 17.7838L19.4697 20.5303L19.5538 20.6029C19.8474 20.8208 20.2641 20.7966 20.5303 20.5303C20.8232 20.2374 20.8232 19.7626 20.5303 19.4697L17.7838 16.7231C20.4763 13.4949 20.3074 8.68679 17.2773 5.65667ZM6.71733 6.71733C9.27943 4.15523 13.3966 4.09564 16.0311 6.53858L16.2167 6.71733L16.3954 6.90294C18.8384 9.53738 18.7788 13.6546 16.2167 16.2167C13.5936 18.8398 9.34044 18.8398 6.71733 16.2167C4.09422 13.5936 4.09422 9.34044 6.71733 6.71733ZM7.93 11.14C8.3097 11.14 8.62349 11.4222 8.67315 11.7882L8.68 11.89V12.89C8.68 13.3042 8.34421 13.64 7.93 13.64C7.5503 13.64 7.23651 13.3578 7.18685 12.9918L7.18 12.89V11.89C7.18 11.4758 7.51579 11.14 7.93 11.14ZM11.9932 10.7882C11.9435 10.4222 11.6297 10.14 11.25 10.14C10.8358 10.14 10.5 10.4758 10.5 10.89V12.89L10.5068 12.9918C10.5565 13.3578 10.8703 13.64 11.25 13.64C11.6642 13.64 12 13.3042 12 12.89V10.89L11.9932 10.7882ZM14.57 9.14C14.9497 9.14 15.2635 9.42215 15.3132 9.78823L15.32 9.89V12.89C15.32 13.3042 14.9842 13.64 14.57 13.64C14.1903 13.64 13.8765 13.3578 13.8268 12.9918L13.82 12.89V9.89C13.82 9.47579 14.1558 9.14 14.57 9.14Z" fill="black"/>
</svg>
