<svg width="24" height="24" viewBox="0 0 24 24" fill="none" xmlns="http://www.w3.org/2000/svg">
<path fill-rule="evenodd" clip-rule="evenodd" d="M9.0001 1.35001H5.1001C3.02888 1.35001 1.3501 3.02879 1.3501 5.10001V9.00001C1.3501 11.0712 3.02888 12.75 5.1001 12.75H9.0001C11.0713 12.75 12.7501 11.0712 12.7501 9.00001V5.10001C12.7501 3.02879 11.0713 1.35001 9.0001 1.35001ZM5.1001 2.85001H9.0001C10.2429 2.85001 11.2501 3.85722 11.2501 5.10001V9.00001C11.2501 10.2428 10.2429 11.25 9.0001 11.25H5.1001C3.85731 11.25 2.8501 10.2428 2.8501 9.00001V5.10001C2.8501 3.85722 3.85731 2.85001 5.1001 2.85001ZM16.7151 11.1548L16.9501 11.15C20.0597 11.15 22.6126 13.6024 22.7453 16.715L22.7501 16.95C22.7501 20.0596 20.2977 22.6125 17.1851 22.7452L16.9501 22.75C13.8405 22.75 11.2876 20.2976 11.1549 17.185L11.1501 16.95C11.1501 13.8404 13.6025 11.2875 16.7151 11.1548ZM16.9571 12.649L16.763 12.654C14.4684 12.7519 12.6501 14.6448 12.6499 16.934L12.6541 17.1371C12.752 19.4317 14.6449 21.25 16.9341 21.2502L17.1372 21.246C19.4318 21.1481 21.2501 19.2552 21.2503 16.966L21.2461 16.7629C21.1482 14.4683 19.2553 12.65 16.9571 12.649ZM17.5633 14.0014C17.2479 13.548 16.5384 13.5804 16.2793 14.0986L14.536 17.5851C14.5312 17.5943 14.5265 17.6037 14.522 17.6131L14.1543 18.3486L14.1149 18.4427C13.9956 18.7923 14.1501 19.185 14.4897 19.3548L14.5838 19.3942C14.9334 19.5135 15.3261 19.359 15.4959 19.0194L15.6636 18.684H18.2366L18.4043 19.0194L18.4559 19.1074C18.664 19.4126 19.0709 19.5246 19.4105 19.3548C19.781 19.1696 19.9312 18.7191 19.7459 18.3486L19.3782 17.6131C19.3737 17.6037 19.369 17.5943 19.3642 17.5851L17.6209 14.0986L17.5633 14.0014ZM17.4869 17.184L16.9501 16.11L16.4133 17.184H17.4869ZM9.0701 5.18001C9.48431 5.18001 9.8201 5.51579 9.8201 5.93001C9.8201 6.3097 9.53794 6.6235 9.17187 6.67316L9.0701 6.68001H8.74111C8.64885 7.16397 8.46961 7.61626 8.22065 8.0186C8.43908 8.18527 8.678 8.2864 8.9237 8.31593L9.0751 8.32501C9.48931 8.32501 9.8251 8.66079 9.8251 9.07501C9.8251 9.48922 9.48931 9.82501 9.0751 9.82501C8.38353 9.82501 7.73526 9.56999 7.1973 9.12038C6.58308 9.56417 5.83448 9.82501 5.0251 9.82501C4.61088 9.82501 4.2751 9.48922 4.2751 9.07501C4.2751 8.69531 4.55725 8.38152 4.92333 8.33185L5.0251 8.32501C5.64254 8.32501 6.20531 8.06711 6.61809 7.64683C6.6539 7.59533 6.69671 7.54765 6.74632 7.50526C6.94502 7.26733 7.09973 6.98767 7.19677 6.68001H7.0501H5.0301C4.61588 6.68001 4.2801 6.34422 4.2801 5.93001C4.2801 5.55031 4.56225 5.23652 4.92833 5.18685L5.0301 5.18001H6.30332C6.33862 4.79861 6.65949 4.50001 7.0501 4.50001C7.42979 4.50001 7.74359 4.78216 7.79325 5.14824L7.79539 5.18001H7.97503C8.00359 5.1767 8.03265 5.17501 8.0621 5.17501C8.09155 5.17501 8.1206 5.1767 8.14917 5.18001H9.0701ZM16.3226 4.17548C18.6246 4.32554 20.4451 6.2404 20.4451 8.58001L18.6596 7.3206C18.2316 6.42893 17.3632 5.78866 16.3362 5.68179L14.9758 5.54272C14.8245 5.64199 14.6451 5.68082 14.4718 5.65921L16.2228 6.5154C16.2137 6.52558 16.2042 6.53556 16.1944 6.54534C15.9282 6.8116 15.5115 6.83581 15.2179 6.61795L15.1338 6.54534L14.035 5.44653L14.0361 5.44665C14.0358 5.44633 14.0354 5.44601 14.0351 5.4457L14.0332 5.44474C13.8984 5.30915 13.8151 5.1223 13.8151 4.91601C13.8151 4.91582 13.8151 4.91563 13.8151 4.91544C13.815 4.75825 13.864 4.60104 13.9621 4.46879L13.968 4.46202C13.9863 4.43799 14.0063 4.41481 14.0279 4.39264L14.0348 4.38468L15.1338 3.28568C15.4267 2.99278 15.9015 2.99278 16.1944 3.28568C16.4354 3.52666 16.4781 3.89083 16.3226 4.17548ZM16.2228 6.5154C16.4317 6.28257 16.4695 5.95054 16.3362 5.68179L18.6596 7.3206C18.7321 7.47168 18.792 7.62997 18.8379 7.79412L16.2228 6.5154ZM18.8379 7.79412L20.4451 8.58001C20.4451 8.99422 20.1093 9.33001 19.6951 9.33001C19.2809 9.33001 18.9451 8.99422 18.9451 8.58001C18.9451 8.30771 18.9077 8.04413 18.8379 7.79412ZM5.04839 15.3193C4.99918 14.9527 4.68515 14.67 4.3051 14.67L5.04839 15.3193ZM5.0551 15.4251C5.0577 16.929 6.19964 18.1658 7.66396 18.3182C7.61032 18.2101 7.5844 18.0916 7.58619 17.9736L8.53278 18.9267L8.83369 18.6258L7.68121 17.6191C7.71417 17.5602 7.75569 17.5048 7.80577 17.4547C8.07203 17.1884 8.4887 17.1642 8.78231 17.3821L8.86643 17.4547L9.96453 18.5528L9.97356 18.5619C10.0414 18.6319 10.093 18.7118 10.1282 18.7969C10.1602 18.8741 10.1797 18.9578 10.1841 19.0454C10.1848 19.0582 10.1851 19.0711 10.1851 19.084V19.0846C10.1852 19.2418 10.1362 19.399 10.038 19.5312L10.0322 19.538C10.0139 19.562 9.99392 19.5852 9.97231 19.6074L9.96543 19.6153L8.86643 20.7143C8.57353 21.0072 8.09866 21.0072 7.80577 20.7143C7.56479 20.4734 7.52208 20.1092 7.67764 19.8245C5.37562 19.6745 3.5551 17.7596 3.5551 15.42C3.5551 15.0058 3.89088 14.67 4.3051 14.67L5.0551 15.4251ZM7.68121 17.6191C7.61972 17.729 7.58804 17.8511 7.58619 17.9736L5.0551 15.4251L5.0551 15.42C5.0551 15.3858 5.05281 15.3522 5.04839 15.3193L7.68121 17.6191Z" fill="black"/>
</svg>
