<svg width="24" height="24" viewBox="0 0 24 24" fill="none" xmlns="http://www.w3.org/2000/svg">
<path fill-rule="evenodd" clip-rule="evenodd" d="M7.74315 2.89823C7.69349 2.53215 7.3797 2.25 7 2.25C6.58579 2.25 6.25 2.58579 6.25 3V3.25H5L4.83243 3.25502C3.39131 3.34157 2.25 4.53705 2.25 6V17L2.25502 17.1676C2.34157 18.6087 3.53705 19.75 5 19.75H13.3778C14.2976 20.9153 15.7008 21.6814 17.2846 21.7456L17.501 21.75L17.7174 21.7456C20.5169 21.6321 22.751 19.327 22.751 16.5C22.751 14.4052 21.5244 12.5969 19.75 11.7546V6L19.745 5.83243C19.6584 4.39131 18.4629 3.25 17 3.25H15.75V3L15.7432 2.89823C15.6935 2.53215 15.3797 2.25 15 2.25C14.5858 2.25 14.25 2.58579 14.25 3V3.25H11.75V3L11.7432 2.89823C11.6935 2.53215 11.3797 2.25 11 2.25C10.5858 2.25 10.25 2.58579 10.25 3V3.25H7.75V3L7.74315 2.89823ZM18.6833 12.94C18.7265 12.9602 18.7719 12.9763 18.819 12.988C20.24 13.5214 21.251 14.8926 21.251 16.5L21.2458 16.6992C21.1457 18.6118 19.613 20.1447 17.7002 20.2448L17.5 20.249L17.3019 20.2448C15.3236 20.1413 13.751 18.504 13.751 16.5C13.751 14.4805 15.4848 12.7483 17.5044 12.75C17.9163 12.7503 18.3126 12.8171 18.6833 12.94ZM18.25 11.303V6C18.25 5.35239 17.7585 4.82042 17.1279 4.75645L17 4.75H15.75V5C15.75 5.41421 15.4142 5.75 15 5.75C14.6203 5.75 14.3065 5.46785 14.2568 5.10177L14.25 5V4.75H11.75V5C11.75 5.41421 11.4142 5.75 11 5.75C10.6203 5.75 10.3065 5.46785 10.2568 5.10177L10.25 5V4.75H7.75V5C7.75 5.41421 7.41421 5.75 7 5.75C6.6203 5.75 6.30651 5.46785 6.25685 5.10177L6.25 5V4.75H5C4.35239 4.75 3.82042 5.2415 3.75645 5.87212L3.75 6V17C3.75 17.6476 4.2415 18.1796 4.87212 18.2436L5 18.25H12.5498C12.3563 17.7026 12.251 17.1136 12.251 16.5C12.251 13.6516 14.6571 11.2477 17.5056 11.25C17.7583 11.2502 18.0068 11.2683 18.25 11.303ZM15.75 9C15.75 8.58579 15.4142 8.25 15 8.25H7L6.89823 8.25685C6.53215 8.30651 6.25 8.6203 6.25 9C6.25 9.41421 6.58579 9.75 7 9.75H15L15.1018 9.74315C15.4678 9.69349 15.75 9.3797 15.75 9ZM10 12.25C10.4142 12.25 10.75 12.5858 10.75 13C10.75 13.3797 10.4678 13.6935 10.1018 13.7432L10 13.75H7C6.58579 13.75 6.25 13.4142 6.25 13C6.25 12.6203 6.53215 12.3065 6.89823 12.2568L7 12.25H10ZM17.5 13.95C17.8797 13.95 18.1935 14.2322 18.2432 14.5982L18.25 14.7V15.75H19.3C19.7142 15.75 20.05 16.0858 20.05 16.5C20.05 16.8797 19.7678 17.1935 19.4018 17.2432L19.3 17.25H18.25V18.3C18.25 18.7142 17.9142 19.05 17.5 19.05C17.1203 19.05 16.8065 18.7678 16.7568 18.4018L16.75 18.3V17.25H15.7C15.2858 17.25 14.95 16.9142 14.95 16.5C14.95 16.1203 15.2322 15.8065 15.5982 15.7568L15.7 15.75H16.75V14.7C16.75 14.2858 17.0858 13.95 17.5 13.95Z" fill="black"/>
</svg>
