<svg width="24" height="24" viewBox="0 0 24 24" fill="none" xmlns="http://www.w3.org/2000/svg">
<path fill-rule="evenodd" clip-rule="evenodd" d="M6.5 2.25C6.8797 2.25 7.19349 2.53215 7.24315 2.89823L7.25 3V8C7.25 8.41421 6.91421 8.75 6.5 8.75C6.1203 8.75 5.80651 8.46785 5.75685 8.10177L5.75 8V3C5.75 2.58579 6.08579 2.25 6.5 2.25ZM9.25 3.084C9.25 2.12567 10.6276 2.08574 10.7424 2.96421L10.75 3.083V7.546C10.75 8.9046 10.233 10.1711 9.34442 11.063L9.16179 11.2363C8.93219 11.4423 8.79365 11.6841 8.75875 11.9293L8.75 12.052V19.5C8.75 20.7422 7.74221 21.75 6.5 21.75C5.30955 21.75 4.33439 20.8244 4.25519 19.654L4.25 19.5V12.052C4.25 11.7657 4.10608 11.4766 3.83826 11.2364C2.90074 10.3956 2.32514 9.16147 2.25685 7.81641L2.25 7.636V3.084C2.25 2.66979 2.58579 2.334 3 2.334C3.3797 2.334 3.69349 2.61615 3.74315 2.98223L3.75 3.084V7.546C3.75 8.49963 4.10355 9.37575 4.69831 9.98414L4.83979 10.1197C5.36207 10.5882 5.69167 11.2018 5.74297 11.8688L5.75 12.052V19.5C5.75 19.9138 6.08621 20.25 6.5 20.25C6.8793 20.25 7.19343 19.9675 7.24314 19.6017L7.25 19.5V12.052C7.25 11.3761 7.53607 10.7451 8.02265 10.251L8.16026 10.1196C8.79142 9.55362 9.19005 8.70519 9.24378 7.76461L9.25 7.546V3.084ZM19 2.302H18C15.9288 2.302 14.25 3.98079 14.25 6.052V12.052L14.2557 12.2591C14.3276 13.5632 15.0748 14.7113 16.1929 15.3253L16.25 15.355V19.5C16.25 20.7422 17.2578 21.75 18.5 21.75C19.7422 21.75 20.75 20.7422 20.75 19.5V4.052C20.75 3.08579 19.9662 2.302 19 2.302ZM18 3.802H19C19.1378 3.802 19.25 3.91421 19.25 4.052V19.5C19.25 19.9138 18.9138 20.25 18.5 20.25C18.0862 20.25 17.75 19.9138 17.75 19.5V14.868C17.75 14.5505 17.5501 14.2675 17.251 14.1612C16.3564 13.8436 15.75 13.0068 15.75 12.052V6.052C15.75 4.80921 16.7572 3.802 18 3.802Z" fill="black"/>
</svg>
