<svg width="24" height="24" viewBox="0 0 24 24" fill="none" xmlns="http://www.w3.org/2000/svg">
<path fill-rule="evenodd" clip-rule="evenodd" d="M7.50004 3.25C7.87973 3.25 8.19353 3.53215 8.24319 3.89823L8.25004 4V6.25H11.501C11.9386 6.25 12.2833 6.6231 12.2487 7.05934C12.0593 9.44563 10.8638 11.6632 9.10996 13.2642C9.81737 13.8183 10.668 14.182 11.5591 14.2523C11.972 14.2849 12.2803 14.6461 12.2477 15.059C12.2151 15.4719 11.8539 15.7803 11.441 15.7477C10.1229 15.6436 8.885 15.073 7.90136 14.2098C6.60979 15.0697 5.12057 15.6241 3.55919 15.7477C3.14627 15.7803 2.78505 15.4721 2.75237 15.0592C2.7197 14.6462 3.02796 14.285 3.44088 14.2523C4.66518 14.1555 5.84223 13.7356 6.88145 13.0832C6.24877 12.1976 5.83897 11.1561 5.75236 10.059C5.71977 9.64609 6.02809 9.28492 6.44102 9.25233C6.85395 9.21973 7.21512 9.52805 7.24771 9.94098C7.31109 10.7439 7.61263 11.514 8.07707 12.176C9.32838 11.0415 10.2507 9.5386 10.61 7.90148L10.639 7.75H7.50004H3.50104C3.12134 7.75 2.80755 7.46785 2.75788 7.10177L2.75104 7C2.75104 6.6203 3.03319 6.30651 3.39927 6.25685L3.50104 6.25H6.75004V4C6.75004 3.58579 7.08582 3.25 7.50004 3.25ZM15.8147 10.6954C16.0621 10.1387 16.8184 10.1039 17.1294 10.591L17.1854 10.6954L21.1854 19.6954C21.3536 20.0739 21.1832 20.5171 20.8046 20.6854C20.4577 20.8396 20.0563 20.7092 19.8623 20.3948L19.8147 20.3046L19.1238 18.75H13.8763L13.1854 20.3046C13.0312 20.6516 12.6459 20.8237 12.2912 20.7204L12.1954 20.6854C11.8485 20.5312 11.6763 20.1459 11.7796 19.7912L11.8147 19.6954L15.8147 10.6954ZM18.4572 17.25L16.5 12.846L14.5429 17.25H18.4572Z" fill="black"/>
</svg>
