<svg width="24" height="24" viewBox="0 0 24 24" fill="none" xmlns="http://www.w3.org/2000/svg">
<path fill-rule="evenodd" clip-rule="evenodd" d="M4.05973 3.76967C4.32599 3.50341 4.74266 3.4792 5.03627 3.69705L5.12039 3.76967L6.32039 4.96967C6.61328 5.26257 6.61328 5.73744 6.32039 6.03033C6.05412 6.2966 5.63746 6.32081 5.34385 6.10295L5.25973 6.03033L4.05973 4.83033C3.76684 4.53744 3.76684 4.06257 4.05973 3.76967ZM19.1875 4.0919C19.4792 3.79778 19.954 3.79579 20.2482 4.08746C20.5155 4.35261 20.5415 4.76917 20.3249 5.06369L20.2526 5.14811L19.0626 6.34811C18.7709 6.64223 18.2961 6.64421 18.002 6.35255C17.7346 6.0874 17.7086 5.67084 17.9252 5.37632L17.9975 5.2919L19.1875 4.0919ZM14.7104 7.37921C15.0849 7.44163 15.348 7.77153 15.3368 8.14079L15.3269 8.2423L15.1441 9.337H16.2751C16.6548 9.337 16.9685 9.61916 17.0182 9.98523L17.0251 10.087C17.0251 10.4667 16.7429 10.7805 16.3768 10.8302L16.2751 10.837H14.8945L14.5073 13.163H15.6001C16.0143 13.163 16.3501 13.4988 16.3501 13.913C16.3501 14.2927 16.0679 14.6065 15.7018 14.6562L15.6001 14.663H14.2571L14.0339 16.0043C13.9714 16.3788 13.6415 16.642 13.2723 16.6308L13.1708 16.6208C12.7962 16.5584 12.5331 16.2285 12.5443 15.8592L12.5543 15.7577L12.7367 14.663H10.3764L10.1529 16.0043C10.0848 16.4129 9.69834 16.6889 9.28976 16.6208C8.91523 16.5584 8.65209 16.2285 8.66329 15.8592L8.67326 15.7577L8.85506 14.663H7.72506C7.34536 14.663 7.03157 14.3808 6.9819 14.0148L6.97506 13.913C6.97506 13.5333 7.25721 13.2195 7.62329 13.1698L7.72506 13.163H9.1056L9.49287 10.837H8.40006C7.98585 10.837 7.65006 10.5012 7.65006 10.087C7.65006 9.70731 7.93221 9.39351 8.29829 9.34385L8.40006 9.337H9.74206L9.96626 7.9957C10.023 7.65522 10.3008 7.4068 10.6283 7.37286L10.7278 7.36923L10.8294 7.37921C11.2039 7.44163 11.467 7.77153 11.4558 8.14079L11.4459 8.2423L11.2634 9.337H13.6237L13.8473 7.9957C13.9097 7.62117 14.2396 7.35803 14.6088 7.36923L14.7104 7.37921ZM11.0131 10.837H13.3731L12.9861 13.163H10.6251L11.0131 10.837ZM5.99817 17.6475C5.70405 17.3558 5.22918 17.3578 4.93751 17.6519L3.74751 18.8519L3.67525 18.9363C3.45862 19.2308 3.48457 19.6474 3.75195 19.9125C4.04607 20.2042 4.52094 20.2022 4.8126 19.9081L6.0026 18.7081L6.07487 18.6237C6.29149 18.3292 6.26554 17.9126 5.99817 17.6475ZM18.6563 17.8971C18.3627 17.6792 17.946 17.7034 17.6797 17.9697C17.3868 18.2626 17.3868 18.7374 17.6797 19.0303L18.8797 20.2303L18.9638 20.303C19.2575 20.5208 19.6741 20.4966 19.9404 20.2303C20.2333 19.9374 20.2333 19.4626 19.9404 19.1697L18.7404 17.9697L18.6563 17.8971ZM22.6901 11.25C23.1043 11.25 23.4401 11.5858 23.4401 12C23.4401 12.3797 23.1579 12.6935 22.7918 12.7432L22.6901 12.75H21.0001C20.5858 12.75 20.2501 12.4142 20.2501 12C20.2501 11.6203 20.5322 11.3065 20.8983 11.2568L21.0001 11.25H22.6901ZM3.75006 12C3.75006 11.5858 3.41427 11.25 3.00006 11.25H1.31006L1.20829 11.2568C0.842212 11.3065 0.560059 11.6203 0.560059 12C0.560059 12.4142 0.895845 12.75 1.31006 12.75H3.00006L3.10183 12.7432C3.4679 12.6935 3.75006 12.3797 3.75006 12Z" fill="black"/>
</svg>
