<svg width="24" height="24" viewBox="0 0 24 24" fill="none" xmlns="http://www.w3.org/2000/svg">
<path fill-rule="evenodd" clip-rule="evenodd" d="M4.75806 3.31314L4.65665 3.35592C4.20767 3.58449 4.10222 4.20288 4.48237 4.56561L7.97312 7.896L5.96012 9.142L4.78236 8.5531C4.29098 8.30653 3.71102 8.30653 3.21771 8.55318L1.66489 9.3291C1.20688 9.55795 1.10776 10.1683 1.46979 10.5303L4.10579 13.1663C4.50443 13.565 5.07183 13.7471 5.62816 13.6562L10.7484 12.8028C11.0876 12.7465 11.4149 12.6258 11.711 12.4481L20.114 7.40612C21.1523 6.78313 21.6619 5.55391 21.3676 4.3797L21.3186 4.2084L21.2592 4.04449C20.6413 2.49036 18.7972 1.82292 17.3349 2.65889L13.0081 5.13L8.386 2.35688C8.19671 2.24331 7.96699 2.21889 7.75806 2.29014L4.75806 3.31314ZM19.8858 4.65125L19.9196 4.77019C20.0462 5.27749 19.8145 5.83655 19.3423 6.11988L10.9392 11.1619C10.8044 11.2428 10.6556 11.2977 10.5023 11.3231L5.38382 12.1762L5.3249 12.1786C5.2661 12.1739 5.20909 12.1483 5.16645 12.1057L3.26612 10.205L3.88836 9.89491C3.95923 9.85948 4.04127 9.85948 4.11076 9.89434L5.66489 10.6709C5.89758 10.7872 6.17389 10.7746 6.39503 10.6376L9.58703 8.66061L9.67697 8.59547C10.0112 8.31393 10.0377 7.79316 9.70988 7.48039L6.41112 4.333L7.91212 3.822L12.6143 6.64312C12.8469 6.78269 13.1367 6.78577 13.3723 6.65117L18.0793 3.96117C18.7665 3.56827 19.6405 3.90673 19.8858 4.65125ZM9.75012 18C9.75012 17.5858 9.41434 17.25 9.00012 17.25H2.00012L1.89835 17.2568C1.53228 17.3065 1.25012 17.6203 1.25012 18C1.25012 18.4142 1.58591 18.75 2.00012 18.75H9.00012L9.10189 18.7432C9.46797 18.6935 9.75012 18.3797 9.75012 18ZM12.2501 17.501C12.2501 20.3276 14.4847 22.6322 17.2837 22.7456L17.5001 22.75L17.7166 22.7456C20.5161 22.6321 22.7501 20.327 22.7501 17.5C22.7501 14.602 20.4027 12.2523 17.5047 12.25C14.6564 12.2477 12.2501 14.6525 12.2501 17.501ZM13.7501 17.501C13.7501 15.4813 15.4841 13.7483 17.5035 13.75C19.5735 13.7517 21.2501 15.4299 21.2501 17.5L21.2449 17.6992C21.1449 19.6118 19.6121 21.1447 17.6993 21.2448L17.5001 21.249L17.301 21.2448C15.3225 21.1413 13.7501 19.5048 13.7501 17.501ZM20.0305 15.9697C19.7376 15.6768 19.2627 15.6768 18.9698 15.9697L17.0001 17.939L16.0305 16.9697L15.9463 16.8971C15.6527 16.6792 15.2361 16.7034 14.9698 16.9697C14.6769 17.2626 14.6769 17.7374 14.9698 18.0303L16.4698 19.5303L16.5539 19.603C16.8475 19.8208 17.2642 19.7966 17.5305 19.5303L20.0305 17.0303L20.1031 16.9462C20.3209 16.6526 20.2967 16.2359 20.0305 15.9697Z" fill="black"/>
</svg>
