<svg width="38" height="29" viewBox="0 0 38 29" fill="none" xmlns="http://www.w3.org/2000/svg">
<path opacity="0.5" fill-rule="evenodd" clip-rule="evenodd" d="M14.0186 26.3452C12.7295 27.6196 11.2061 28.2568 9.44824 28.2568C7.0459 28.2568 4.87061 27.1729 2.92236 25.0049C0.974121 22.8369 0 20.083 0 16.7432C0 12.6123 1.37695 8.9209 4.13086 5.66895C6.88477 2.41699 10.0488 0.527344 13.623 0C13.9746 0.117188 14.2529 0.351562 14.458 0.703125C15.1025 1.8457 15.4248 2.69531 15.4248 3.25195L15.3369 3.60352C15.0439 3.80859 14.3701 4.2627 13.3154 4.96582C11.499 6.1377 10.2393 7.22168 9.53613 8.21777C8.54004 9.56543 8.04199 10.8838 8.04199 12.1729C8.04199 14.0186 9.18457 15.4395 11.4697 16.4355C12.9932 17.1094 14.0625 17.8125 14.6777 18.5449C15.5273 19.541 15.9521 20.6543 15.9521 21.8848C15.9521 23.584 15.3076 25.0708 14.0186 26.3452ZM35.332 26.499C34.0137 27.7295 32.4023 28.3447 30.498 28.3447C28.1543 28.3447 26.0376 27.2974 24.1479 25.2026C22.2583 23.1079 21.3135 20.5225 21.3135 17.4463C21.3135 14.9268 21.8555 12.4512 22.9395 10.0195C24.0234 7.58789 25.6055 5.52979 27.6855 3.84521C29.7656 2.16064 32.0068 0.893555 34.4092 0.0439453C34.9951 0.131836 35.5371 0.483398 36.0352 1.09863C36.709 1.94824 37.0459 2.65137 37.0459 3.20801L36.8701 3.82324C33.7354 5.78613 31.7139 7.37549 30.8057 8.59131C29.8975 9.80713 29.4434 11.1475 29.4434 12.6123C29.4434 13.4912 29.6191 14.1504 29.9707 14.5898C30.4688 15.2051 31.6113 15.9668 33.3984 16.875C36.0059 18.2227 37.3096 20.0537 37.3096 22.3682C37.3096 23.8916 36.6504 25.2686 35.332 26.499Z" fill="#E0E6ED"/>
</svg>
